SplineFontDB: 3.2
FontName: simulacra
FullName: simulacra
FamilyName: simulacra
Weight: Book
Copyright: Wouter van Oortmerssen
Version: 1.000
ItalicAngle: 0
UnderlinePosition: -256
UnderlineWidth: 128
Ascent: 1792
Descent: 256
InvalidEm: 0
sfntRevision: 0x00010000
LayerCount: 2
Layer: 0 1 "Back" 1
Layer: 1 1 "Fore" 0
XUID: [1021 263 1508069811 6656461]
StyleMap: 0x0040
FSType: 0
OS2Version: 3
OS2_WeightWidthSlopeOnly: 0
OS2_UseTypoMetrics: 0
CreationTime: 1380047040
ModificationTime: 1608306269
PfmFamily: 81
TTFWeight: 400
TTFWidth: 5
LineGap: 0
VLineGap: 0
Panose: 0 0 5 4 0 0 0 0 0 4
OS2TypoAscent: 1792
OS2TypoAOffset: 0
OS2TypoDescent: -256
OS2TypoDOffset: 0
OS2TypoLinegap: 0
OS2WinAscent: 1856
OS2WinAOffset: 0
OS2WinDescent: 192
OS2WinDOffset: 0
HheadAscent: 1792
HheadAOffset: 0
HheadDescent: -256
HheadDOffset: 0
OS2SubXSize: 1351
OS2SubYSize: 1351
OS2SubXOff: 0
OS2SubYOff: 220
OS2SupXSize: 1351
OS2SupYSize: 1351
OS2SupXOff: 0
OS2SupYOff: 565
OS2StrikeYSize: 154
OS2StrikeYPos: 640
OS2CapHeight: 1664
OS2XHeight: 1664
OS2Vendor: '    '
OS2CodePages: 00000001.00000000
OS2UnicodeRanges: 00000001.00000000.00000000.00000000
MarkAttachClasses: 1
DEI: 91125
ShortTable: maxp 16
  1
  0
  157
  648
  162
  0
  0
  0
  0
  0
  0
  0
  0
  0
  0
  0
EndShort
LangName: 1033 "" "" "Modern" "FontForge 2.0 : simulacra : 25-9-2020" "" "Version 1.000"
GaspTable: 1 65535 2 0
Encoding: UnicodeBmp
UnicodeInterp: none
NameList: AGL For New Fonts
DisplaySize: -96
AntiAlias: 1
FitToEm: 0
WinInfo: 171 9 8
BeginChars: 65540 158

StartChar: .notdef
Encoding: 65536 -1 0
Width: 2048
Flags: W
LayerCount: 2
Fore
SplineSet
190 0 m 1,0,-1
 190 1664 l 1,1,-1
 1856 1664 l 1,2,-1
 1856 0 l 1,3,-1
 190 0 l 1,0,-1
352 160 m 1,4,-1
 1696 160 l 1,5,-1
 1696 1504 l 1,6,-1
 352 1504 l 1,7,-1
 352 160 l 1,4,-1
352 1504 m 1,8,-1
 912 832 l 1,9,-1
 352 160 l 1,10,-1
 560 160 l 1,11,-1
 1024 720 l 1,12,-1
 1488 160 l 1,13,-1
 1696 160 l 1,14,-1
 1136 832 l 1,15,-1
 1696 1504 l 1,16,-1
 1488 1504 l 1,17,-1
 1024 944 l 1,18,-1
 560 1504 l 1,19,-1
 352 1504 l 1,8,-1
EndSplineSet
EndChar

StartChar: uni001B
Encoding: 27 27 3
Width: 2048
GlyphClass: 2
Flags: W
LayerCount: 2
Fore
SplineSet
832 1792 m 1,0,-1
 1116 1792 l 1,1,-1
 1216 1792 l 1,2,-1
 1216 0 l 1,3,-1
 832 0 l 1,4,-1
 832 1792 l 1,0,-1
EndSplineSet
EndChar

StartChar: uni001C
Encoding: 28 28 4
Width: 2048
GlyphClass: 2
Flags: W
LayerCount: 2
Fore
SplineSet
0 1792 m 1,0,-1
 2048 1792 l 1,1,-1
 2048 -256 l 1,2,-1
 0 -256 l 1,3,-1
 0 1792 l 1,0,-1
EndSplineSet
EndChar

StartChar: uni001D
Encoding: 29 29 5
Width: 2048
GlyphClass: 2
Flags: W
LayerCount: 2
Fore
SplineSet
0 1052 m 1,0,-1
 2048 1052 l 1,1,-1
 2048 680 l 1,2,-1
 0 680 l 1,3,-1
 0 1052 l 1,0,-1
EndSplineSet
EndChar

StartChar: uni001E
Encoding: 30 30 6
Width: 2048
GlyphClass: 2
Flags: W
LayerCount: 2
Fore
SplineSet
832 1792 m 1,0,-1
 1116 1792 l 1,1,-1
 1216 1792 l 1,2,-1
 1216 -256 l 1,3,-1
 832 -256 l 1,4,-1
 832 1792 l 1,0,-1
EndSplineSet
EndChar

StartChar: uni001F
Encoding: 31 31 7
Width: 2048
GlyphClass: 2
Flags: W
LayerCount: 2
Fore
SplineSet
192 1280 m 1,0,-1
 190 1666 l 1,1,-1
 576 1664 l 1,2,-1
 832 1664 l 1,3,-1
 832 1280 l 1,4,-1
 1216 1280 l 1,5,-1
 1216 1664 l 1,6,-1
 1472 1664 l 1,7,-1
 1855 1663 l 1,8,-1
 1856 1280 l 1,9,-1
 1856 1024 l 1,10,-1
 1472 1024 l 1,11,-1
 1472 640 l 1,12,-1
 1856 640 l 1,13,-1
 1856 384 l 1,14,-1
 1856 0 l 1,15,-1
 1472 0 l 1,16,-1
 1216 0 l 1,17,-1
 1216 384 l 1,18,-1
 832 384 l 1,19,-1
 832 0 l 1,20,-1
 576 0 l 1,21,-1
 193 0 l 1,22,-1
 192 384 l 1,23,-1
 192 640 l 1,24,-1
 576 640 l 1,25,-1
 576 1024 l 1,26,-1
 192 1024 l 1,27,-1
 192 1280 l 1,0,-1
832 1024 m 1,28,-1
 832 640 l 1,29,-1
 1216 640 l 1,30,-1
 1216 1024 l 1,31,-1
 832 1024 l 1,28,-1
EndSplineSet
EndChar

StartChar: exclam
Encoding: 33 33 9
Width: 2048
GlyphClass: 2
Flags: W
LayerCount: 2
Fore
SplineSet
896 1664 m 1,0,-1
 1152 1664 l 1,1,-1
 1152 512 l 1,2,-1
 896 512 l 1,3,-1
 896 1664 l 1,0,-1
896 256 m 1,4,-1
 1152 256 l 1,5,-1
 1152 0 l 1,6,-1
 896 0 l 1,7,-1
 896 256 l 1,4,-1
EndSplineSet
EndChar

StartChar: quotedbl
Encoding: 34 34 10
Width: 2048
GlyphClass: 2
Flags: W
LayerCount: 2
Fore
SplineSet
1152 1664 m 1,0,-1
 1536 1664 l 1,1,-1
 1536 1280 l 1,2,-1
 1344 960 l 1,3,-1
 1152 1280 l 1,4,-1
 1152 1664 l 1,0,-1
1152 1664 m 1,5,-1
 1536 1664 l 1,6,-1
 1536 1280 l 1,7,-1
 1344 960 l 1,8,-1
 1152 1280 l 1,9,-1
 1152 1664 l 1,5,-1
512 1664 m 1,10,-1
 896 1664 l 1,11,-1
 896 1280 l 1,12,-1
 704 960 l 1,13,-1
 512 1280 l 1,14,-1
 512 1664 l 1,10,-1
512 1664 m 1,15,-1
 896 1664 l 1,16,-1
 896 1280 l 1,17,-1
 704 960 l 1,18,-1
 512 1280 l 1,19,-1
 512 1664 l 1,15,-1
EndSplineSet
EndChar

StartChar: numbersign
Encoding: 35 35 11
Width: 2048
GlyphClass: 2
Flags: W
LayerCount: 2
Fore
SplineSet
192 1280 m 1,0,-1
 576 1280 l 1,1,-1
 576 1664 l 1,2,-1
 832 1664 l 1,3,-1
 832 1280 l 1,4,-1
 1216 1280 l 1,5,-1
 1216 1664 l 1,6,-1
 1472 1664 l 1,7,-1
 1472 1280 l 1,8,-1
 1856 1280 l 1,9,-1
 1856 1024 l 1,10,-1
 1472 1024 l 1,11,-1
 1472 640 l 1,12,-1
 1856 640 l 1,13,-1
 1856 384 l 1,14,-1
 1472 384 l 1,15,-1
 1472 0 l 1,16,-1
 1216 0 l 1,17,-1
 1216 384 l 1,18,-1
 832 384 l 1,19,-1
 832 0 l 1,20,-1
 576 0 l 1,21,-1
 576 384 l 1,22,-1
 192 384 l 1,23,-1
 192 640 l 1,24,-1
 576 640 l 1,25,-1
 576 1024 l 1,26,-1
 192 1024 l 1,27,-1
 192 1280 l 1,0,-1
832 1024 m 1,28,-1
 832 640 l 1,29,-1
 1216 640 l 1,30,-1
 1216 1024 l 1,31,-1
 832 1024 l 1,28,-1
EndSplineSet
EndChar

StartChar: dollar
Encoding: 36 36 12
Width: 2048
GlyphClass: 2
Flags: W
LayerCount: 2
Fore
SplineSet
1856 1280 m 1,0,-1
 640 1280 l 2,1,2
 448 1280 448 1280 448 1120 c 128,-1,3
 448 960 448 960 640 960 c 2,4,-1
 1408 960 l 2,5,6
 1856 960 1856 960 1856 544 c 128,-1,7
 1856 128 1856 128 1408 128 c 2,8,-1
 192 128 l 1,9,-1
 192 384 l 1,10,-1
 1408 384 l 2,11,12
 1600 384 1600 384 1600 544 c 128,-1,13
 1600 704 1600 704 1408 704 c 2,14,-1
 640 704 l 2,15,16
 192 704 192 704 192 1120 c 128,-1,17
 192 1536 192 1536 640 1536 c 2,18,-1
 1856 1536 l 1,19,-1
 1856 1280 l 1,0,-1
896 1664 m 1,20,-1
 1152 1664 l 1,21,-1
 1152 0 l 1,22,-1
 896 0 l 1,23,-1
 896 1664 l 1,20,-1
EndSplineSet
EndChar

StartChar: percent
Encoding: 37 37 13
Width: 2048
GlyphClass: 2
Flags: W
LayerCount: 2
Fore
SplineSet
1632 1664 m 1,0,-1
 728 0 l 1,1,-1
 432 0 l 1,2,-1
 1336 1664 l 1,3,-1
 1632 1664 l 1,0,-1
384 1664 m 1,4,-1
 768 1664 l 1,5,-1
 768 1280 l 1,6,-1
 384 1280 l 1,7,-1
 384 1664 l 1,4,-1
1280 384 m 1,8,-1
 1664 384 l 1,9,-1
 1664 0 l 1,10,-1
 1280 0 l 1,11,-1
 1280 384 l 1,8,-1
EndSplineSet
EndChar

StartChar: ampersand
Encoding: 38 38 14
Width: 2048
GlyphClass: 2
Flags: W
LayerCount: 2
Fore
SplineSet
672 0 m 2,0,1
 192 0 192 0 192 384 c 128,-1,2
 192 768 192 768 512 928 c 1,3,4
 320 1088 320 1088 320 1376 c 128,-1,5
 320 1664 320 1664 672 1664 c 2,6,-1
 896 1664 l 2,7,8
 1280 1664 1280 1664 1280 1216 c 1,9,10
 1216 960 1216 960 960 864 c 1,11,12
 1152 704 1152 704 1280 576 c 1,13,-1
 1664 960 l 1,14,-1
 1856 768 l 1,15,-1
 1472 384 l 1,16,-1
 1728 160 l 1,17,-1
 1536 0 l 1,18,-1
 1312 192 l 1,19,20
 1216 64 1216 64 960 0 c 1,21,-1
 672 0 l 2,0,1
768 1408 m 0,22,23
 576 1408 576 1408 576 1280 c 0,24,25
 576 1216 576 1216 640 1152 c 2,26,-1
 768 1024 l 1,27,-1
 960 1152 l 1,28,29
 1024 1184 1024 1184 1024 1296 c 128,-1,30
 1024 1408 1024 1408 896 1408 c 0,31,32
 832 1408 832 1408 768 1408 c 0,22,23
544 640 m 0,33,34
 448 544 448 544 448 400 c 128,-1,35
 448 256 448 256 672 256 c 2,36,-1
 896 256 l 1,37,38
 992 288 992 288 1088 384 c 1,39,40
 896 576 896 576 704 736 c 1,41,42
 608 704 608 704 544 640 c 0,33,34
EndSplineSet
EndChar

StartChar: quotesingle
Encoding: 39 39 15
Width: 2048
GlyphClass: 2
Flags: W
LayerCount: 2
Fore
SplineSet
832 1664 m 1,0,-1
 1216 1664 l 1,1,-1
 1216 1280 l 1,2,-1
 1024 960 l 1,3,-1
 832 1280 l 1,4,-1
 832 1664 l 1,0,-1
EndSplineSet
EndChar

StartChar: parenleft
Encoding: 40 40 16
Width: 2048
GlyphClass: 2
Flags: W
LayerCount: 2
Fore
SplineSet
1152 1792 m 1,0,-1
 1248 1536 l 1,1,2
 896 1536 896 1536 896 896 c 256,3,4
 896 256 896 256 1248 128 c 1,5,-1
 1152 -128 l 1,6,7
 640 128 640 128 640 896 c 256,8,9
 640 1664 640 1664 1152 1792 c 1,0,-1
EndSplineSet
EndChar

StartChar: parenright
Encoding: 41 41 17
Width: 2048
GlyphClass: 2
Flags: W
LayerCount: 2
Fore
SplineSet
896 1792 m 1,0,-1
 800 1536 l 1,1,2
 1152 1536 1152 1536 1152 896 c 256,3,4
 1152 256 1152 256 800 128 c 1,5,-1
 896 -128 l 1,6,7
 1408 128 1408 128 1408 896 c 256,8,9
 1408 1664 1408 1664 896 1792 c 1,0,-1
EndSplineSet
EndChar

StartChar: asterisk
Encoding: 42 42 18
Width: 2048
GlyphClass: 2
Flags: W
LayerCount: 2
Fore
SplineSet
192 960 m 1,0,-1
 704 960 l 1,1,-1
 384 1344 l 1,2,-1
 576 1536 l 1,3,-1
 1024 960 l 1,4,-1
 1472 1536 l 1,5,-1
 1664 1344 l 1,6,-1
 1344 960 l 1,7,-1
 1856 960 l 1,8,9
 1856 704 1856 704 1856 704 c 1,10,11
 1739 704 1739 704 1344 704 c 1,12,13
 1344 704 1344 704 1664 320 c 1,14,15
 1664 320 1664 320 1472 128 c 1,16,17
 1472 128 1472 128 1024 704 c 1,18,19
 1024 704 1024 704 576 128 c 1,20,21
 576 128 576 128 384 320 c 1,22,23
 704 704 704 704 704 704 c 1,24,25
 601 704 601 704 192 704 c 1,26,-1
 192 960 l 1,0,-1
EndSplineSet
EndChar

StartChar: plus
Encoding: 43 43 19
Width: 2048
GlyphClass: 2
Flags: W
LayerCount: 2
Fore
SplineSet
192 960 m 1,0,-1
 894 960 l 1,1,2
 894 1178 894 1178 896 1664 c 1,3,4
 976 1663 976 1663 1152 1664 c 1,5,-1
 1150 962 l 1,6,-1
 1856 960 l 1,7,-1
 1856 704 l 1,8,-1
 1152 704 l 1,9,-1
 1152 0 l 1,10,-1
 896 0 l 1,11,-1
 896 704 l 1,12,-1
 192 704 l 1,13,-1
 192 960 l 1,0,-1
EndSplineSet
EndChar

StartChar: comma
Encoding: 44 44 20
Width: 2048
GlyphClass: 2
Flags: W
LayerCount: 2
Fore
SplineSet
832 576 m 1,0,-1
 1216 576 l 1,1,-1
 1216 192 l 1,2,-1
 1024 -128 l 1,3,-1
 832 -128 l 1,4,-1
 1024 192 l 1,5,-1
 832 192 l 1,6,-1
 832 576 l 1,0,-1
EndSplineSet
EndChar

StartChar: hyphen
Encoding: 45 45 21
Width: 2048
GlyphClass: 2
Flags: W
LayerCount: 2
Fore
SplineSet
192 960 m 1,0,-1
 1856 960 l 1,1,2
 1856 669 1856 669 1856 704 c 1,3,4
 1855 704 1855 704 192 704 c 1,5,-1
 192 960 l 1,0,-1
EndSplineSet
EndChar

StartChar: period
Encoding: 46 46 22
Width: 2048
GlyphClass: 2
Flags: W
LayerCount: 2
Fore
SplineSet
832 576 m 1,0,-1
 1216 576 l 1,1,-1
 1216 192 l 1,2,-1
 832 192 l 1,3,-1
 832 576 l 1,0,-1
EndSplineSet
EndChar

StartChar: slash
Encoding: 47 47 23
Width: 2048
GlyphClass: 2
Flags: W
LayerCount: 2
Fore
SplineSet
1632 1664 m 1,0,-1
 728 0 l 1,1,-1
 432 0 l 1,2,-1
 1336 1664 l 1,3,-1
 1632 1664 l 1,0,-1
EndSplineSet
EndChar

StartChar: zero
Encoding: 48 48 24
Width: 2048
GlyphClass: 2
Flags: W
LayerCount: 2
Fore
SplineSet
192 960 m 0,0,1
 192 1664 192 1664 896 1664 c 0,2,3
 1024 1664 1024 1664 1152 1664 c 0,4,5
 1856 1664 1856 1664 1856 960 c 0,6,7
 1856 832 1856 832 1856 704 c 0,8,9
 1856 0 1856 0 1152 0 c 0,10,11
 1013 0 1013 0 896 0 c 0,12,13
 192 0 192 0 192 704 c 0,14,15
 192 864 192 864 192 960 c 0,0,1
448 992 m 0,16,17
 448 832 448 832 447 671 c 0,18,19
 448 256 448 256 858 256 c 0,20,21
 1024 256 1024 256 1184 256 c 0,22,23
 1600 256 1600 256 1600 672 c 0,24,25
 1600 800 1600 800 1602 996 c 0,26,27
 1600 1408 1600 1408 1184 1408 c 0,28,29
 1056 1408 1056 1408 864 1408 c 0,30,31
 448 1408 448 1408 448 992 c 0,16,17
1408 1408 m 1,32,-1
 1600 1216 l 1,33,-1
 640 256 l 1,34,-1
 448 448 l 1,35,-1
 1408 1408 l 1,32,-1
EndSplineSet
EndChar

StartChar: one
Encoding: 49 49 25
Width: 2048
GlyphClass: 2
Flags: W
LayerCount: 2
Fore
SplineSet
192 0 m 1,0,-1
 192 256 l 1,1,-1
 896 256 l 1,2,-1
 896 1344 l 1,3,-1
 576 1088 l 1,4,-1
 576 1408 l 1,5,-1
 896 1664 l 1,6,-1
 1152 1664 l 1,7,-1
 1152 1408 l 1,8,-1
 1152 256 l 1,9,-1
 1856 256 l 1,10,-1
 1856 0 l 1,11,-1
 192 0 l 1,0,-1
EndSplineSet
EndChar

StartChar: two
Encoding: 50 50 26
Width: 2048
GlyphClass: 2
Flags: W
LayerCount: 2
Fore
SplineSet
384 1216 m 1,0,-1
 192 1408 l 1,1,2
 434 1664 434 1664 1024 1664 c 0,3,4
 1856 1664 1856 1664 1856 1088 c 0,5,6
 1856 736 1856 736 576 256 c 1,7,-1
 1856 256 l 1,8,-1
 1856 0 l 1,9,-1
 192 0 l 1,10,-1
 192 352 l 1,11,12
 1664 928 1664 928 1600 1168 c 128,-1,13
 1536 1408 1536 1408 1024 1408 c 0,14,15
 496 1408 496 1408 384 1216 c 1,0,-1
EndSplineSet
EndChar

StartChar: three
Encoding: 51 51 27
Width: 2048
GlyphClass: 2
Flags: W
LayerCount: 2
Fore
SplineSet
192 0 m 1,0,-1
 192 256 l 1,1,-1
 448 704 l 1,2,-1
 448 960 l 1,3,-1
 192 1408 l 1,4,-1
 192 1664 l 1,5,-1
 1376 1664 l 2,6,7
 1856 1664 1856 1664 1856 1216 c 0,8,9
 1856 832 1856 832 1536 832 c 1,10,11
 1856 832 1856 832 1856 416 c 128,-1,12
 1856 0 1856 0 1376 0 c 2,13,-1
 192 0 l 1,0,-1
192 1408 m 1,14,-1
 448 960 l 1,15,-1
 1376 960 l 2,16,17
 1600 960 1600 960 1600 1184 c 128,-1,18
 1600 1408 1600 1408 1408 1408 c 0,19,20
 896 1408 896 1408 192 1408 c 1,14,-1
448 704 m 1,21,-1
 192 256 l 1,22,-1
 1408 256 l 2,23,24
 1600 256 1600 256 1600 480 c 128,-1,25
 1600 704 1600 704 1376 704 c 0,26,27
 896 704 896 704 448 704 c 1,21,-1
EndSplineSet
EndChar

StartChar: four
Encoding: 52 52 28
Width: 2048
GlyphClass: 2
Flags: W
LayerCount: 2
Fore
SplineSet
1600 0 m 1,0,-1
 1600 512 l 1,1,-1
 1856 512 l 1,2,-1
 1856 768 l 1,3,-1
 1600 768 l 1,4,-1
 1600 1664 l 1,5,-1
 1280 1664 l 1,6,-1
 192 832 l 1,7,-1
 192 512 l 1,8,-1
 1344 512 l 1,9,-1
 1344 0 l 1,10,-1
 1600 0 l 1,0,-1
1344 768 m 1,11,-1
 512 768 l 1,12,-1
 1344 1344 l 1,13,-1
 1344 768 l 1,11,-1
EndSplineSet
EndChar

StartChar: five
Encoding: 53 53 29
Width: 2048
GlyphClass: 2
Flags: W
LayerCount: 2
Fore
SplineSet
384 448 m 1,0,-1
 192 256 l 1,1,2
 434 0 434 0 1024 0 c 0,3,4
 1856 0 1856 0 1856 576 c 256,5,6
 1856 1152 1856 1152 448 1152 c 1,7,-1
 448 1408 l 1,8,-1
 1856 1408 l 1,9,-1
 1856 1664 l 1,10,-1
 192 1664 l 1,11,-1
 192 960 l 1,12,13
 1664 896 1664 896 1600 576 c 128,-1,14
 1536 256 1536 256 1024 256 c 0,15,16
 496 256 496 256 384 448 c 1,0,-1
EndSplineSet
EndChar

StartChar: six
Encoding: 54 54 30
Width: 2048
GlyphClass: 2
Flags: W
LayerCount: 2
Fore
SplineSet
1344 1664 m 1,0,1
 192 1664 192 1664 192 832 c 128,-1,2
 192 0 192 0 640 0 c 2,3,-1
 1408 0 l 2,4,5
 1856 0 1856 0 1856 480 c 128,-1,6
 1856 960 1856 960 1408 960 c 0,7,8
 1280 960 1280 960 640 960 c 0,9,10
 416 960 416 960 488 1096 c 128,-1,11
 560 1232 560 1232 768 1320 c 128,-1,12
 976 1408 976 1408 1344 1408 c 1,13,14
 1344 1536 1344 1536 1344 1664 c 1,0,1
640 256 m 0,15,16
 544 256 544 256 480 480 c 128,-1,17
 416 704 416 704 640 704 c 2,18,-1
 1408 704 l 2,19,20
 1600 704 1600 704 1600 480 c 128,-1,21
 1600 256 1600 256 1408 256 c 0,22,23
 896 256 896 256 640 256 c 0,15,16
EndSplineSet
EndChar

StartChar: seven
Encoding: 55 55 31
Width: 2048
GlyphClass: 2
Flags: W
LayerCount: 2
Fore
SplineSet
1856 1664 m 1,0,-1
 952 0 l 1,1,-1
 656 0 l 1,2,-1
 1424 1408 l 1,3,-1
 192 1408 l 1,4,-1
 192 1664 l 1,5,-1
 1856 1664 l 1,0,-1
EndSplineSet
EndChar

StartChar: eight
Encoding: 56 56 32
Width: 2048
GlyphClass: 2
Flags: W
LayerCount: 2
Fore
SplineSet
672 0 m 2,0,1
 192 0 192 0 192 416 c 128,-1,2
 192 832 192 832 512 832 c 1,3,4
 192 832 192 832 192 1248 c 128,-1,5
 192 1664 192 1664 672 1664 c 2,6,-1
 1376 1664 l 2,7,8
 1856 1664 1856 1664 1856 1216 c 0,9,10
 1856 832 1856 832 1536 832 c 1,11,12
 1856 832 1856 832 1856 416 c 128,-1,13
 1856 0 1856 0 1376 0 c 2,14,-1
 672 0 l 2,0,1
640 1408 m 0,15,16
 448 1408 448 1408 448 1184 c 128,-1,17
 448 960 448 960 672 960 c 2,18,-1
 1376 960 l 2,19,20
 1600 960 1600 960 1600 1184 c 128,-1,21
 1600 1408 1600 1408 1408 1408 c 0,22,23
 896 1408 896 1408 640 1408 c 0,15,16
672 704 m 256,24,25
 448 704 448 704 448 480 c 128,-1,26
 448 256 448 256 640 256 c 2,27,-1
 1408 256 l 2,28,29
 1600 256 1600 256 1600 480 c 128,-1,30
 1600 704 1600 704 1376 704 c 0,31,32
 896 704 896 704 672 704 c 256,24,25
EndSplineSet
EndChar

StartChar: nine
Encoding: 57 57 33
Width: 2048
GlyphClass: 2
Flags: W
LayerCount: 2
Fore
SplineSet
704 0 m 1,0,1
 1856 0 1856 0 1856 832 c 128,-1,2
 1856 1664 1856 1664 1408 1664 c 2,3,-1
 640 1664 l 2,4,5
 192 1664 192 1664 192 1184 c 128,-1,6
 192 704 192 704 640 704 c 0,7,8
 768 704 768 704 1408 704 c 0,9,10
 1632 704 1632 704 1560 568 c 128,-1,11
 1488 432 1488 432 1280 344 c 128,-1,12
 1072 256 1072 256 704 256 c 1,13,14
 704 128 704 128 704 0 c 1,0,1
1408 1408 m 0,15,16
 1504 1408 1504 1408 1568 1184 c 128,-1,17
 1632 960 1632 960 1408 960 c 2,18,-1
 640 960 l 2,19,20
 448 960 448 960 448 1184 c 128,-1,21
 448 1408 448 1408 640 1408 c 0,22,23
 1152 1408 1152 1408 1408 1408 c 0,15,16
EndSplineSet
EndChar

StartChar: colon
Encoding: 58 58 34
Width: 2048
GlyphClass: 2
Flags: W
LayerCount: 2
Fore
SplineSet
832 1472 m 1,0,-1
 1216 1472 l 1,1,-1
 1216 1088 l 1,2,-1
 832 1088 l 1,3,-1
 832 1472 l 1,0,-1
832 576 m 1,4,-1
 1216 576 l 1,5,-1
 1216 192 l 1,6,-1
 832 192 l 1,7,-1
 832 576 l 1,4,-1
EndSplineSet
EndChar

StartChar: semicolon
Encoding: 59 59 35
Width: 2048
GlyphClass: 2
Flags: W
LayerCount: 2
Fore
SplineSet
832 1472 m 1,0,-1
 1216 1472 l 1,1,-1
 1216 1088 l 1,2,-1
 832 1088 l 1,3,-1
 832 1472 l 1,0,-1
832 576 m 1,4,-1
 1216 576 l 1,5,-1
 1216 192 l 1,6,-1
 1024 -128 l 1,7,-1
 832 -128 l 1,8,-1
 1024 192 l 1,9,-1
 832 192 l 1,10,-1
 832 576 l 1,4,-1
EndSplineSet
EndChar

StartChar: less
Encoding: 60 60 36
Width: 2048
GlyphClass: 2
Flags: W
LayerCount: 2
Fore
SplineSet
1856 1664 m 1,0,-1
 192 1024 l 1,1,-1
 192 640 l 1,2,-1
 1856 0 l 1,3,-1
 1856 272 l 1,4,-1
 416 832 l 1,5,-1
 1856 1392 l 1,6,-1
 1856 1664 l 1,0,-1
EndSplineSet
EndChar

StartChar: equal
Encoding: 61 61 37
Width: 2048
GlyphClass: 2
Flags: W
LayerCount: 2
Fore
SplineSet
192 1344 m 1,0,-1
 1856 1344 l 1,1,2
 1856 1053 1856 1053 1856 1088 c 1,3,4
 1855 1088 1855 1088 192 1088 c 1,5,-1
 192 1344 l 1,0,-1
192 576 m 1,6,-1
 1856 576 l 1,7,8
 1856 285 1856 285 1856 320 c 1,9,10
 1855 320 1855 320 192 320 c 1,11,-1
 192 576 l 1,6,-1
EndSplineSet
EndChar

StartChar: greater
Encoding: 62 62 38
Width: 2048
GlyphClass: 2
Flags: W
LayerCount: 2
Fore
SplineSet
192 1664 m 1,0,-1
 1856 1024 l 1,1,-1
 1856 640 l 1,2,-1
 192 0 l 1,3,-1
 192 272 l 1,4,-1
 1632 832 l 1,5,-1
 192 1392 l 1,6,-1
 192 1664 l 1,0,-1
EndSplineSet
EndChar

StartChar: question
Encoding: 63 63 39
Width: 2048
GlyphClass: 2
Flags: W
LayerCount: 2
Fore
SplineSet
384 1216 m 1,0,-1
 192 1408 l 1,1,2
 434 1664 434 1664 1024 1664 c 0,3,4
 1856 1664 1856 1664 1856 1152 c 256,5,6
 1856 640 1856 640 1152 640 c 1,7,-1
 1152 512 l 1,8,-1
 896 512 l 1,9,-1
 896 896 l 1,10,11
 1600 896 1600 896 1600 1152 c 128,-1,12
 1600 1408 1600 1408 1024 1408 c 0,13,14
 496 1408 496 1408 384 1216 c 1,0,-1
896 256 m 1,15,-1
 1152 256 l 1,16,-1
 1152 0 l 1,17,-1
 896 0 l 1,18,-1
 896 256 l 1,15,-1
EndSplineSet
EndChar

StartChar: at
Encoding: 64 64 40
Width: 2048
GlyphClass: 2
Flags: W
LayerCount: 2
Fore
SplineSet
1344 832 m 2,0,1
 1344 1152 1344 1152 1024 1151 c 0,2,3
 704 1152 704 1152 704 832 c 256,4,5
 704 512 704 512 1024 512 c 2,6,-1
 1856 512 l 1,7,8
 1856 1664 1856 1664 1024 1664 c 256,9,10
 192 1664 192 1664 192 896 c 0,11,12
 192 0 192 0 1024 0 c 2,13,-1
 1856 0 l 1,14,-1
 1856 256 l 1,15,-1
 1024 256 l 2,16,17
 448 256 448 256 448 832 c 256,18,19
 448 1408 448 1408 1024 1408 c 256,20,21
 1600 1408 1600 1408 1600 704 c 1,22,-1
 1344 704 l 1,23,-1
 1344 832 l 2,0,1
EndSplineSet
EndChar

StartChar: A
Encoding: 65 65 41
Width: 2048
GlyphClass: 2
Flags: W
LayerCount: 2
Fore
SplineSet
192 0 m 1,0,-1
 192 960 l 2,1,2
 192 1664 192 1664 896 1664 c 1,3,4
 1047 1668 1047 1668 1152 1664 c 1,5,6
 1856 1664 1856 1664 1856 960 c 0,7,8
 1856 768 1856 768 1856 0 c 1,9,-1
 1600 0 l 1,10,-1
 1600 704 l 1,11,-1
 448 704 l 1,12,-1
 448 0 l 1,13,-1
 192 0 l 1,0,-1
448 960 m 2,14,-1
 1600 960 l 1,15,-1
 1602 991 l 1,16,17
 1600 1408 1600 1408 1184 1409 c 0,18,19
 1124 1409 1124 1409 873 1410 c 0,20,21
 448 1408 448 1408 447 992 c 0,22,23
 449 961 449 961 448 960 c 2,14,-1
EndSplineSet
EndChar

StartChar: B
Encoding: 66 66 42
Width: 2048
GlyphClass: 2
Flags: W
LayerCount: 2
Fore
SplineSet
192 0 m 1,0,-1
 192 1664 l 1,1,-1
 1376 1664 l 2,2,3
 1856 1664 1856 1664 1856 1216 c 0,4,5
 1856 832 1856 832 1536 832 c 1,6,7
 1856 832 1856 832 1856 416 c 128,-1,8
 1856 0 1856 0 1376 0 c 2,9,-1
 192 0 l 1,0,-1
448 1408 m 1,10,-1
 448 960 l 1,11,-1
 1376 960 l 2,12,13
 1600 960 1600 960 1600 1184 c 128,-1,14
 1600 1408 1600 1408 1408 1408 c 0,15,16
 896 1408 896 1408 448 1408 c 1,10,-1
448 704 m 1,17,-1
 448 256 l 1,18,-1
 1408 256 l 2,19,20
 1600 256 1600 256 1600 480 c 128,-1,21
 1600 704 1600 704 1376 704 c 0,22,23
 896 704 896 704 448 704 c 1,17,-1
EndSplineSet
EndChar

StartChar: C
Encoding: 67 67 43
Width: 2048
GlyphClass: 2
Flags: W
LayerCount: 2
Fore
SplineSet
1856 1664 m 1,0,-1
 896 1664 l 2,1,2
 192 1663 192 1663 192 960 c 0,3,4
 192 864 192 864 192 704 c 0,5,6
 193 0 193 0 896 0 c 0,7,8
 1344 0 1344 0 1856 0 c 1,9,-1
 1856 256 l 1,10,-1
 864 256 l 2,11,12
 455 257 455 257 448 672 c 0,13,14
 448 800 448 800 448 992 c 0,15,16
 451 1418 451 1418 864 1408 c 1,17,18
 1248 1408 1248 1408 1856 1408 c 1,19,-1
 1856 1664 l 1,0,-1
EndSplineSet
EndChar

StartChar: D
Encoding: 68 68 44
Width: 2048
GlyphClass: 2
Flags: W
LayerCount: 2
Fore
SplineSet
192 0 m 1,0,-1
 192 1664 l 1,1,-1
 1088 1664 l 2,2,3
 1856 1664 1856 1664 1856 832 c 256,4,5
 1856 0 1856 0 1088 0 c 0,6,7
 704 0 704 0 192 0 c 1,0,-1
448 1408 m 1,8,-1
 448 256 l 1,9,-1
 1184 256 l 2,10,11
 1600 256 1600 256 1600 832 c 128,-1,12
 1600 1408 1600 1408 1184 1408 c 0,13,14
 704 1408 704 1408 448 1408 c 1,8,-1
EndSplineSet
EndChar

StartChar: E
Encoding: 69 69 45
Width: 2048
GlyphClass: 2
Flags: W
LayerCount: 2
Fore
SplineSet
1856 1664 m 1,0,-1
 896 1664 l 2,1,2
 192 1663 192 1663 192 960 c 0,3,4
 192 864 192 864 192 704 c 0,5,6
 193 0 193 0 896 0 c 0,7,8
 1344 0 1344 0 1856 0 c 1,9,-1
 1856 256 l 1,10,-1
 864 256 l 1,11,12
 455 289 455 289 448 704 c 1,13,14
 1344 704 1344 704 1600 704 c 1,15,16
 1600 832 1600 832 1600 960 c 1,17,18
 1152 960 1152 960 448 960 c 1,19,20
 451 1386 451 1386 864 1408 c 1,21,22
 1248 1408 1248 1408 1856 1408 c 1,23,-1
 1856 1664 l 1,0,-1
EndSplineSet
EndChar

StartChar: F
Encoding: 70 70 46
Width: 2048
GlyphClass: 2
Flags: W
LayerCount: 2
Fore
SplineSet
192 0 m 1,0,-1
 192 1664 l 1,1,-1
 1856 1664 l 1,2,-1
 1856 1408 l 1,3,-1
 448 1408 l 1,4,-1
 448 960 l 1,5,-1
 1600 960 l 1,6,-1
 1600 704 l 1,7,-1
 448 704 l 1,8,-1
 448 0 l 1,9,-1
 192 0 l 1,0,-1
EndSplineSet
EndChar

StartChar: G
Encoding: 71 71 47
Width: 2048
GlyphClass: 2
Flags: W
LayerCount: 2
Fore
SplineSet
1856 1665 m 1,0,-1
 896 1665 l 2,1,2
 192 1664 192 1664 192 961 c 0,3,4
 192 865 192 865 192 705 c 0,5,6
 193 1 193 1 896 1 c 0,7,8
 1344 1 1344 1 1856 1 c 1,9,-1
 1856 961 l 1,10,-1
 1088 961 l 1,11,-1
 1088 705 l 1,12,-1
 1600 705 l 1,13,-1
 1600 257 l 1,14,-1
 864 257 l 2,15,16
 455 258 455 258 448 673 c 0,17,18
 448 801 448 801 448 993 c 0,19,20
 451 1419 451 1419 864 1409 c 1,21,22
 1248 1409 1248 1409 1856 1409 c 1,23,-1
 1856 1665 l 1,0,-1
EndSplineSet
EndChar

StartChar: H
Encoding: 72 72 48
Width: 2048
GlyphClass: 2
Flags: W
LayerCount: 2
Fore
SplineSet
192 0 m 1,0,-1
 192 1664 l 1,1,-1
 448 1664 l 1,2,-1
 448 960 l 1,3,-1
 1600 960 l 1,4,-1
 1600 1664 l 1,5,-1
 1856 1664 l 1,6,-1
 1856 0 l 1,7,-1
 1600 0 l 1,8,-1
 1600 704 l 1,9,-1
 448 704 l 1,10,-1
 448 0 l 1,11,-1
 192 0 l 1,0,-1
EndSplineSet
EndChar

StartChar: I
Encoding: 73 73 49
Width: 2048
GlyphClass: 2
Flags: W
LayerCount: 2
Fore
SplineSet
192 0 m 1,0,-1
 192 256 l 1,1,-1
 896 256 l 1,2,-1
 896 1408 l 1,3,-1
 192 1408 l 1,4,-1
 192 1664 l 1,5,-1
 1856 1664 l 1,6,-1
 1856 1408 l 1,7,-1
 1152 1408 l 1,8,-1
 1152 256 l 1,9,-1
 1856 256 l 1,10,-1
 1856 0 l 1,11,-1
 192 0 l 1,0,-1
EndSplineSet
EndChar

StartChar: J
Encoding: 74 74 50
Width: 2048
GlyphClass: 2
Flags: W
LayerCount: 2
Fore
SplineSet
192 0 m 1,0,-1
 1152 0 l 2,1,2
 1856 0 1856 0 1856 704 c 0,3,4
 1856 1024 1856 1024 1856 1664 c 1,5,-1
 1600 1664 l 1,6,7
 1600 1152 1600 1152 1600 672 c 0,8,9
 1600 256 1600 256 1184 256 c 2,10,-1
 192 256 l 1,11,-1
 192 0 l 1,0,-1
EndSplineSet
EndChar

StartChar: K
Encoding: 75 75 51
Width: 2048
GlyphClass: 2
Flags: W
LayerCount: 2
Fore
SplineSet
192 0 m 1,0,-1
 192 1664 l 1,1,-1
 448 1664 l 1,2,-1
 448 960 l 1,3,-1
 1424 1664 l 1,4,-1
 1856 1664 l 1,5,-1
 720 832 l 1,6,-1
 1856 0 l 1,7,-1
 1424 0 l 1,8,-1
 448 704 l 1,9,-1
 448 0 l 1,10,-1
 192 0 l 1,0,-1
EndSplineSet
EndChar

StartChar: L
Encoding: 76 76 52
Width: 2048
GlyphClass: 2
Flags: W
LayerCount: 2
Fore
SplineSet
192 0 m 1,0,-1
 192 1664 l 1,1,-1
 448 1664 l 1,2,-1
 448 256 l 1,3,-1
 1856 256 l 1,4,-1
 1856 0 l 1,5,-1
 192 0 l 1,0,-1
EndSplineSet
EndChar

StartChar: M
Encoding: 77 77 53
Width: 2048
GlyphClass: 2
Flags: W
LayerCount: 2
Fore
SplineSet
192 0 m 1,0,-1
 192 1664 l 1,1,-1
 544 1664 l 1,2,-1
 1024 896 l 1,3,-1
 1504 1664 l 1,4,-1
 1856 1664 l 1,5,-1
 1856 0 l 1,6,-1
 1600 0 l 1,7,8
 1600 576 1600 576 1600 1344 c 1,9,10
 1408 1024 1408 1024 1216 704 c 1,11,-1
 832 704 l 1,12,-1
 449 1340 l 1,13,-1
 448 0 l 1,14,-1
 192 0 l 1,0,-1
EndSplineSet
EndChar

StartChar: N
Encoding: 78 78 54
Width: 2048
GlyphClass: 2
Flags: W
LayerCount: 2
Fore
SplineSet
192 0 m 1,0,-1
 192 1664 l 1,1,-1
 512 1664 l 1,2,-1
 1600 320 l 1,3,-1
 1600 1664 l 1,4,-1
 1856 1664 l 1,5,-1
 1856 0 l 1,6,-1
 1536 0 l 1,7,-1
 447 1343 l 1,8,-1
 448 0 l 1,9,-1
 192 0 l 1,0,-1
EndSplineSet
EndChar

StartChar: O
Encoding: 79 79 55
Width: 2048
GlyphClass: 2
Flags: W
LayerCount: 2
Fore
SplineSet
192 960 m 0,0,1
 192 1664 192 1664 896 1664 c 0,2,3
 1024 1664 1024 1664 1152 1664 c 0,4,5
 1856 1664 1856 1664 1856 960 c 0,6,7
 1856 832 1856 832 1856 704 c 0,8,9
 1856 0 1856 0 1152 0 c 0,10,11
 1013 0 1013 0 896 0 c 0,12,13
 192 0 192 0 192 704 c 0,14,15
 192 864 192 864 192 960 c 0,0,1
448 992 m 0,16,17
 448 832 448 832 447 671 c 0,18,19
 448 256 448 256 858 256 c 0,20,21
 1024 256 1024 256 1184 256 c 0,22,23
 1600 256 1600 256 1600 672 c 0,24,25
 1600 800 1600 800 1602 996 c 0,26,27
 1600 1408 1600 1408 1184 1408 c 0,28,29
 1056 1408 1056 1408 864 1408 c 0,30,31
 448 1408 448 1408 448 992 c 0,16,17
EndSplineSet
EndChar

StartChar: P
Encoding: 80 80 56
Width: 2048
GlyphClass: 2
Flags: W
LayerCount: 2
Fore
SplineSet
192 0 m 1,0,-1
 192 1664 l 1,1,-1
 1408 1664 l 2,2,3
 1856 1664 1856 1664 1856 1184 c 128,-1,4
 1856 704 1856 704 1408 704 c 0,5,6
 1280 704 1280 704 448 704 c 1,7,8
 448 576 448 576 448 416 c 128,-1,9
 448 256 448 256 448 0 c 1,10,11
 320 0 320 0 192 0 c 1,0,-1
448 1408 m 1,12,-1
 448 960 l 1,13,-1
 1408 960 l 2,14,15
 1600 960 1600 960 1600 1184 c 128,-1,16
 1600 1408 1600 1408 1408 1408 c 0,17,18
 896 1408 896 1408 448 1408 c 1,12,-1
EndSplineSet
EndChar

StartChar: Q
Encoding: 81 81 57
Width: 2048
GlyphClass: 2
Flags: W
LayerCount: 2
Fore
SplineSet
192 960 m 0,0,1
 192 1664 192 1664 896 1664 c 0,2,3
 1024 1664 1024 1664 1152 1664 c 0,4,5
 1856 1664 1856 1664 1856 960 c 0,6,7
 1856 832 1856 832 1856 704 c 1,8,-1
 1808 368 l 1,9,-1
 1760 272 l 1,10,-1
 1856 176 l 1,11,12
 1776 96 1776 96 1680 0 c 1,13,-1
 1584 96 l 1,14,-1
 1520 64 l 1,15,-1
 1152 0 l 1,16,17
 1013 0 1013 0 896 0 c 0,18,19
 192 0 192 0 192 704 c 0,20,21
 192 864 192 864 192 960 c 0,0,1
448 992 m 0,22,23
 448 832 448 832 447 671 c 0,24,25
 448 256 448 256 858 256 c 0,26,27
 1024 256 1024 256 1184 256 c 1,28,-1
 1344 288 l 1,29,-1
 1376 304 l 1,30,-1
 1216 464 l 1,31,32
 1328 576 1328 576 1392 640 c 1,33,-1
 1552 480 l 1,34,-1
 1584 544 l 1,35,-1
 1600 672 l 1,36,37
 1600 800 1600 800 1602 996 c 0,38,39
 1600 1408 1600 1408 1184 1408 c 0,40,41
 1056 1408 1056 1408 864 1408 c 0,42,43
 448 1408 448 1408 448 992 c 0,22,23
EndSplineSet
EndChar

StartChar: R
Encoding: 82 82 58
Width: 2048
GlyphClass: 2
Flags: W
LayerCount: 2
Fore
SplineSet
192 0 m 1,0,-1
 192 1664 l 1,1,-1
 1408 1664 l 2,2,3
 1856 1664 1856 1664 1856 1216 c 0,4,5
 1856 704 1856 704 1408 704 c 0,6,7
 1280 704 1280 704 1088 704 c 1,8,-1
 1856 0 l 1,9,-1
 1472 0 l 1,10,-1
 704 704 l 1,11,-1
 448 704 l 1,12,13
 448 576 448 576 448 416 c 128,-1,14
 448 256 448 256 448 0 c 1,15,16
 320 0 320 0 192 0 c 1,0,-1
448 1408 m 1,17,-1
 448 960 l 1,18,-1
 1408 960 l 2,19,20
 1600 960 1600 960 1600 1184 c 128,-1,21
 1600 1408 1600 1408 1408 1408 c 0,22,23
 896 1408 896 1408 448 1408 c 1,17,-1
EndSplineSet
EndChar

StartChar: S
Encoding: 83 83 59
Width: 2048
GlyphClass: 2
Flags: W
LayerCount: 2
Fore
SplineSet
1856 1408 m 1,0,-1
 640 1408 l 2,1,2
 448 1408 448 1408 448 1184 c 128,-1,3
 448 960 448 960 640 960 c 2,4,-1
 1408 960 l 2,5,6
 1856 960 1856 960 1856 480 c 128,-1,7
 1856 0 1856 0 1408 0 c 2,8,-1
 192 0 l 1,9,-1
 192 256 l 1,10,-1
 1408 256 l 2,11,12
 1600 256 1600 256 1600 480 c 128,-1,13
 1600 704 1600 704 1408 704 c 2,14,-1
 640 704 l 2,15,16
 192 704 192 704 192 1184 c 128,-1,17
 192 1664 192 1664 640 1664 c 2,18,-1
 1856 1664 l 1,19,-1
 1856 1408 l 1,0,-1
EndSplineSet
EndChar

StartChar: T
Encoding: 84 84 60
Width: 2048
GlyphClass: 2
Flags: W
LayerCount: 2
Fore
SplineSet
192 1664 m 1,0,-1
 1856 1664 l 1,1,-1
 1856 1408 l 1,2,-1
 1152 1408 l 1,3,-1
 1152 0 l 1,4,-1
 896 0 l 1,5,-1
 896 1408 l 1,6,-1
 192 1408 l 1,7,-1
 192 1664 l 1,0,-1
EndSplineSet
EndChar

StartChar: U
Encoding: 85 85 61
Width: 2048
GlyphClass: 2
Flags: W
LayerCount: 2
Fore
SplineSet
192 1664 m 1,0,-1
 192 672 l 2,1,2
 192 0 192 0 1024 0 c 256,3,4
 1856 0 1856 0 1856 672 c 2,5,-1
 1856 1664 l 1,6,-1
 1600 1664 l 1,7,-1
 1600 640 l 2,8,9
 1600 256 1600 256 1024 256 c 256,10,11
 448 256 448 256 448 640 c 2,12,-1
 448 1664 l 1,13,-1
 192 1664 l 1,0,-1
EndSplineSet
EndChar

StartChar: V
Encoding: 86 86 62
Width: 2048
GlyphClass: 2
Flags: W
LayerCount: 2
Fore
SplineSet
192 1664 m 1,0,1
 192 1664 192 1664 832 0 c 1,2,-1
 1216 0 l 1,3,-1
 1856 1664 l 1,4,-1
 1584 1664 l 1,5,-1
 1024 224 l 1,6,7
 1024 224 1024 224 464 1664 c 1,8,9
 352 1664 352 1664 192 1664 c 1,0,1
EndSplineSet
EndChar

StartChar: W
Encoding: 87 87 63
Width: 2048
GlyphClass: 2
Flags: W
LayerCount: 2
Fore
SplineSet
192 1664 m 1,0,-1
 192 0 l 1,1,-1
 544 0 l 1,2,3
 1024 768 1024 768 1024 768 c 1,4,-1
 1504 0 l 1,5,-1
 1856 0 l 1,6,-1
 1856 1664 l 1,7,-1
 1600 1664 l 1,8,-1
 1600 320 l 1,9,-1
 1216 960 l 1,10,-1
 832 960 l 1,11,-1
 448 320 l 1,12,-1
 448 1664 l 1,13,-1
 192 1664 l 1,0,-1
EndSplineSet
EndChar

StartChar: X
Encoding: 88 88 64
Width: 2048
GlyphClass: 2
Flags: W
LayerCount: 2
Fore
SplineSet
192 1664 m 1,0,-1
 832 832 l 1,1,-1
 192 0 l 1,2,-1
 512 0 l 1,3,-1
 1024 640 l 1,4,-1
 1536 0 l 1,5,-1
 1856 0 l 1,6,-1
 1216 832 l 1,7,-1
 1856 1664 l 1,8,-1
 1536 1664 l 1,9,-1
 1024 1024 l 1,10,-1
 512 1664 l 1,11,-1
 192 1664 l 1,0,-1
EndSplineSet
EndChar

StartChar: Y
Encoding: 89 89 65
Width: 2048
GlyphClass: 2
Flags: W
LayerCount: 2
Fore
SplineSet
192 1664 m 1,0,-1
 896 896 l 1,1,-1
 896 0 l 1,2,-1
 1152 0 l 1,3,-1
 1152 896 l 1,4,-1
 1856 1664 l 1,5,-1
 1504 1664 l 1,6,-1
 1024 1136 l 1,7,-1
 544 1664 l 1,8,-1
 192 1664 l 1,0,-1
EndSplineSet
EndChar

StartChar: Z
Encoding: 90 90 66
Width: 2048
GlyphClass: 2
Flags: W
LayerCount: 2
Fore
SplineSet
192 1408 m 1,0,-1
 192 1664 l 1,1,-1
 1856 1664 l 1,2,-1
 1856 1344 l 1,3,-1
 512 256 l 1,4,-1
 1856 256 l 1,5,-1
 1856 0 l 1,6,-1
 192 0 l 1,7,-1
 192 320 l 1,8,-1
 1536 1408 l 1,9,-1
 192 1408 l 1,0,-1
EndSplineSet
EndChar

StartChar: bracketleft
Encoding: 91 91 67
Width: 2048
GlyphClass: 2
Flags: W
LayerCount: 2
Fore
SplineSet
1344 1792 m 1,0,-1
 704 1792 l 1,1,-1
 704 -128 l 1,2,-1
 1344 -128 l 1,3,-1
 1344 128 l 1,4,-1
 960 128 l 1,5,-1
 960 1536 l 1,6,-1
 1344 1536 l 1,7,-1
 1344 1792 l 1,0,-1
EndSplineSet
EndChar

StartChar: backslash
Encoding: 92 92 68
Width: 2048
GlyphClass: 2
Flags: W
LayerCount: 2
Fore
SplineSet
432 1664 m 1,0,-1
 1336 0 l 1,1,-1
 1632 0 l 1,2,-1
 728 1664 l 1,3,-1
 432 1664 l 1,0,-1
EndSplineSet
EndChar

StartChar: bracketright
Encoding: 93 93 69
Width: 2048
GlyphClass: 2
Flags: W
LayerCount: 2
Fore
SplineSet
704 1792 m 1,0,-1
 1344 1792 l 1,1,-1
 1344 -128 l 1,2,-1
 704 -128 l 1,3,-1
 704 128 l 1,4,-1
 1088 128 l 1,5,-1
 1088 1536 l 1,6,-1
 704 1536 l 1,7,-1
 704 1792 l 1,0,-1
EndSplineSet
EndChar

StartChar: asciicircum
Encoding: 94 94 70
Width: 2048
GlyphClass: 2
Flags: W
LayerCount: 2
Fore
SplineSet
512 832 m 1,0,1
 512 832 512 832 832 1664 c 1,2,-1
 1216 1664 l 1,3,-1
 1536 832 l 1,4,-1
 1264 832 l 1,5,-1
 1024 1440 l 1,6,7
 1024 1440 1024 1440 784 832 c 1,8,9
 672 832 672 832 512 832 c 1,0,1
EndSplineSet
EndChar

StartChar: underscore
Encoding: 95 95 71
Width: 2048
GlyphClass: 2
Flags: W
LayerCount: 2
Fore
SplineSet
192 256 m 1,0,-1
 1856 256 l 1,1,2
 1856 -35 1856 -35 1856 0 c 1,3,4
 1855 0 1855 0 192 0 c 1,5,-1
 192 256 l 1,0,-1
EndSplineSet
EndChar

StartChar: grave
Encoding: 96 96 72
Width: 2048
GlyphClass: 2
Flags: W
LayerCount: 2
Fore
SplineSet
1216 1664 m 1,0,-1
 832 1664 l 1,1,-1
 832 1280 l 1,2,-1
 1024 1280 l 1,3,-1
 1216 960 l 1,4,-1
 1408 960 l 1,5,-1
 1216 1280 l 1,6,-1
 1216 1664 l 1,0,-1
EndSplineSet
EndChar

StartChar: a
Encoding: 97 97 73
Width: 2048
GlyphClass: 2
Flags: W
LayerCount: 2
Fore
SplineSet
288 96 m 1,0,-1
 288 960 l 2,1,2
 288 1568 288 1568 896 1568 c 2,3,4
 896 1568 896 1568 1152 1568 c 0,5,6
 1760 1568 1760 1568 1760 960 c 2,7,8
 1760 960 1760 960 1760 96 c 1,9,-1
 1600 96 l 1,10,-1
 1600 752 l 1,11,-1
 448 752 l 1,12,-1
 448 96 l 1,13,-1
 288 96 l 1,0,-1
448 912 m 1,14,-1
 1600 912 l 1,15,-1
 1602 991 l 1,16,17
 1600 1408 1600 1408 1184 1409 c 0,18,19
 1024 1408 1024 1408 873 1410 c 0,20,21
 448 1408 448 1408 447 992 c 1,22,23
 448 992 448 992 448 912 c 1,14,-1
EndSplineSet
EndChar

StartChar: b
Encoding: 98 98 74
Width: 2048
GlyphClass: 2
Flags: W
LayerCount: 2
Fore
SplineSet
288 96 m 1,0,-1
 288 1568 l 1,1,-1
 1376 1568 l 2,2,3
 1760 1568 1760 1568 1760 1184 c 0,4,5
 1760 832 1760 832 1472 832 c 1,6,7
 1760 832 1760 832 1760 464 c 128,-1,8
 1760 96 1760 96 1376 96 c 2,9,-1
 288 96 l 1,0,-1
448 1408 m 1,10,-1
 448 912 l 1,11,-1
 1376 912 l 2,12,13
 1600 912 1600 912 1600 1160 c 128,-1,14
 1600 1408 1600 1408 1408 1408 c 0,15,16
 896 1408 896 1408 448 1408 c 1,10,-1
448 752 m 1,17,-1
 448 256 l 1,18,-1
 1408 256 l 2,19,20
 1600 256 1600 256 1600 504 c 128,-1,21
 1600 752 1600 752 1376 752 c 0,22,23
 896 752 896 752 448 752 c 1,17,-1
EndSplineSet
EndChar

StartChar: c
Encoding: 99 99 75
Width: 2048
GlyphClass: 2
Flags: W
LayerCount: 2
Fore
SplineSet
1760 1568 m 1,0,-1
 896 1568 l 2,1,2
 288 1568 288 1568 288 960 c 0,3,4
 288 864 288 864 288 704 c 0,5,6
 288 96 288 96 896 96 c 0,7,8
 1344 96 1344 96 1760 96 c 1,9,-1
 1760 256 l 1,10,-1
 864 256 l 2,11,12
 455 257 455 257 448 672 c 0,13,14
 448 800 448 800 448 992 c 0,15,16
 451 1418 451 1418 864 1408 c 1,17,18
 1248 1408 1248 1408 1760 1408 c 1,19,-1
 1760 1568 l 1,0,-1
EndSplineSet
EndChar

StartChar: d
Encoding: 100 100 76
Width: 2048
GlyphClass: 2
Flags: W
LayerCount: 2
Fore
SplineSet
288 96 m 1,0,-1
 288 1568 l 1,1,-1
 1088 1568 l 2,2,3
 1760 1568 1760 1568 1760 832 c 256,4,5
 1760 96 1760 96 1088 96 c 0,6,7
 704 96 704 96 288 96 c 1,0,-1
448 1408 m 1,8,-1
 448 256 l 1,9,-1
 1184 256 l 2,10,11
 1600 256 1600 256 1600 832 c 128,-1,12
 1600 1408 1600 1408 1184 1408 c 0,13,14
 704 1408 704 1408 448 1408 c 1,8,-1
EndSplineSet
EndChar

StartChar: e
Encoding: 101 101 77
Width: 2048
GlyphClass: 2
Flags: W
LayerCount: 2
Fore
SplineSet
1760 1568 m 1,0,-1
 896 1568 l 2,1,2
 288 1568 288 1568 288 960 c 0,3,4
 288 864 288 864 288 704 c 0,5,6
 288 96 288 96 896 96 c 0,7,8
 1344 96 1344 96 1760 96 c 1,9,-1
 1760 256 l 1,10,-1
 864 256 l 1,11,12
 455 289 455 289 448 752 c 1,13,14
 1344 752 1344 752 1504 752 c 1,15,16
 1504 816 1504 816 1504 912 c 1,17,18
 1152 912 1152 912 448 912 c 1,19,20
 451 1386 451 1386 864 1408 c 1,21,22
 1248 1408 1248 1408 1760 1408 c 1,23,-1
 1760 1568 l 1,0,-1
EndSplineSet
EndChar

StartChar: f
Encoding: 102 102 78
Width: 2048
GlyphClass: 2
Flags: W
LayerCount: 2
Fore
SplineSet
288 96 m 1,0,-1
 288 1568 l 1,1,-1
 1760 1568 l 1,2,-1
 1760 1408 l 1,3,-1
 448 1408 l 1,4,-1
 448 912 l 1,5,-1
 1504 912 l 1,6,-1
 1504 752 l 1,7,-1
 448 752 l 1,8,-1
 448 96 l 1,9,-1
 288 96 l 1,0,-1
EndSplineSet
EndChar

StartChar: g
Encoding: 103 103 79
Width: 2048
GlyphClass: 2
Flags: W
LayerCount: 2
Fore
SplineSet
1760 1568 m 1,0,-1
 896 1568 l 2,1,2
 288 1568 288 1568 288 960 c 0,3,4
 288 864 288 864 288 704 c 0,5,6
 288 96 288 96 896 96 c 0,7,8
 1344 96 1344 96 1760 96 c 1,9,-1
 1760 912 l 1,10,-1
 1088 912 l 1,11,-1
 1088 752 l 1,12,-1
 1600 752 l 1,13,-1
 1600 257 l 1,14,-1
 864 257 l 2,15,16
 455 258 455 258 448 673 c 0,17,18
 448 801 448 801 448 993 c 0,19,20
 451 1419 451 1419 864 1409 c 1,21,22
 1248 1409 1248 1409 1760 1408 c 1,23,-1
 1760 1568 l 1,0,-1
EndSplineSet
EndChar

StartChar: h
Encoding: 104 104 80
Width: 2048
GlyphClass: 2
Flags: W
LayerCount: 2
Fore
SplineSet
288 96 m 1,0,-1
 288 1568 l 1,1,-1
 448 1568 l 1,2,-1
 448 912 l 1,3,-1
 1600 912 l 1,4,-1
 1600 1568 l 1,5,-1
 1760 1568 l 1,6,-1
 1760 96 l 1,7,-1
 1600 96 l 1,8,-1
 1600 752 l 1,9,-1
 448 752 l 1,10,-1
 448 96 l 1,11,-1
 288 96 l 1,0,-1
EndSplineSet
EndChar

StartChar: i
Encoding: 105 105 81
Width: 2048
GlyphClass: 2
Flags: W
LayerCount: 2
Fore
SplineSet
288 96 m 1,0,-1
 288 256 l 1,1,-1
 944 256 l 1,2,-1
 944 1408 l 1,3,-1
 288 1408 l 1,4,-1
 288 1568 l 1,5,-1
 1760 1568 l 1,6,-1
 1760 1408 l 1,7,-1
 1104 1408 l 1,8,-1
 1104 256 l 1,9,-1
 1760 256 l 1,10,-1
 1760 96 l 1,11,-1
 288 96 l 1,0,-1
EndSplineSet
EndChar

StartChar: j
Encoding: 106 106 82
Width: 2048
GlyphClass: 2
Flags: W
LayerCount: 2
Fore
SplineSet
288 96 m 1,0,-1
 1152 96 l 2,1,2
 1760 96 1760 96 1760 704 c 0,3,4
 1760 1024 1760 1024 1760 1568 c 1,5,-1
 1600 1568 l 1,6,7
 1600 1152 1600 1152 1600 672 c 0,8,9
 1600 256 1600 256 1184 256 c 2,10,-1
 288 256 l 1,11,-1
 288 96 l 1,0,-1
EndSplineSet
EndChar

StartChar: k
Encoding: 107 107 83
Width: 2048
GlyphClass: 2
Flags: W
LayerCount: 2
Fore
SplineSet
288 96 m 1,0,-1
 288 1568 l 1,1,-1
 448 1568 l 1,2,-1
 448 912 l 1,3,-1
 1456 1568 l 1,4,-1
 1760 1568 l 1,5,-1
 624 832 l 1,6,-1
 1760 96 l 1,7,-1
 1456 96 l 1,8,-1
 448 752 l 1,9,-1
 448 96 l 1,10,-1
 288 96 l 1,0,-1
EndSplineSet
EndChar

StartChar: l
Encoding: 108 108 84
Width: 2048
GlyphClass: 2
Flags: W
LayerCount: 2
Fore
SplineSet
288 96 m 1,0,-1
 288 1568 l 1,1,-1
 448 1568 l 1,2,-1
 448 256 l 1,3,-1
 1760 256 l 1,4,-1
 1760 96 l 1,5,-1
 288 96 l 1,0,-1
EndSplineSet
EndChar

StartChar: m
Encoding: 109 109 85
Width: 2048
GlyphClass: 2
Flags: W
LayerCount: 2
Fore
SplineSet
288 96 m 1,0,-1
 288 1568 l 1,1,-1
 496 1568 l 1,2,-1
 1024 864 l 1,3,-1
 1552 1568 l 1,4,-1
 1760 1568 l 1,5,-1
 1760 96 l 1,6,-1
 1600 96 l 1,7,8
 1600 576 1600 576 1600 1360 c 1,9,10
 1600 1360 1600 1360 1136 752 c 1,11,-1
 912 752 l 1,12,-1
 448 1360 l 1,13,-1
 448 96 l 1,14,-1
 288 96 l 1,0,-1
EndSplineSet
EndChar

StartChar: n
Encoding: 110 110 86
Width: 2048
GlyphClass: 2
Flags: W
LayerCount: 2
Fore
SplineSet
288 96 m 1,0,-1
 288 1568 l 1,1,-1
 496 1568 l 1,2,-1
 1600 288 l 1,3,-1
 1600 1568 l 1,4,-1
 1760 1568 l 1,5,-1
 1760 96 l 1,6,-1
 1552 96 l 1,7,-1
 448 1376 l 1,8,-1
 448 96 l 1,9,-1
 288 96 l 1,0,-1
EndSplineSet
EndChar

StartChar: o
Encoding: 111 111 87
Width: 2048
GlyphClass: 2
Flags: W
LayerCount: 2
Fore
SplineSet
288 960 m 0,0,1
 288 1568 288 1568 896 1568 c 0,2,3
 1024 1568 1024 1568 1152 1568 c 0,4,5
 1760 1568 1760 1568 1760 960 c 0,6,7
 1760 832 1760 832 1760 704 c 0,8,9
 1760 96 1760 96 1152 96 c 0,10,11
 1013 96 1013 96 896 96 c 0,12,13
 288 96 288 96 288 704 c 0,14,15
 288 864 288 864 288 960 c 0,0,1
448 992 m 0,16,17
 448 832 448 832 447 671 c 0,18,19
 448 256 448 256 858 256 c 0,20,21
 1024 256 1024 256 1184 256 c 0,22,23
 1600 256 1600 256 1600 672 c 0,24,25
 1600 800 1600 800 1602 996 c 0,26,27
 1600 1408 1600 1408 1184 1408 c 0,28,29
 1056 1408 1056 1408 864 1408 c 0,30,31
 448 1408 448 1408 448 992 c 0,16,17
EndSplineSet
EndChar

StartChar: p
Encoding: 112 112 88
Width: 2048
GlyphClass: 2
Flags: W
LayerCount: 2
Fore
SplineSet
288 96 m 1,0,-1
 288 1568 l 1,1,-1
 1408 1568 l 2,2,3
 1760 1568 1760 1568 1760 1160 c 128,-1,4
 1760 752 1760 752 1408 752 c 0,5,6
 1280 752 1280 752 448 752 c 1,7,8
 448 576 448 576 448 416 c 128,-1,9
 448 256 448 256 448 96 c 1,10,11
 384 96 384 96 288 96 c 1,0,-1
448 1408 m 1,12,-1
 448 912 l 1,13,-1
 1408 912 l 2,14,15
 1600 912 1600 912 1600 1160 c 128,-1,16
 1600 1408 1600 1408 1408 1408 c 0,17,18
 896 1408 896 1408 448 1408 c 1,12,-1
EndSplineSet
EndChar

StartChar: q
Encoding: 113 113 89
Width: 2048
GlyphClass: 2
Flags: W
LayerCount: 2
Fore
SplineSet
288 960 m 0,0,1
 288 1568 288 1568 896 1568 c 0,2,3
 1024 1568 1024 1568 1152 1568 c 0,4,5
 1760 1568 1760 1568 1760 960 c 0,6,7
 1760 832 1760 832 1760 592 c 1,8,-1
 1696 384 l 1,9,-1
 1648 320 l 1,10,-1
 1760 208 l 1,11,12
 1696 144 1696 144 1648 96 c 1,13,-1
 1536 208 l 1,14,-1
 1472 160 l 1,15,-1
 1248 96 l 1,16,17
 1013 96 1013 96 896 96 c 0,18,19
 288 96 288 96 288 704 c 0,20,21
 288 864 288 864 288 960 c 0,0,1
448 992 m 0,22,23
 448 832 448 832 447 671 c 0,24,25
 448 256 448 256 858 256 c 0,26,27
 1024 256 1024 256 1184 256 c 1,28,-1
 1344 288 l 1,29,-1
 1408 336 l 1,30,-1
 1248 496 l 1,31,32
 1328 576 1328 576 1360 608 c 1,33,-1
 1520 448 l 1,34,-1
 1584 544 l 1,35,-1
 1600 672 l 1,36,37
 1600 800 1600 800 1602 996 c 0,38,39
 1600 1408 1600 1408 1184 1408 c 0,40,41
 1056 1408 1056 1408 864 1408 c 0,42,43
 448 1408 448 1408 448 992 c 0,22,23
EndSplineSet
EndChar

StartChar: r
Encoding: 114 114 90
Width: 2048
GlyphClass: 2
Flags: W
LayerCount: 2
Fore
SplineSet
288 96 m 1,0,-1
 288 1568 l 1,1,-1
 1408 1568 l 2,2,3
 1760 1568 1760 1568 1760 1168 c 0,4,5
 1760 752 1760 752 1408 752 c 0,6,7
 1280 752 1280 752 976 752 c 1,8,-1
 1760 96 l 1,9,-1
 1504 96 l 1,10,-1
 720 752 l 1,11,-1
 448 752 l 1,12,13
 448 576 448 576 448 416 c 128,-1,14
 448 256 448 256 448 96 c 1,15,16
 384 96 384 96 288 96 c 1,0,-1
448 1408 m 1,17,-1
 448 912 l 1,18,-1
 1408 912 l 2,19,20
 1600 912 1600 912 1600 1160 c 128,-1,21
 1600 1408 1600 1408 1408 1408 c 0,22,23
 896 1408 896 1408 448 1408 c 1,17,-1
EndSplineSet
EndChar

StartChar: s
Encoding: 115 115 91
Width: 2048
GlyphClass: 2
Flags: W
LayerCount: 2
Fore
SplineSet
1760 1408 m 1,0,-1
 640 1408 l 2,1,2
 448 1408 448 1408 448 1160 c 128,-1,3
 448 912 448 912 640 912 c 2,4,-1
 1408 912 l 2,5,6
 1760 912 1760 912 1760 504 c 128,-1,7
 1760 96 1760 96 1408 96 c 2,8,-1
 288 96 l 1,9,-1
 288 256 l 1,10,-1
 1408 256 l 2,11,12
 1600 256 1600 256 1600 504 c 128,-1,13
 1600 752 1600 752 1408 752 c 2,14,-1
 640 752 l 2,15,16
 288 752 288 752 288 1160 c 128,-1,17
 288 1568 288 1568 640 1568 c 2,18,-1
 1760 1568 l 1,19,-1
 1760 1408 l 1,0,-1
EndSplineSet
EndChar

StartChar: t
Encoding: 116 116 92
Width: 2048
GlyphClass: 2
Flags: W
LayerCount: 2
Fore
SplineSet
288 1568 m 1,0,-1
 1760 1568 l 1,1,-1
 1760 1408 l 1,2,-1
 1104 1408 l 1,3,-1
 1104 96 l 1,4,-1
 944 96 l 1,5,-1
 944 1408 l 1,6,-1
 288 1408 l 1,7,-1
 288 1568 l 1,0,-1
EndSplineSet
EndChar

StartChar: u
Encoding: 117 117 93
Width: 2048
GlyphClass: 2
Flags: W
LayerCount: 2
Fore
SplineSet
288 1568 m 1,0,-1
 288 672 l 2,1,2
 288 96 288 96 1024 96 c 256,3,4
 1760 96 1760 96 1760 672 c 2,5,-1
 1760 1568 l 1,6,-1
 1600 1568 l 1,7,-1
 1600 640 l 2,8,9
 1600 256 1600 256 1024 256 c 256,10,11
 448 256 448 256 448 640 c 2,12,-1
 448 1568 l 1,13,-1
 288 1568 l 1,0,-1
EndSplineSet
EndChar

StartChar: v
Encoding: 118 118 94
Width: 2048
GlyphClass: 2
Flags: W
LayerCount: 2
Fore
SplineSet
288 1568 m 1,0,1
 288 1568 288 1568 928 96 c 1,2,-1
 1120 96 l 1,3,-1
 1760 1568 l 1,4,-1
 1588 1568 l 1,5,-1
 1024 280 l 1,6,7
 1024 280 1024 280 460 1568 c 1,8,9
 352 1568 352 1568 288 1568 c 1,0,1
EndSplineSet
EndChar

StartChar: w
Encoding: 119 119 95
Width: 2048
GlyphClass: 2
Flags: W
LayerCount: 2
Fore
SplineSet
288 1568 m 1,0,-1
 288 96 l 1,1,-1
 496 96 l 1,2,3
 1024 784 1024 784 1024 784 c 1,4,-1
 1552 96 l 1,5,-1
 1760 96 l 1,6,-1
 1760 1568 l 1,7,-1
 1600 1568 l 1,8,-1
 1600 304 l 1,9,-1
 1120 912 l 1,10,-1
 928 912 l 1,11,-1
 448 304 l 1,12,-1
 448 1568 l 1,13,-1
 288 1568 l 1,0,-1
EndSplineSet
EndChar

StartChar: x
Encoding: 120 120 96
Width: 2048
GlyphClass: 2
Flags: W
LayerCount: 2
Fore
SplineSet
288 1568 m 1,0,-1
 912 832 l 1,1,-1
 288 96 l 1,2,-1
 496 96 l 1,3,-1
 1024 720 l 1,4,-1
 1552 96 l 1,5,-1
 1760 96 l 1,6,-1
 1136 832 l 1,7,-1
 1760 1568 l 1,8,-1
 1552 1568 l 1,9,-1
 1024 944 l 1,10,-1
 496 1568 l 1,11,-1
 288 1568 l 1,0,-1
EndSplineSet
EndChar

StartChar: y
Encoding: 121 121 97
Width: 2048
GlyphClass: 2
Flags: W
LayerCount: 2
Fore
SplineSet
288 1568 m 1,0,-1
 944 928 l 1,1,-1
 944 96 l 1,2,-1
 1104 96 l 1,3,-1
 1104 928 l 1,4,-1
 1760 1568 l 1,5,-1
 1536 1568 l 1,6,-1
 1024 1072 l 1,7,-1
 512 1568 l 1,8,-1
 288 1568 l 1,0,-1
EndSplineSet
EndChar

StartChar: z
Encoding: 122 122 98
Width: 2048
GlyphClass: 2
Flags: W
LayerCount: 2
Fore
SplineSet
288 1408 m 1,0,-1
 288 1568 l 1,1,-1
 1760 1568 l 1,2,-1
 1760 1360 l 1,3,-1
 480 256 l 1,4,-1
 1760 256 l 1,5,-1
 1760 96 l 1,6,-1
 288 96 l 1,7,-1
 288 304 l 1,8,-1
 1568 1408 l 1,9,-1
 288 1408 l 1,0,-1
EndSplineSet
EndChar

StartChar: braceleft
Encoding: 123 123 99
Width: 2048
GlyphClass: 2
Flags: W
LayerCount: 2
Fore
SplineSet
1344 1792 m 1,0,-1
 1344 1536 l 1,1,2
 1024 1536 1024 1536 1024 1344 c 0,3,4
 1024 832 1024 832 768 832 c 1,5,6
 1024 832 1024 832 1024 320 c 0,7,8
 1024 128 1024 128 1344 128 c 1,9,-1
 1344 -128 l 1,10,11
 768 -128 768 -128 768 320 c 0,12,13
 768 704 768 704 384 704 c 1,14,-1
 384 960 l 1,15,16
 768 960 768 960 768 1344 c 0,17,18
 768 1792 768 1792 1344 1792 c 1,0,-1
EndSplineSet
EndChar

StartChar: bar
Encoding: 124 124 100
Width: 2048
GlyphClass: 2
Flags: W
LayerCount: 2
Fore
SplineSet
896 1792 m 1,0,-1
 1152 1792 l 1,1,-1
 1152 -128 l 1,2,-1
 896 -128 l 1,3,-1
 896 1792 l 1,0,-1
EndSplineSet
EndChar

StartChar: braceright
Encoding: 125 125 101
Width: 2048
GlyphClass: 2
Flags: W
LayerCount: 2
Fore
SplineSet
704 1792 m 1,0,-1
 704 1536 l 1,1,2
 1024 1536 1024 1536 1024 1344 c 0,3,4
 1024 832 1024 832 1280 832 c 1,5,6
 1024 832 1024 832 1024 320 c 0,7,8
 1024 128 1024 128 704 128 c 1,9,-1
 704 -128 l 1,10,11
 1280 -128 1280 -128 1280 320 c 0,12,13
 1280 704 1280 704 1664 704 c 1,14,-1
 1664 960 l 1,15,16
 1280 960 1280 960 1280 1344 c 0,17,18
 1280 1792 1280 1792 704 1792 c 1,0,-1
EndSplineSet
EndChar

StartChar: asciitilde
Encoding: 126 126 102
Width: 2048
GlyphClass: 2
Flags: W
LayerCount: 2
Fore
SplineSet
192 960 m 1,0,1
 320 1152 320 1152 640 1152 c 0,2,3
 896 1152 896 1152 1024 960 c 128,-1,4
 1152 768 1152 768 1408 768 c 0,5,6
 1728 768 1728 768 1856 960 c 1,7,8
 1856 832 1856 832 1856 704 c 1,9,10
 1728 512 1728 512 1408 512 c 0,11,12
 1152 512 1152 512 1024 704 c 128,-1,13
 896 896 896 896 640 896 c 0,14,15
 320 896 320 896 192 704 c 1,16,-1
 192 960 l 1,0,1
EndSplineSet
EndChar

StartChar: uni0082
Encoding: 130 130 103
Width: 2048
GlyphClass: 2
Flags: W
LayerCount: 2
Fore
SplineSet
0 1792 m 1,0,-1
 2048 1792 l 1,1,-1
 2048 -256 l 1,2,-1
 0 -256 l 1,3,-1
 0 1792 l 1,0,-1
EndSplineSet
EndChar

StartChar: uni0083
Encoding: 131 131 104
Width: 2048
GlyphClass: 2
Flags: W
LayerCount: 2
Fore
SplineSet
128 1792 m 1,0,-1
 256 1792 l 1,1,-1
 256 1664 l 1,2,-1
 128 1664 l 1,3,-1
 128 1792 l 1,0,-1
256 1664 m 1,4,-1
 384 1664 l 1,5,-1
 384 1536 l 1,6,-1
 256 1536 l 1,7,-1
 256 1664 l 1,4,-1
384 1664 m 1,8,-1
 384 1792 l 1,9,-1
 512 1792 l 1,10,-1
 512 1664 l 1,11,-1
 384 1664 l 1,8,-1
512 1664 m 1,12,-1
 640 1664 l 1,13,-1
 640 1792 l 1,14,-1
 1408 1792 l 1,15,-1
 1408 1664 l 1,16,-1
 1536 1664 l 1,17,-1
 1536 1536 l 1,18,-1
 1664 1536 l 1,19,-1
 1664 1408 l 1,20,-1
 1792 1408 l 1,21,-1
 1792 1280 l 1,22,-1
 1920 1280 l 1,23,-1
 1920 1152 l 1,24,-1
 2048 1152 l 1,25,-1
 2048 384 l 1,26,-1
 1920 384 l 1,27,-1
 1920 256 l 1,28,-1
 1792 256 l 1,29,-1
 1792 128 l 1,30,-1
 1664 128 l 1,31,-1
 1664 0 l 1,32,-1
 1536 0 l 1,33,-1
 1536 -128 l 1,34,-1
 1408 -128 l 1,35,-1
 1408 -256 l 1,36,-1
 640 -256 l 1,37,-1
 640 -128 l 1,38,-1
 512 -128 l 1,39,-1
 512 0 l 1,40,-1
 384 0 l 1,41,-1
 384 128 l 1,42,-1
 256 128 l 1,43,-1
 256 256 l 1,44,-1
 128 256 l 1,45,-1
 128 384 l 1,46,-1
 0 384 l 1,47,-1
 0 1152 l 1,48,-1
 128 1152 l 1,49,-1
 128 1280 l 1,50,-1
 256 1280 l 1,51,-1
 256 1408 l 1,52,-1
 384 1408 l 1,53,-1
 384 1536 l 1,54,-1
 512 1536 l 1,55,-1
 512 1664 l 1,12,-1
1536 1664 m 1,56,-1
 1536 1792 l 1,57,-1
 1664 1792 l 1,58,-1
 1664 1664 l 1,59,-1
 1536 1664 l 1,56,-1
1664 1664 m 1,60,-1
 1792 1664 l 1,61,-1
 1792 1536 l 1,62,-1
 1664 1536 l 1,63,-1
 1664 1664 l 1,60,-1
1792 1664 m 1,64,-1
 1792 1792 l 1,65,-1
 1920 1792 l 1,66,-1
 1920 1664 l 1,67,-1
 1792 1664 l 1,64,-1
1920 1664 m 1,68,-1
 2048 1664 l 1,69,-1
 2048 1536 l 1,70,-1
 1920 1536 l 1,71,-1
 1920 1664 l 1,68,-1
1920 1536 m 1,72,-1
 1920 1408 l 1,73,-1
 1792 1408 l 1,74,-1
 1792 1536 l 1,75,-1
 1920 1536 l 1,72,-1
1920 1408 m 1,76,-1
 2048 1408 l 1,77,-1
 2048 1280 l 1,78,-1
 1920 1280 l 1,79,-1
 1920 1408 l 1,76,-1
1920 256 m 1,80,-1
 2048 256 l 1,81,-1
 2048 128 l 1,82,-1
 1920 128 l 1,83,-1
 1920 256 l 1,80,-1
1920 128 m 1,84,-1
 1920 0 l 1,85,-1
 1792 0 l 1,86,-1
 1792 128 l 1,87,-1
 1920 128 l 1,84,-1
1920 0 m 1,88,-1
 2048 0 l 1,89,-1
 2048 -128 l 1,90,-1
 1920 -128 l 1,91,-1
 1920 0 l 1,88,-1
1920 -128 m 1,92,-1
 1920 -256 l 1,93,-1
 1792 -256 l 1,94,-1
 1792 -128 l 1,95,-1
 1920 -128 l 1,92,-1
1792 -128 m 1,96,-1
 1664 -128 l 1,97,-1
 1664 0 l 1,98,-1
 1792 0 l 1,99,-1
 1792 -128 l 1,96,-1
1664 -128 m 1,100,-1
 1664 -256 l 1,101,-1
 1536 -256 l 1,102,-1
 1536 -128 l 1,103,-1
 1664 -128 l 1,100,-1
512 -128 m 1,104,-1
 512 -256 l 1,105,-1
 384 -256 l 1,106,-1
 384 -128 l 1,107,-1
 512 -128 l 1,104,-1
384 -128 m 1,108,-1
 256 -128 l 1,109,-1
 256 0 l 1,110,-1
 384 0 l 1,111,-1
 384 -128 l 1,108,-1
256 -128 m 1,112,-1
 256 -256 l 1,113,-1
 128 -256 l 1,114,-1
 128 -128 l 1,115,-1
 256 -128 l 1,112,-1
128 -128 m 1,116,-1
 0 -128 l 1,117,-1
 0 0 l 1,118,-1
 128 0 l 1,119,-1
 128 -128 l 1,116,-1
128 0 m 1,120,-1
 128 128 l 1,121,-1
 256 128 l 1,122,-1
 256 0 l 1,123,-1
 128 0 l 1,120,-1
128 128 m 1,124,-1
 0 128 l 1,125,-1
 0 256 l 1,126,-1
 128 256 l 1,127,-1
 128 128 l 1,124,-1
128 1280 m 1,128,-1
 0 1280 l 1,129,-1
 0 1408 l 1,130,-1
 128 1408 l 1,131,-1
 128 1280 l 1,128,-1
128 1408 m 1,132,-1
 128 1536 l 1,133,-1
 256 1536 l 1,134,-1
 256 1408 l 1,135,-1
 128 1408 l 1,132,-1
128 1536 m 1,136,-1
 0 1536 l 1,137,-1
 0 1664 l 1,138,-1
 128 1664 l 1,139,-1
 128 1536 l 1,136,-1
EndSplineSet
EndChar

StartChar: uni0084
Encoding: 132 132 105
Width: 2048
GlyphClass: 2
Flags: W
LayerCount: 2
Fore
SplineSet
0 1792 m 1,0,-1
 1946 1792 l 1,1,-1
 1946 -154 l 1,2,-1
 0 -154 l 1,3,-1
 0 -256 l 1,4,-1
 0 1792 l 1,0,-1
1946 -154 m 1,5,-1
 2048 -154 l 1,6,-1
 1946 -154 l 1,5,-1
2048 -154 m 1,7,-1
 2048 -256 l 1,8,-1
 2048 -154 l 1,7,-1
2048 -256 m 1,9,-1
 0 -256 l 1,10,-1
 2048 -256 l 1,9,-1
205 1587 m 1,11,-1
 205 1587 l 1,12,-1
 205 51 l 1,13,-1
 307 51 l 1,14,-1
 307 1485 l 1,15,-1
 1741 1485 l 1,16,-1
 1741 1587 l 1,17,-1
 205 1587 l 1,11,-1
EndSplineSet
EndChar

StartChar: uni0085
Encoding: 133 133 106
Width: 2048
GlyphClass: 2
Flags: W
LayerCount: 2
Fore
SplineSet
0 1792 m 1,0,-1
 2048 1792 l 1,1,-1
 2048 -256 l 1,2,-1
 0 -256 l 1,3,-1
 0 1792 l 1,0,-1
128 1664 m 1,4,-1
 128 1536 l 1,5,-1
 128 -128 l 1,6,-1
 256 -128 l 1,7,-1
 256 1536 l 1,8,-1
 1920 1536 l 1,9,-1
 1920 1664 l 1,10,-1
 256 1664 l 1,11,-1
 128 1664 l 1,4,-1
1408 1152 m 1,12,-1
 1408 384 l 1,13,-1
 640 384 l 1,14,-1
 640 256 l 1,15,-1
 1408 256 l 1,16,-1
 1536 256 l 1,17,-1
 1536 1152 l 1,18,-1
 1408 1152 l 1,12,-1
EndSplineSet
EndChar

StartChar: uni0086
Encoding: 134 134 107
Width: 2048
GlyphClass: 2
Flags: W
LayerCount: 2
Fore
SplineSet
1920 1792 m 1,0,-1
 2048 1792 l 1,1,-1
 2048 -256 l 1,2,-1
 0 -256 l 1,3,-1
 0 -128 l 1,4,-1
 128 -128 l 1,5,-1
 128 1664 l 1,6,-1
 1920 1664 l 1,7,-1
 1920 1792 l 1,0,-1
EndSplineSet
EndChar

StartChar: uni0087
Encoding: 135 135 108
Width: 2048
GlyphClass: 2
Flags: W
LayerCount: 2
Fore
SplineSet
0 1792 m 1,0,-1
 2048 1792 l 1,1,-1
 2048 -256 l 1,2,-1
 0 -256 l 1,3,-1
 0 1792 l 1,0,-1
128 1664 m 1,4,-1
 128 1536 l 1,5,-1
 128 896 l 1,6,-1
 256 896 l 1,7,-1
 256 1536 l 1,8,-1
 896 1536 l 1,9,-1
 896 1664 l 1,10,-1
 256 1664 l 1,11,-1
 128 1664 l 1,4,-1
1152 1664 m 1,12,-1
 1152 896 l 1,13,-1
 1280 896 l 1,14,-1
 1280 1536 l 1,15,-1
 1920 1536 l 1,16,-1
 1920 1664 l 1,17,-1
 1152 1664 l 1,12,-1
128 640 m 1,18,-1
 128 512 l 1,19,-1
 128 -128 l 1,20,-1
 256 -128 l 1,21,-1
 256 512 l 1,22,-1
 896 512 l 1,23,-1
 896 640 l 1,24,-1
 256 640 l 1,25,-1
 128 640 l 1,18,-1
1152 640 m 1,26,-1
 1152 -128 l 1,27,-1
 1280 -128 l 1,28,-1
 1280 512 l 1,29,-1
 1920 512 l 1,30,-1
 1920 640 l 1,31,-1
 1280 640 l 1,32,-1
 1152 640 l 1,26,-1
EndSplineSet
EndChar

StartChar: uni0088
Encoding: 136 136 109
Width: 2048
GlyphClass: 2
Flags: W
LayerCount: 2
Fore
SplineSet
0 1792 m 1,0,-1
 2048 1792 l 1,1,-1
 2048 -256 l 1,2,-1
 0 -256 l 1,3,-1
 0 1792 l 1,0,-1
1152 1152 m 1,4,-1
 1152 1024 l 1,5,-1
 1024 1024 l 1,6,-1
 1024 896 l 1,7,-1
 1152 896 l 1,8,-1
 1280 896 l 1,9,-1
 1280 1024 l 1,10,-1
 1280 1152 l 1,11,-1
 1152 1152 l 1,4,-1
640 1024 m 1,12,-1
 640 896 l 1,13,-1
 768 896 l 1,14,-1
 768 1024 l 1,15,-1
 640 1024 l 1,12,-1
512 512 m 1,16,-1
 512 384 l 1,17,-1
 384 384 l 1,18,-1
 384 256 l 1,19,-1
 256 256 l 1,20,-1
 256 128 l 1,21,-1
 128 128 l 1,22,-1
 128 0 l 1,23,-1
 256 0 l 1,24,-1
 384 0 l 1,25,-1
 384 128 l 1,26,-1
 512 128 l 1,27,-1
 512 0 l 1,28,-1
 640 0 l 1,29,-1
 640 128 l 1,30,-1
 768 128 l 1,31,-1
 768 0 l 1,32,-1
 896 0 l 1,33,-1
 896 128 l 1,34,-1
 768 128 l 1,35,-1
 768 256 l 1,36,-1
 640 256 l 1,37,-1
 640 384 l 1,38,-1
 640 512 l 1,39,-1
 512 512 l 1,16,-1
512 128 m 1,40,-1
 512 256 l 1,41,-1
 640 256 l 1,42,-1
 640 128 l 1,43,-1
 512 128 l 1,40,-1
1280 512 m 1,44,-1
 1280 384 l 1,45,-1
 1408 384 l 1,46,-1
 1408 512 l 1,47,-1
 1280 512 l 1,44,-1
1792 384 m 1,48,-1
 1792 256 l 1,49,-1
 1920 256 l 1,50,-1
 1920 384 l 1,51,-1
 1792 384 l 1,48,-1
EndSplineSet
EndChar

StartChar: uni0089
Encoding: 137 137 110
Width: 2048
GlyphClass: 2
Flags: W
LayerCount: 2
Fore
SplineSet
0 1792 m 1,0,-1
 1024 1792 l 1,1,-1
 1024 1664 l 1,2,-1
 1152 1664 l 1,3,-1
 1152 1792 l 1,4,-1
 2048 1792 l 1,5,-1
 2048 0 l 1,6,-1
 1920 0 l 1,7,-1
 1920 -128 l 1,8,-1
 2048 -128 l 1,9,-1
 2048 -256 l 1,10,-1
 0 -256 l 1,11,-1
 0 768 l 1,12,-1
 128 768 l 1,13,-1
 128 896 l 1,14,-1
 0 896 l 1,15,-1
 0 1792 l 1,0,-1
128 1664 m 1,16,-1
 128 1536 l 1,17,-1
 256 1536 l 1,18,-1
 256 1664 l 1,19,-1
 128 1664 l 1,16,-1
640 1664 m 1,20,-1
 640 1536 l 1,21,-1
 768 1536 l 1,22,-1
 768 1664 l 1,23,-1
 640 1664 l 1,20,-1
1408 1664 m 1,24,-1
 1408 1536 l 1,25,-1
 1536 1536 l 1,26,-1
 1536 1664 l 1,27,-1
 1408 1664 l 1,24,-1
1792 1536 m 1,28,-1
 1792 1408 l 1,29,-1
 1920 1408 l 1,30,-1
 1920 1536 l 1,31,-1
 1792 1536 l 1,28,-1
768 1408 m 1,32,-1
 768 1280 l 1,33,-1
 896 1280 l 1,34,-1
 896 1408 l 1,35,-1
 768 1408 l 1,32,-1
1152 1408 m 1,36,-1
 1152 1280 l 1,37,-1
 1280 1280 l 1,38,-1
 1280 1408 l 1,39,-1
 1152 1408 l 1,36,-1
256 1280 m 1,40,-1
 256 1152 l 1,41,-1
 384 1152 l 1,42,-1
 384 1280 l 1,43,-1
 256 1280 l 1,40,-1
1536 1280 m 1,44,-1
 1536 1152 l 1,45,-1
 1664 1152 l 1,46,-1
 1664 1280 l 1,47,-1
 1536 1280 l 1,44,-1
640 1152 m 1,48,-1
 640 1024 l 1,49,-1
 768 1024 l 1,50,-1
 768 1152 l 1,51,-1
 640 1152 l 1,48,-1
1024 1024 m 1,52,-1
 1024 896 l 1,53,-1
 1152 896 l 1,54,-1
 1152 1024 l 1,55,-1
 1024 1024 l 1,52,-1
1792 1024 m 1,56,-1
 1792 896 l 1,57,-1
 1920 896 l 1,58,-1
 1920 1024 l 1,59,-1
 1792 1024 l 1,56,-1
1536 896 m 1,60,-1
 1536 768 l 1,61,-1
 1664 768 l 1,62,-1
 1664 896 l 1,63,-1
 1536 896 l 1,60,-1
384 768 m 1,64,-1
 384 640 l 1,65,-1
 512 640 l 1,66,-1
 512 768 l 1,67,-1
 384 768 l 1,64,-1
768 768 m 1,68,-1
 768 640 l 1,69,-1
 896 640 l 1,70,-1
 896 768 l 1,71,-1
 768 768 l 1,68,-1
1152 640 m 1,72,-1
 1152 512 l 1,73,-1
 1280 512 l 1,74,-1
 1280 640 l 1,75,-1
 1152 640 l 1,72,-1
896 512 m 1,76,-1
 896 384 l 1,77,-1
 1024 384 l 1,78,-1
 1024 512 l 1,79,-1
 896 512 l 1,76,-1
1792 512 m 1,80,-1
 1792 384 l 1,81,-1
 1920 384 l 1,82,-1
 1920 512 l 1,83,-1
 1792 512 l 1,80,-1
128 384 m 1,84,-1
 128 256 l 1,85,-1
 256 256 l 1,86,-1
 256 384 l 1,87,-1
 128 384 l 1,84,-1
512 384 m 1,88,-1
 512 256 l 1,89,-1
 640 256 l 1,90,-1
 640 384 l 1,91,-1
 512 384 l 1,88,-1
1408 384 m 1,92,-1
 1408 256 l 1,93,-1
 1536 256 l 1,94,-1
 1536 384 l 1,95,-1
 1408 384 l 1,92,-1
1024 256 m 1,96,-1
 1024 128 l 1,97,-1
 1152 128 l 1,98,-1
 1152 256 l 1,99,-1
 1024 256 l 1,96,-1
1664 128 m 1,100,-1
 1664 0 l 1,101,-1
 1792 0 l 1,102,-1
 1792 128 l 1,103,-1
 1664 128 l 1,100,-1
256 0 m 1,104,-1
 256 -128 l 1,105,-1
 384 -128 l 1,106,-1
 384 0 l 1,107,-1
 256 0 l 1,104,-1
640 0 m 1,108,-1
 640 -128 l 1,109,-1
 768 -128 l 1,110,-1
 768 0 l 1,111,-1
 640 0 l 1,108,-1
1280 0 m 1,112,-1
 1280 -128 l 1,113,-1
 1408 -128 l 1,114,-1
 1408 0 l 1,115,-1
 1280 0 l 1,112,-1
EndSplineSet
EndChar

StartChar: uni008A
Encoding: 138 138 111
Width: 2048
GlyphClass: 2
Flags: W
LayerCount: 2
Fore
SplineSet
0 1792 m 1,0,-1
 2048 1792 l 1,1,-1
 2048 1408 l 1,2,-1
 1920 1408 l 1,3,-1
 1920 1280 l 1,4,-1
 2048 1280 l 1,5,-1
 2048 896 l 1,6,-1
 1920 896 l 1,7,-1
 1920 768 l 1,8,-1
 2048 768 l 1,9,-1
 2048 384 l 1,10,-1
 1920 384 l 1,11,-1
 1920 256 l 1,12,-1
 2048 256 l 1,13,-1
 2048 -128 l 1,14,-1
 1920 -128 l 1,15,-1
 1920 -256 l 1,16,-1
 1536 -256 l 1,17,-1
 1536 -128 l 1,18,-1
 1408 -128 l 1,19,-1
 1408 -256 l 1,20,-1
 1024 -256 l 1,21,-1
 1024 -128 l 1,22,-1
 896 -128 l 1,23,-1
 896 -256 l 1,24,-1
 512 -256 l 1,25,-1
 512 -128 l 1,26,-1
 384 -128 l 1,27,-1
 384 -256 l 1,28,-1
 0 -256 l 1,29,-1
 0 1792 l 1,0,-1
128 1664 m 1,30,-1
 128 1536 l 1,31,-1
 256 1536 l 1,32,-1
 256 1664 l 1,33,-1
 128 1664 l 1,30,-1
640 1664 m 1,34,-1
 640 1536 l 1,35,-1
 768 1536 l 1,36,-1
 768 1664 l 1,37,-1
 640 1664 l 1,34,-1
1152 1664 m 1,38,-1
 1152 1536 l 1,39,-1
 1280 1536 l 1,40,-1
 1280 1664 l 1,41,-1
 1152 1664 l 1,38,-1
1664 1664 m 1,42,-1
 1664 1536 l 1,43,-1
 1792 1536 l 1,44,-1
 1792 1664 l 1,45,-1
 1664 1664 l 1,42,-1
384 1408 m 1,46,-1
 384 1280 l 1,47,-1
 512 1280 l 1,48,-1
 512 1408 l 1,49,-1
 384 1408 l 1,46,-1
896 1408 m 1,50,-1
 896 1280 l 1,51,-1
 1024 1280 l 1,52,-1
 1024 1408 l 1,53,-1
 896 1408 l 1,50,-1
1408 1408 m 1,54,-1
 1408 1280 l 1,55,-1
 1536 1280 l 1,56,-1
 1536 1408 l 1,57,-1
 1408 1408 l 1,54,-1
128 1152 m 1,58,-1
 128 1024 l 1,59,-1
 256 1024 l 1,60,-1
 256 1152 l 1,61,-1
 128 1152 l 1,58,-1
640 1152 m 1,62,-1
 640 1024 l 1,63,-1
 768 1024 l 1,64,-1
 768 1152 l 1,65,-1
 640 1152 l 1,62,-1
1152 1152 m 1,66,-1
 1152 1024 l 1,67,-1
 1280 1024 l 1,68,-1
 1280 1152 l 1,69,-1
 1152 1152 l 1,66,-1
1664 1152 m 1,70,-1
 1664 1024 l 1,71,-1
 1792 1024 l 1,72,-1
 1792 1152 l 1,73,-1
 1664 1152 l 1,70,-1
384 896 m 1,74,-1
 384 768 l 1,75,-1
 512 768 l 1,76,-1
 512 896 l 1,77,-1
 384 896 l 1,74,-1
896 896 m 1,78,-1
 896 768 l 1,79,-1
 1024 768 l 1,80,-1
 1024 896 l 1,81,-1
 896 896 l 1,78,-1
1408 896 m 1,82,-1
 1408 768 l 1,83,-1
 1536 768 l 1,84,-1
 1536 896 l 1,85,-1
 1408 896 l 1,82,-1
128 640 m 1,86,-1
 128 512 l 1,87,-1
 256 512 l 1,88,-1
 256 640 l 1,89,-1
 128 640 l 1,86,-1
640 640 m 1,90,-1
 640 512 l 1,91,-1
 768 512 l 1,92,-1
 768 640 l 1,93,-1
 640 640 l 1,90,-1
1152 640 m 1,94,-1
 1152 512 l 1,95,-1
 1280 512 l 1,96,-1
 1280 640 l 1,97,-1
 1152 640 l 1,94,-1
1664 640 m 1,98,-1
 1664 512 l 1,99,-1
 1792 512 l 1,100,-1
 1792 640 l 1,101,-1
 1664 640 l 1,98,-1
384 384 m 1,102,-1
 384 256 l 1,103,-1
 512 256 l 1,104,-1
 512 384 l 1,105,-1
 384 384 l 1,102,-1
896 384 m 1,106,-1
 896 256 l 1,107,-1
 1024 256 l 1,108,-1
 1024 384 l 1,109,-1
 896 384 l 1,106,-1
1408 384 m 1,110,-1
 1408 256 l 1,111,-1
 1536 256 l 1,112,-1
 1536 384 l 1,113,-1
 1408 384 l 1,110,-1
128 128 m 1,114,-1
 128 0 l 1,115,-1
 256 0 l 1,116,-1
 256 128 l 1,117,-1
 128 128 l 1,114,-1
640 128 m 1,118,-1
 640 0 l 1,119,-1
 768 0 l 1,120,-1
 768 128 l 1,121,-1
 640 128 l 1,118,-1
1152 128 m 1,122,-1
 1152 0 l 1,123,-1
 1280 0 l 1,124,-1
 1280 128 l 1,125,-1
 1152 128 l 1,122,-1
1664 128 m 1,126,-1
 1664 0 l 1,127,-1
 1792 0 l 1,128,-1
 1792 128 l 1,129,-1
 1664 128 l 1,126,-1
EndSplineSet
EndChar

StartChar: uni008B
Encoding: 139 139 112
Width: 2048
GlyphClass: 2
Flags: W
LayerCount: 2
Fore
SplineSet
0 1792 m 1,0,-1
 2048 1792 l 1,1,-1
 2048 1664 l 1,2,-1
 1920 1664 l 1,3,-1
 1792 1664 l 1,4,-1
 1664 1664 l 1,5,-1
 1536 1664 l 1,6,-1
 1408 1664 l 1,7,-1
 1280 1664 l 1,8,-1
 1152 1664 l 1,9,-1
 1152 1536 l 1,10,-1
 1152 1408 l 1,11,-1
 1152 1280 l 1,12,-1
 1152 1152 l 1,13,-1
 1152 1024 l 1,14,-1
 1152 896 l 1,15,-1
 1280 896 l 1,16,-1
 1280 1024 l 1,17,-1
 1408 1024 l 1,18,-1
 1408 896 l 1,19,-1
 1536 896 l 1,20,-1
 1536 1024 l 1,21,-1
 1664 1024 l 1,22,-1
 1664 896 l 1,23,-1
 1792 896 l 1,24,-1
 1792 1024 l 1,25,-1
 1920 1024 l 1,26,-1
 1920 896 l 1,27,-1
 2048 896 l 1,28,-1
 2048 640 l 1,29,-1
 1920 640 l 1,30,-1
 1792 640 l 1,31,-1
 1664 640 l 1,32,-1
 1664 512 l 1,33,-1
 1664 384 l 1,34,-1
 1664 256 l 1,35,-1
 1664 128 l 1,36,-1
 1664 0 l 1,37,-1
 1664 -128 l 1,38,-1
 1792 -128 l 1,39,-1
 1792 0 l 1,40,-1
 1920 0 l 1,41,-1
 1920 -128 l 1,42,-1
 2048 -128 l 1,43,-1
 2048 -256 l 1,44,-1
 0 -256 l 1,45,-1
 0 0 l 1,46,-1
 128 0 l 1,47,-1
 128 -128 l 1,48,-1
 256 -128 l 1,49,-1
 256 0 l 1,50,-1
 384 0 l 1,51,-1
 384 -128 l 1,52,-1
 512 -128 l 1,53,-1
 512 0 l 1,54,-1
 384 0 l 1,55,-1
 384 128 l 1,56,-1
 512 128 l 1,57,-1
 512 256 l 1,58,-1
 384 256 l 1,59,-1
 384 384 l 1,60,-1
 512 384 l 1,61,-1
 512 512 l 1,62,-1
 512 640 l 1,63,-1
 384 640 l 1,64,-1
 256 640 l 1,65,-1
 128 640 l 1,66,-1
 0 640 l 1,67,-1
 0 1792 l 1,0,-1
1408 1024 m 1,68,-1
 1408 1152 l 1,69,-1
 1536 1152 l 1,70,-1
 1536 1024 l 1,71,-1
 1408 1024 l 1,68,-1
1408 1152 m 1,72,-1
 1280 1152 l 1,73,-1
 1280 1280 l 1,74,-1
 1408 1280 l 1,75,-1
 1408 1152 l 1,72,-1
1408 1280 m 1,76,-1
 1408 1408 l 1,77,-1
 1536 1408 l 1,78,-1
 1536 1280 l 1,79,-1
 1408 1280 l 1,76,-1
1408 1408 m 1,80,-1
 1280 1408 l 1,81,-1
 1280 1536 l 1,82,-1
 1408 1536 l 1,83,-1
 1408 1408 l 1,80,-1
1536 1408 m 1,84,-1
 1536 1536 l 1,85,-1
 1664 1536 l 1,86,-1
 1664 1408 l 1,87,-1
 1536 1408 l 1,84,-1
1664 1408 m 1,88,-1
 1792 1408 l 1,89,-1
 1792 1280 l 1,90,-1
 1664 1280 l 1,91,-1
 1664 1408 l 1,88,-1
1792 1408 m 1,92,-1
 1792 1536 l 1,93,-1
 1920 1536 l 1,94,-1
 1920 1408 l 1,95,-1
 1792 1408 l 1,92,-1
1920 1408 m 1,96,-1
 2048 1408 l 1,97,-1
 2048 1280 l 1,98,-1
 1920 1280 l 1,99,-1
 1920 1408 l 1,96,-1
1920 1280 m 1,100,-1
 1920 1152 l 1,101,-1
 1792 1152 l 1,102,-1
 1792 1280 l 1,103,-1
 1920 1280 l 1,100,-1
1920 1152 m 1,104,-1
 2048 1152 l 1,105,-1
 2048 1024 l 1,106,-1
 1920 1024 l 1,107,-1
 1920 1152 l 1,104,-1
1792 1152 m 1,108,-1
 1792 1024 l 1,109,-1
 1664 1024 l 1,110,-1
 1664 1152 l 1,111,-1
 1792 1152 l 1,108,-1
1664 1152 m 1,112,-1
 1536 1152 l 1,113,-1
 1536 1280 l 1,114,-1
 1664 1280 l 1,115,-1
 1664 1152 l 1,112,-1
1920 0 m 1,116,-1
 1920 128 l 1,117,-1
 2048 128 l 1,118,-1
 2048 0 l 1,119,-1
 1920 0 l 1,116,-1
1920 128 m 1,120,-1
 1792 128 l 1,121,-1
 1792 256 l 1,122,-1
 1920 256 l 1,123,-1
 1920 128 l 1,120,-1
1920 256 m 1,124,-1
 1920 384 l 1,125,-1
 2048 384 l 1,126,-1
 2048 256 l 1,127,-1
 1920 256 l 1,124,-1
1920 384 m 1,128,-1
 1792 384 l 1,129,-1
 1792 512 l 1,130,-1
 1920 512 l 1,131,-1
 1920 384 l 1,128,-1
128 0 m 1,132,-1
 128 128 l 1,133,-1
 256 128 l 1,134,-1
 256 0 l 1,135,-1
 128 0 l 1,132,-1
128 128 m 1,136,-1
 0 128 l 1,137,-1
 0 256 l 1,138,-1
 128 256 l 1,139,-1
 128 128 l 1,136,-1
128 256 m 1,140,-1
 128 384 l 1,141,-1
 256 384 l 1,142,-1
 256 256 l 1,143,-1
 128 256 l 1,140,-1
128 384 m 1,144,-1
 0 384 l 1,145,-1
 0 512 l 1,146,-1
 128 512 l 1,147,-1
 128 384 l 1,144,-1
256 384 m 1,148,-1
 256 512 l 1,149,-1
 384 512 l 1,150,-1
 384 384 l 1,151,-1
 256 384 l 1,148,-1
256 256 m 1,152,-1
 384 256 l 1,153,-1
 384 128 l 1,154,-1
 256 128 l 1,155,-1
 256 256 l 1,152,-1
128 1664 m 1,156,-1
 128 1536 l 1,157,-1
 128 1408 l 1,158,-1
 128 1280 l 1,159,-1
 128 1152 l 1,160,-1
 128 1024 l 1,161,-1
 128 896 l 1,162,-1
 256 896 l 1,163,-1
 256 1024 l 1,164,-1
 384 1024 l 1,165,-1
 384 896 l 1,166,-1
 512 896 l 1,167,-1
 512 1024 l 1,168,-1
 640 1024 l 1,169,-1
 640 896 l 1,170,-1
 768 896 l 1,171,-1
 768 1024 l 1,172,-1
 896 1024 l 1,173,-1
 896 896 l 1,174,-1
 1024 896 l 1,175,-1
 1024 1024 l 1,176,-1
 896 1024 l 1,177,-1
 896 1152 l 1,178,-1
 1024 1152 l 1,179,-1
 1024 1280 l 1,180,-1
 896 1280 l 1,181,-1
 896 1408 l 1,182,-1
 1024 1408 l 1,183,-1
 1024 1536 l 1,184,-1
 1024 1664 l 1,185,-1
 896 1664 l 1,186,-1
 768 1664 l 1,187,-1
 640 1664 l 1,188,-1
 512 1664 l 1,189,-1
 384 1664 l 1,190,-1
 256 1664 l 1,191,-1
 128 1664 l 1,156,-1
384 1024 m 1,192,-1
 384 1152 l 1,193,-1
 512 1152 l 1,194,-1
 512 1024 l 1,195,-1
 384 1024 l 1,192,-1
384 1152 m 1,196,-1
 256 1152 l 1,197,-1
 256 1280 l 1,198,-1
 384 1280 l 1,199,-1
 384 1152 l 1,196,-1
384 1280 m 1,200,-1
 384 1408 l 1,201,-1
 512 1408 l 1,202,-1
 512 1280 l 1,203,-1
 384 1280 l 1,200,-1
384 1408 m 1,204,-1
 256 1408 l 1,205,-1
 256 1536 l 1,206,-1
 384 1536 l 1,207,-1
 384 1408 l 1,204,-1
512 1408 m 1,208,-1
 512 1536 l 1,209,-1
 640 1536 l 1,210,-1
 640 1408 l 1,211,-1
 512 1408 l 1,208,-1
640 1408 m 1,212,-1
 768 1408 l 1,213,-1
 768 1280 l 1,214,-1
 640 1280 l 1,215,-1
 640 1408 l 1,212,-1
768 1408 m 1,216,-1
 768 1536 l 1,217,-1
 896 1536 l 1,218,-1
 896 1408 l 1,219,-1
 768 1408 l 1,216,-1
768 1280 m 1,220,-1
 896 1280 l 1,221,-1
 896 1152 l 1,222,-1
 768 1152 l 1,223,-1
 768 1280 l 1,220,-1
768 1152 m 1,224,-1
 768 1024 l 1,225,-1
 640 1024 l 1,226,-1
 640 1152 l 1,227,-1
 768 1152 l 1,224,-1
640 1152 m 1,228,-1
 512 1152 l 1,229,-1
 512 1280 l 1,230,-1
 640 1280 l 1,231,-1
 640 1152 l 1,228,-1
640 640 m 1,232,-1
 640 512 l 1,233,-1
 640 384 l 1,234,-1
 640 256 l 1,235,-1
 640 128 l 1,236,-1
 640 0 l 1,237,-1
 640 -128 l 1,238,-1
 768 -128 l 1,239,-1
 768 0 l 1,240,-1
 896 0 l 1,241,-1
 896 -128 l 1,242,-1
 1024 -128 l 1,243,-1
 1024 0 l 1,244,-1
 1152 0 l 1,245,-1
 1152 -128 l 1,246,-1
 1280 -128 l 1,247,-1
 1280 0 l 1,248,-1
 1408 0 l 1,249,-1
 1408 -128 l 1,250,-1
 1536 -128 l 1,251,-1
 1536 0 l 1,252,-1
 1408 0 l 1,253,-1
 1408 128 l 1,254,-1
 1536 128 l 1,255,-1
 1536 256 l 1,256,-1
 1408 256 l 1,257,-1
 1408 384 l 1,258,-1
 1536 384 l 1,259,-1
 1536 512 l 1,260,-1
 1536 640 l 1,261,-1
 1408 640 l 1,262,-1
 1280 640 l 1,263,-1
 1152 640 l 1,264,-1
 1024 640 l 1,265,-1
 896 640 l 1,266,-1
 768 640 l 1,267,-1
 640 640 l 1,232,-1
896 0 m 1,268,-1
 896 128 l 1,269,-1
 1024 128 l 1,270,-1
 1024 0 l 1,271,-1
 896 0 l 1,268,-1
896 128 m 1,272,-1
 768 128 l 1,273,-1
 768 256 l 1,274,-1
 896 256 l 1,275,-1
 896 128 l 1,272,-1
896 256 m 1,276,-1
 896 384 l 1,277,-1
 1024 384 l 1,278,-1
 1024 256 l 1,279,-1
 896 256 l 1,276,-1
896 384 m 1,280,-1
 768 384 l 1,281,-1
 768 512 l 1,282,-1
 896 512 l 1,283,-1
 896 384 l 1,280,-1
1024 384 m 1,284,-1
 1024 512 l 1,285,-1
 1152 512 l 1,286,-1
 1152 384 l 1,287,-1
 1024 384 l 1,284,-1
1152 384 m 1,288,-1
 1280 384 l 1,289,-1
 1280 256 l 1,290,-1
 1152 256 l 1,291,-1
 1152 384 l 1,288,-1
1280 384 m 1,292,-1
 1280 512 l 1,293,-1
 1408 512 l 1,294,-1
 1408 384 l 1,295,-1
 1280 384 l 1,292,-1
1280 256 m 1,296,-1
 1408 256 l 1,297,-1
 1408 128 l 1,298,-1
 1280 128 l 1,299,-1
 1280 256 l 1,296,-1
1280 128 m 1,300,-1
 1280 0 l 1,301,-1
 1152 0 l 1,302,-1
 1152 128 l 1,303,-1
 1280 128 l 1,300,-1
1152 128 m 1,304,-1
 1024 128 l 1,305,-1
 1024 256 l 1,306,-1
 1152 256 l 1,307,-1
 1152 128 l 1,304,-1
EndSplineSet
EndChar

StartChar: uni008C
Encoding: 140 140 113
Width: 2048
GlyphClass: 2
Flags: W
LayerCount: 2
Fore
SplineSet
1024 1792 m 1024,0,-1
0 1792 m 1024,1,-1
0 1792 m 1,2,-1
 2048 1792 l 1,3,-1
 2048 1664 l 1,4,-1
 1152 1664 l 1,5,-1
 1152 1536 l 1,6,-1
 1152 1408 l 1,7,-1
 1152 1280 l 1,8,-1
 1152 1152 l 1,9,-1
 1152 1024 l 1,10,-1
 1152 896 l 1,11,-1
 1280 896 l 1,12,-1
 1280 1024 l 1,13,-1
 1408 1024 l 1,14,-1
 1408 896 l 1,15,-1
 1536 896 l 1,16,-1
 1536 1024 l 1,17,-1
 1664 1024 l 1,18,-1
 1664 896 l 1,19,-1
 1792 896 l 1,20,-1
 1792 1024 l 1,21,-1
 1920 1024 l 1,22,-1
 1920 896 l 1,23,-1
 2048 896 l 1,24,-1
 2048 640 l 1,25,-1
 1920 640 l 1,26,-1
 1792 640 l 1,27,-1
 1664 640 l 1,28,-1
 1664 512 l 1,29,-1
 1664 384 l 1,30,-1
 1664 256 l 1,31,-1
 1664 128 l 1,32,-1
 1664 0 l 1,33,-1
 1664 -128 l 1,34,-1
 1792 -128 l 1,35,-1
 1792 0 l 1,36,-1
 1920 0 l 1,37,-1
 1920 -128 l 1,38,-1
 2048 -128 l 1,39,-1
 2048 -256 l 1,40,-1
 640 -256 l 1,41,-1
 512 -256 l 1,42,-1
 0 -256 l 1,43,-1
 0 768 l 1,44,-1
 0 1280 l 1,45,-1
 128 1280 l 1,46,-1
 128 1408 l 1,47,-1
 256 1408 l 1,48,-1
 256 1536 l 1,49,-1
 128 1536 l 1,50,-1
 128 1408 l 1,51,-1
 0 1408 l 1,52,-1
 0 1664 l 1,53,-1
 0 1792 l 1,2,-1
1408 1024 m 1,54,-1
 1408 1152 l 1,55,-1
 1536 1152 l 1,56,-1
 1536 1024 l 1,57,-1
 1408 1024 l 1,54,-1
1408 1152 m 1,58,-1
 1280 1152 l 1,59,-1
 1280 1280 l 1,60,-1
 1408 1280 l 1,61,-1
 1408 1152 l 1,58,-1
1408 1280 m 1,62,-1
 1408 1408 l 1,63,-1
 1536 1408 l 1,64,-1
 1536 1280 l 1,65,-1
 1408 1280 l 1,62,-1
1408 1408 m 1,66,-1
 1280 1408 l 1,67,-1
 1280 1536 l 1,68,-1
 1408 1536 l 1,69,-1
 1408 1408 l 1,66,-1
1536 1408 m 1,70,-1
 1536 1536 l 1,71,-1
 1664 1536 l 1,72,-1
 1664 1408 l 1,73,-1
 1536 1408 l 1,70,-1
1664 1408 m 1,74,-1
 1792 1408 l 1,75,-1
 1792 1280 l 1,76,-1
 1664 1280 l 1,77,-1
 1664 1408 l 1,74,-1
1792 1408 m 1,78,-1
 1792 1536 l 1,79,-1
 1920 1536 l 1,80,-1
 1920 1408 l 1,81,-1
 1792 1408 l 1,78,-1
1920 1408 m 1,82,-1
 2048 1408 l 1,83,-1
 2048 1280 l 1,84,-1
 1920 1280 l 1,85,-1
 1920 1408 l 1,82,-1
1920 1280 m 1,86,-1
 1920 1152 l 1,87,-1
 1792 1152 l 1,88,-1
 1792 1280 l 1,89,-1
 1920 1280 l 1,86,-1
1920 1152 m 1,90,-1
 2048 1152 l 1,91,-1
 2048 1024 l 1,92,-1
 1920 1024 l 1,93,-1
 1920 1152 l 1,90,-1
1792 1152 m 1,94,-1
 1792 1024 l 1,95,-1
 1664 1024 l 1,96,-1
 1664 1152 l 1,97,-1
 1792 1152 l 1,94,-1
1664 1152 m 1,98,-1
 1536 1152 l 1,99,-1
 1536 1280 l 1,100,-1
 1664 1280 l 1,101,-1
 1664 1152 l 1,98,-1
1920 0 m 1,102,-1
 1920 128 l 1,103,-1
 2048 128 l 1,104,-1
 2048 0 l 1,105,-1
 1920 0 l 1,102,-1
1920 128 m 1,106,-1
 1792 128 l 1,107,-1
 1792 256 l 1,108,-1
 1920 256 l 1,109,-1
 1920 128 l 1,106,-1
1920 256 m 1,110,-1
 1920 384 l 1,111,-1
 2048 384 l 1,112,-1
 2048 256 l 1,113,-1
 1920 256 l 1,110,-1
1920 384 m 1,114,-1
 1792 384 l 1,115,-1
 1792 512 l 1,116,-1
 1920 512 l 1,117,-1
 1920 384 l 1,114,-1
384 1664 m 1,118,-1
 384 1536 l 1,119,-1
 384 1408 l 1,120,-1
 384 1280 l 1,121,-1
 384 1152 l 1,122,-1
 384 1024 l 1,123,-1
 384 896 l 1,124,-1
 512 896 l 1,125,-1
 512 1024 l 1,126,-1
 640 1024 l 1,127,-1
 640 896 l 1,128,-1
 768 896 l 1,129,-1
 768 1024 l 1,130,-1
 896 1024 l 1,131,-1
 896 896 l 1,132,-1
 1024 896 l 1,133,-1
 1024 1024 l 1,134,-1
 896 1024 l 1,135,-1
 896 1152 l 1,136,-1
 1024 1152 l 1,137,-1
 1024 1280 l 1,138,-1
 896 1280 l 1,139,-1
 896 1408 l 1,140,-1
 1024 1408 l 1,141,-1
 1024 1536 l 1,142,-1
 1024 1664 l 1,143,-1
 384 1664 l 1,118,-1
640 1024 m 1,144,-1
 640 1152 l 1,145,-1
 768 1152 l 1,146,-1
 768 1024 l 1,147,-1
 640 1024 l 1,144,-1
640 1152 m 1,148,-1
 512 1152 l 1,149,-1
 512 1280 l 1,150,-1
 640 1280 l 1,151,-1
 640 1152 l 1,148,-1
640 1280 m 1,152,-1
 640 1408 l 1,153,-1
 768 1408 l 1,154,-1
 768 1280 l 1,155,-1
 640 1280 l 1,152,-1
640 1408 m 1,156,-1
 512 1408 l 1,157,-1
 512 1536 l 1,158,-1
 640 1536 l 1,159,-1
 640 1408 l 1,156,-1
768 1408 m 1,160,-1
 768 1536 l 1,161,-1
 896 1536 l 1,162,-1
 896 1408 l 1,163,-1
 768 1408 l 1,160,-1
768 1280 m 1,164,-1
 896 1280 l 1,165,-1
 896 1152 l 1,166,-1
 768 1152 l 1,167,-1
 768 1280 l 1,164,-1
128 1152 m 1,168,-1
 128 1024 l 1,169,-1
 256 1024 l 1,170,-1
 256 1152 l 1,171,-1
 128 1152 l 1,168,-1
128 896 m 1,172,-1
 128 768 l 1,173,-1
 256 768 l 1,174,-1
 256 896 l 1,175,-1
 128 896 l 1,172,-1
512 768 m 1,176,-1
 512 640 l 1,177,-1
 640 640 l 1,178,-1
 640 512 l 1,179,-1
 640 384 l 1,180,-1
 640 256 l 1,181,-1
 640 128 l 1,182,-1
 640 0 l 1,183,-1
 640 -128 l 1,184,-1
 768 -128 l 1,185,-1
 768 0 l 1,186,-1
 896 0 l 1,187,-1
 896 -128 l 1,188,-1
 1024 -128 l 1,189,-1
 1024 0 l 1,190,-1
 1152 0 l 1,191,-1
 1152 -128 l 1,192,-1
 1280 -128 l 1,193,-1
 1280 0 l 1,194,-1
 1408 0 l 1,195,-1
 1408 -128 l 1,196,-1
 1536 -128 l 1,197,-1
 1536 0 l 1,198,-1
 1408 0 l 1,199,-1
 1408 128 l 1,200,-1
 1536 128 l 1,201,-1
 1536 256 l 1,202,-1
 1408 256 l 1,203,-1
 1408 384 l 1,204,-1
 1536 384 l 1,205,-1
 1536 512 l 1,206,-1
 1536 640 l 1,207,-1
 1408 640 l 1,208,-1
 1280 640 l 1,209,-1
 1152 640 l 1,210,-1
 1024 640 l 1,211,-1
 896 640 l 1,212,-1
 768 640 l 1,213,-1
 640 640 l 1,214,-1
 640 768 l 1,215,-1
 512 768 l 1,176,-1
896 0 m 1,216,-1
 896 128 l 1,217,-1
 1024 128 l 1,218,-1
 1024 0 l 1,219,-1
 896 0 l 1,216,-1
896 128 m 1,220,-1
 768 128 l 1,221,-1
 768 256 l 1,222,-1
 896 256 l 1,223,-1
 896 128 l 1,220,-1
896 256 m 1,224,-1
 896 384 l 1,225,-1
 1024 384 l 1,226,-1
 1024 256 l 1,227,-1
 896 256 l 1,224,-1
896 384 m 1,228,-1
 768 384 l 1,229,-1
 768 512 l 1,230,-1
 896 512 l 1,231,-1
 896 384 l 1,228,-1
1024 384 m 1,232,-1
 1024 512 l 1,233,-1
 1152 512 l 1,234,-1
 1152 384 l 1,235,-1
 1024 384 l 1,232,-1
1152 384 m 1,236,-1
 1280 384 l 1,237,-1
 1280 256 l 1,238,-1
 1152 256 l 1,239,-1
 1152 384 l 1,236,-1
1280 384 m 1,240,-1
 1280 512 l 1,241,-1
 1408 512 l 1,242,-1
 1408 384 l 1,243,-1
 1280 384 l 1,240,-1
1280 256 m 1,244,-1
 1408 256 l 1,245,-1
 1408 128 l 1,246,-1
 1280 128 l 1,247,-1
 1280 256 l 1,244,-1
1280 128 m 1,248,-1
 1280 0 l 1,249,-1
 1152 0 l 1,250,-1
 1152 128 l 1,251,-1
 1280 128 l 1,248,-1
1152 128 m 1,252,-1
 1024 128 l 1,253,-1
 1024 256 l 1,254,-1
 1152 256 l 1,255,-1
 1152 128 l 1,252,-1
256 640 m 1,256,-1
 256 512 l 1,257,-1
 128 512 l 1,258,-1
 128 384 l 1,259,-1
 256 384 l 1,260,-1
 256 512 l 1,261,-1
 384 512 l 1,262,-1
 384 640 l 1,263,-1
 256 640 l 1,256,-1
384 256 m 1,264,-1
 384 128 l 1,265,-1
 512 128 l 1,266,-1
 512 256 l 1,267,-1
 384 256 l 1,264,-1
128 128 m 1,268,-1
 128 0 l 1,269,-1
 256 0 l 1,270,-1
 256 -128 l 1,271,-1
 384 -128 l 1,272,-1
 384 0 l 1,273,-1
 256 0 l 1,274,-1
 256 128 l 1,275,-1
 128 128 l 1,268,-1
EndSplineSet
EndChar

StartChar: uni008D
Encoding: 141 141 114
Width: 2048
GlyphClass: 2
Flags: W
LayerCount: 2
Fore
SplineSet
0 1792 m 1024,0,-1
0 -256 m 1,1,-1
 0 1792 l 1,2,-1
 2048 1792 l 1,3,-1
 2048 -256 l 1,4,-1
 0 -256 l 1,1,-1
256 1408 m 1,5,-1
 384 1408 l 1,6,-1
 384 1536 l 1,7,-1
 256 1536 l 1,8,-1
 256 1408 l 1,5,-1
384 1280 m 1,9,-1
 512 1280 l 1,10,-1
 512 1408 l 1,11,-1
 384 1408 l 1,12,-1
 384 1280 l 1,9,-1
256 1152 m 1,13,-1
 384 1152 l 1,14,-1
 384 1280 l 1,15,-1
 256 1280 l 1,16,-1
 256 1152 l 1,13,-1
128 1280 m 1,17,-1
 256 1280 l 1,18,-1
 256 1408 l 1,19,-1
 128 1408 l 1,20,-1
 128 1280 l 1,17,-1
896 896 m 1,21,-1
 1024 896 l 1,22,-1
 1024 1024 l 1,23,-1
 896 1024 l 1,24,-1
 896 896 l 1,21,-1
768 768 m 1,25,-1
 896 768 l 1,26,-1
 896 896 l 1,27,-1
 768 896 l 1,28,-1
 768 768 l 1,25,-1
896 640 m 1,29,-1
 1024 640 l 1,30,-1
 1024 768 l 1,31,-1
 896 768 l 1,32,-1
 896 640 l 1,29,-1
1024 768 m 1,33,-1
 1152 768 l 1,34,-1
 1152 896 l 1,35,-1
 1024 896 l 1,36,-1
 1024 768 l 1,33,-1
1664 1664 m 1,37,-1
 1792 1664 l 1,38,-1
 1792 1792 l 1,39,-1
 1664 1792 l 1,40,-1
 1664 1664 l 1,37,-1
1536 1536 m 1,41,-1
 1664 1536 l 1,42,-1
 1664 1664 l 1,43,-1
 1536 1664 l 1,44,-1
 1536 1536 l 1,41,-1
1792 1536 m 1,45,-1
 1920 1536 l 1,46,-1
 1920 1664 l 1,47,-1
 1792 1664 l 1,48,-1
 1792 1536 l 1,45,-1
1664 1408 m 1,49,-1
 1792 1408 l 1,50,-1
 1792 1536 l 1,51,-1
 1664 1536 l 1,52,-1
 1664 1408 l 1,49,-1
1408 256 m 1,53,-1
 1536 256 l 1,54,-1
 1536 384 l 1,55,-1
 1408 384 l 1,56,-1
 1408 256 l 1,53,-1
256 384 m 1,57,-1
 384 384 l 1,58,-1
 384 512 l 1,59,-1
 256 512 l 1,60,-1
 256 384 l 1,57,-1
896 1280 m 1,61,-1
 1024 1280 l 1,62,-1
 1024 1408 l 1,63,-1
 896 1408 l 1,64,-1
 896 1280 l 1,61,-1
512 128 m 1,65,-1
 640 128 l 1,66,-1
 640 256 l 1,67,-1
 512 256 l 1,68,-1
 512 128 l 1,65,-1
384 0 m 1,69,-1
 512 0 l 1,70,-1
 512 128 l 1,71,-1
 384 128 l 1,72,-1
 384 0 l 1,69,-1
640 0 m 1,73,-1
 768 0 l 1,74,-1
 768 128 l 1,75,-1
 640 128 l 1,76,-1
 640 0 l 1,73,-1
512 -128 m 1,77,-1
 640 -128 l 1,78,-1
 640 0 l 1,79,-1
 512 0 l 1,80,-1
 512 -128 l 1,77,-1
1792 640 m 1,81,-1
 1920 640 l 1,82,-1
 1920 768 l 1,83,-1
 1792 768 l 1,84,-1
 1792 640 l 1,81,-1
1664 0 m 1,85,-1
 1792 0 l 1,86,-1
 1792 128 l 1,87,-1
 1664 128 l 1,88,-1
 1664 0 l 1,85,-1
EndSplineSet
EndChar

StartChar: uni008E
Encoding: 142 142 115
Width: 2048
GlyphClass: 2
Flags: W
LayerCount: 2
Fore
SplineSet
0 -256 m 1,0,-1
 0 1792 l 1,1,-1
 2048 1792 l 1,2,-1
 2048 -256 l 1,3,-1
 0 -256 l 1,0,-1
1024 1792 m 1,4,-1
 1024 1408 l 1,5,-1
 1152 1408 l 1,6,-1
 1152 1792 l 1,7,-1
 1024 1792 l 1,4,-1
1920 256 m 1,8,-1
 1920 -128 l 1,9,-1
 2048 -128 l 1,10,-1
 2048 256 l 1,11,-1
 1920 256 l 1,8,-1
1280 768 m 1,12,-1
 1280 384 l 1,13,-1
 1408 384 l 1,14,-1
 1408 768 l 1,15,-1
 1280 768 l 1,12,-1
128 1280 m 1,16,-1
 128 896 l 1,17,-1
 256 896 l 1,18,-1
 256 1280 l 1,19,-1
 128 1280 l 1,16,-1
0 -128 m 1,20,-1
 0 -256 l 1,21,-1
 2048 -256 l 1,22,-1
 2048 -128 l 1,23,-1
 0 -128 l 1,20,-1
0 384 m 1,24,-1
 0 256 l 1,25,-1
 2048 256 l 1,26,-1
 2048 384 l 1,27,-1
 0 384 l 1,24,-1
0 896 m 1,28,-1
 0 768 l 1,29,-1
 2048 768 l 1,30,-1
 2048 896 l 1,31,-1
 0 896 l 1,28,-1
0 1408 m 1,32,-1
 0 1280 l 1,33,-1
 2048 1280 l 1,34,-1
 2048 1408 l 1,35,-1
 0 1408 l 1,32,-1
EndSplineSet
EndChar

StartChar: uni00A0
Encoding: 160 160 116
Width: 2048
GlyphClass: 2
Flags: W
LayerCount: 2
Fore
SplineSet
0 1408 m 1,0,-1
 0 1792 l 1,1,-1
 896 1792 l 1,2,-1
 896 1408 l 1,3,-1
 0 1408 l 1,0,-1
1024 1408 m 1,4,-1
 1024 1792 l 1,5,-1
 1920 1792 l 1,6,-1
 1920 1408 l 1,7,-1
 1024 1408 l 1,4,-1
512 896 m 1,8,-1
 512 1280 l 1,9,-1
 1408 1280 l 1,10,-1
 1408 896 l 1,11,-1
 512 896 l 1,8,-1
0 896 m 1,12,-1
 0 1280 l 1,13,-1
 384 1280 l 1,14,-1
 384 896 l 1,15,-1
 0 896 l 1,12,-1
1536 896 m 1,16,-1
 1536 1280 l 1,17,-1
 2048 1280 l 1,18,-1
 2048 896 l 1,19,-1
 1536 896 l 1,16,-1
0 384 m 1,20,-1
 0 768 l 1,21,-1
 896 768 l 1,22,-1
 896 384 l 1,23,-1
 0 384 l 1,20,-1
1024 384 m 1,24,-1
 1024 768 l 1,25,-1
 1920 768 l 1,26,-1
 1920 384 l 1,27,-1
 1024 384 l 1,24,-1
256 896 m 1,28,-1
 384 896 l 1,29,-1
 384 1024 l 1,30,-1
 256 1024 l 1,31,-1
 256 896 l 1,28,-1
128 1024 m 1,32,-1
 256 1024 l 1,33,-1
 256 1152 l 1,34,-1
 128 1152 l 1,35,-1
 128 1024 l 1,32,-1
0 896 m 1,36,-1
 128 896 l 1,37,-1
 128 1024 l 1,38,-1
 0 1024 l 1,39,-1
 0 896 l 1,36,-1
1920 896 m 1,40,-1
 2048 896 l 1,41,-1
 2048 1024 l 1,42,-1
 1920 1024 l 1,43,-1
 1920 896 l 1,40,-1
1792 1024 m 1,44,-1
 1920 1024 l 1,45,-1
 1920 1152 l 1,46,-1
 1792 1152 l 1,47,-1
 1792 1024 l 1,44,-1
1664 896 m 1,48,-1
 1792 896 l 1,49,-1
 1792 1024 l 1,50,-1
 1664 1024 l 1,51,-1
 1664 896 l 1,48,-1
512 -128 m 1,52,-1
 512 256 l 1,53,-1
 1408 256 l 1,54,-1
 1408 -128 l 1,55,-1
 512 -128 l 1,52,-1
0 -128 m 1,56,-1
 0 256 l 1,57,-1
 384 256 l 1,58,-1
 384 -128 l 1,59,-1
 0 -128 l 1,56,-1
1536 -128 m 1,60,-1
 1536 256 l 1,61,-1
 2048 256 l 1,62,-1
 2048 -128 l 1,63,-1
 1536 -128 l 1,60,-1
256 -128 m 1,64,-1
 384 -128 l 1,65,-1
 384 0 l 1,66,-1
 256 0 l 1,67,-1
 256 -128 l 1,64,-1
128 0 m 1,68,-1
 256 0 l 1,69,-1
 256 128 l 1,70,-1
 128 128 l 1,71,-1
 128 0 l 1,68,-1
0 -128 m 1,72,-1
 128 -128 l 1,73,-1
 128 0 l 1,74,-1
 0 0 l 1,75,-1
 0 -128 l 1,72,-1
1920 -128 m 1,76,-1
 2048 -128 l 1,77,-1
 2048 0 l 1,78,-1
 1920 0 l 1,79,-1
 1920 -128 l 1,76,-1
1792 0 m 1,80,-1
 1920 0 l 1,81,-1
 1920 128 l 1,82,-1
 1792 128 l 1,83,-1
 1792 0 l 1,80,-1
1664 -128 m 1,84,-1
 1792 -128 l 1,85,-1
 1792 0 l 1,86,-1
 1664 0 l 1,87,-1
 1664 -128 l 1,84,-1
EndSplineSet
EndChar

StartChar: exclamdown
Encoding: 161 161 117
Width: 2048
GlyphClass: 2
Flags: W
LayerCount: 2
Fore
SplineSet
512 896 m 1,0,-1
 512 1280 l 1,1,-1
 1408 1280 l 1,2,-1
 1408 896 l 1,3,-1
 512 896 l 1,0,-1
0 896 m 1,4,-1
 0 1280 l 1,5,-1
 384 1280 l 1,6,-1
 384 896 l 1,7,-1
 0 896 l 1,4,-1
1536 896 m 1,8,-1
 1536 1280 l 1,9,-1
 2048 1280 l 1,10,-1
 2048 896 l 1,11,-1
 1536 896 l 1,8,-1
256 896 m 1,12,-1
 384 896 l 1,13,-1
 384 1024 l 1,14,-1
 256 1024 l 1,15,-1
 256 896 l 1,12,-1
128 1024 m 1,16,-1
 256 1024 l 1,17,-1
 256 1152 l 1,18,-1
 128 1152 l 1,19,-1
 128 1024 l 1,16,-1
0 896 m 1,20,-1
 128 896 l 1,21,-1
 128 1024 l 1,22,-1
 0 1024 l 1,23,-1
 0 896 l 1,20,-1
1920 896 m 1,24,-1
 2048 896 l 1,25,-1
 2048 1024 l 1,26,-1
 1920 1024 l 1,27,-1
 1920 896 l 1,24,-1
1792 1024 m 1,28,-1
 1920 1024 l 1,29,-1
 1920 1152 l 1,30,-1
 1792 1152 l 1,31,-1
 1792 1024 l 1,28,-1
1664 896 m 1,32,-1
 1792 896 l 1,33,-1
 1792 1024 l 1,34,-1
 1664 1024 l 1,35,-1
 1664 896 l 1,32,-1
0 -128 m 1,36,-1
 0 256 l 1,37,-1
 384 256 l 1,38,-1
 384 -128 l 1,39,-1
 0 -128 l 1,36,-1
1536 -128 m 1,40,-1
 1536 256 l 1,41,-1
 2048 256 l 1,42,-1
 2048 -128 l 1,43,-1
 1536 -128 l 1,40,-1
256 -128 m 1,44,-1
 384 -128 l 1,45,-1
 384 0 l 1,46,-1
 256 0 l 1,47,-1
 256 -128 l 1,44,-1
128 0 m 1,48,-1
 256 0 l 1,49,-1
 256 128 l 1,50,-1
 128 128 l 1,51,-1
 128 0 l 1,48,-1
0 -128 m 1,52,-1
 128 -128 l 1,53,-1
 128 0 l 1,54,-1
 0 0 l 1,55,-1
 0 -128 l 1,52,-1
1920 -128 m 1,56,-1
 2048 -128 l 1,57,-1
 2048 0 l 1,58,-1
 1920 0 l 1,59,-1
 1920 -128 l 1,56,-1
1792 0 m 1,60,-1
 1920 0 l 1,61,-1
 1920 128 l 1,62,-1
 1792 128 l 1,63,-1
 1792 0 l 1,60,-1
1664 -128 m 1,64,-1
 1792 -128 l 1,65,-1
 1792 0 l 1,66,-1
 1664 0 l 1,67,-1
 1664 -128 l 1,64,-1
1280 1024 m 1,68,-1
 1408 1024 l 1,69,-1
 1408 1152 l 1,70,-1
 1280 1152 l 1,71,-1
 1280 1024 l 1,68,-1
1152 896 m 1,72,-1
 1280 896 l 1,73,-1
 1280 1024 l 1,74,-1
 1152 1024 l 1,75,-1
 1152 896 l 1,72,-1
1024 1024 m 1,76,-1
 1152 1024 l 1,77,-1
 1152 1152 l 1,78,-1
 1024 1152 l 1,79,-1
 1024 1024 l 1,76,-1
896 896 m 1,80,-1
 1024 896 l 1,81,-1
 1024 1024 l 1,82,-1
 896 1024 l 1,83,-1
 896 896 l 1,80,-1
768 1024 m 1,84,-1
 896 1024 l 1,85,-1
 896 1152 l 1,86,-1
 768 1152 l 1,87,-1
 768 1024 l 1,84,-1
640 896 m 1,88,-1
 768 896 l 1,89,-1
 768 1024 l 1,90,-1
 640 1024 l 1,91,-1
 640 896 l 1,88,-1
1152 384 m 1,92,-1
 1152 768 l 1,93,-1
 2048 768 l 1,94,-1
 2048 384 l 1,95,-1
 1152 384 l 1,92,-1
1920 512 m 1,96,-1
 2048 512 l 1,97,-1
 2048 640 l 1,98,-1
 1920 640 l 1,99,-1
 1920 512 l 1,96,-1
1792 384 m 1,100,-1
 1920 384 l 1,101,-1
 1920 512 l 1,102,-1
 1792 512 l 1,103,-1
 1792 384 l 1,100,-1
1664 512 m 1,104,-1
 1792 512 l 1,105,-1
 1792 640 l 1,106,-1
 1664 640 l 1,107,-1
 1664 512 l 1,104,-1
1536 384 m 1,108,-1
 1664 384 l 1,109,-1
 1664 512 l 1,110,-1
 1536 512 l 1,111,-1
 1536 384 l 1,108,-1
1408 512 m 1,112,-1
 1536 512 l 1,113,-1
 1536 640 l 1,114,-1
 1408 640 l 1,115,-1
 1408 512 l 1,112,-1
1280 384 m 1,116,-1
 1408 384 l 1,117,-1
 1408 512 l 1,118,-1
 1280 512 l 1,119,-1
 1280 384 l 1,116,-1
0 384 m 1,120,-1
 0 768 l 1,121,-1
 896 768 l 1,122,-1
 896 384 l 1,123,-1
 0 384 l 1,120,-1
768 512 m 1,124,-1
 896 512 l 1,125,-1
 896 640 l 1,126,-1
 768 640 l 1,127,-1
 768 512 l 1,124,-1
640 384 m 1,128,-1
 768 384 l 1,129,-1
 768 512 l 1,130,-1
 640 512 l 1,131,-1
 640 384 l 1,128,-1
512 512 m 1,132,-1
 640 512 l 1,133,-1
 640 640 l 1,134,-1
 512 640 l 1,135,-1
 512 512 l 1,132,-1
384 384 m 1,136,-1
 512 384 l 1,137,-1
 512 512 l 1,138,-1
 384 512 l 1,139,-1
 384 384 l 1,136,-1
256 512 m 1,140,-1
 384 512 l 1,141,-1
 384 640 l 1,142,-1
 256 640 l 1,143,-1
 256 512 l 1,140,-1
128 384 m 1,144,-1
 256 384 l 1,145,-1
 256 512 l 1,146,-1
 128 512 l 1,147,-1
 128 384 l 1,144,-1
512 -128 m 1,148,-1
 512 256 l 1,149,-1
 1408 256 l 1,150,-1
 1408 -128 l 1,151,-1
 512 -128 l 1,148,-1
1280 0 m 1,152,-1
 1408 0 l 1,153,-1
 1408 128 l 1,154,-1
 1280 128 l 1,155,-1
 1280 0 l 1,152,-1
1152 -128 m 1,156,-1
 1280 -128 l 1,157,-1
 1280 0 l 1,158,-1
 1152 0 l 1,159,-1
 1152 -128 l 1,156,-1
1024 0 m 1,160,-1
 1152 0 l 1,161,-1
 1152 128 l 1,162,-1
 1024 128 l 1,163,-1
 1024 0 l 1,160,-1
896 -128 m 1,164,-1
 1024 -128 l 1,165,-1
 1024 0 l 1,166,-1
 896 0 l 1,167,-1
 896 -128 l 1,164,-1
768 0 m 1,168,-1
 896 0 l 1,169,-1
 896 128 l 1,170,-1
 768 128 l 1,171,-1
 768 0 l 1,168,-1
640 -128 m 1,172,-1
 768 -128 l 1,173,-1
 768 0 l 1,174,-1
 640 0 l 1,175,-1
 640 -128 l 1,172,-1
1024 1408 m 1,176,-1
 1024 1792 l 1,177,-1
 1920 1792 l 1,178,-1
 1920 1408 l 1,179,-1
 1024 1408 l 1,176,-1
1792 1536 m 1,180,-1
 1920 1536 l 1,181,-1
 1920 1664 l 1,182,-1
 1792 1664 l 1,183,-1
 1792 1536 l 1,180,-1
1664 1408 m 1,184,-1
 1792 1408 l 1,185,-1
 1792 1536 l 1,186,-1
 1664 1536 l 1,187,-1
 1664 1408 l 1,184,-1
1536 1536 m 1,188,-1
 1664 1536 l 1,189,-1
 1664 1664 l 1,190,-1
 1536 1664 l 1,191,-1
 1536 1536 l 1,188,-1
1408 1408 m 1,192,-1
 1536 1408 l 1,193,-1
 1536 1536 l 1,194,-1
 1408 1536 l 1,195,-1
 1408 1408 l 1,192,-1
1280 1536 m 1,196,-1
 1408 1536 l 1,197,-1
 1408 1664 l 1,198,-1
 1280 1664 l 1,199,-1
 1280 1536 l 1,196,-1
1152 1408 m 1,200,-1
 1280 1408 l 1,201,-1
 1280 1536 l 1,202,-1
 1152 1536 l 1,203,-1
 1152 1408 l 1,200,-1
0 1408 m 1,204,-1
 0 1792 l 1,205,-1
 896 1792 l 1,206,-1
 896 1408 l 1,207,-1
 0 1408 l 1,204,-1
768 1536 m 1,208,-1
 896 1536 l 1,209,-1
 896 1664 l 1,210,-1
 768 1664 l 1,211,-1
 768 1536 l 1,208,-1
640 1408 m 1,212,-1
 768 1408 l 1,213,-1
 768 1536 l 1,214,-1
 640 1536 l 1,215,-1
 640 1408 l 1,212,-1
512 1536 m 1,216,-1
 640 1536 l 1,217,-1
 640 1664 l 1,218,-1
 512 1664 l 1,219,-1
 512 1536 l 1,216,-1
384 1408 m 1,220,-1
 512 1408 l 1,221,-1
 512 1536 l 1,222,-1
 384 1536 l 1,223,-1
 384 1408 l 1,220,-1
256 1536 m 1,224,-1
 384 1536 l 1,225,-1
 384 1664 l 1,226,-1
 256 1664 l 1,227,-1
 256 1536 l 1,224,-1
128 1408 m 1,228,-1
 256 1408 l 1,229,-1
 256 1536 l 1,230,-1
 128 1536 l 1,231,-1
 128 1408 l 1,228,-1
EndSplineSet
EndChar

StartChar: cent
Encoding: 162 162 118
Width: 2048
GlyphClass: 2
Flags: W
LayerCount: 2
Fore
SplineSet
0 1792 m 1,0,-1
 2048 1792 l 1,1,-1
 2048 1664 l 1,2,-1
 1920 1664 l 1,3,-1
 1920 1536 l 1,4,-1
 1792 1536 l 1,5,-1
 1792 1408 l 1,6,-1
 1664 1408 l 1,7,-1
 1664 1280 l 1,8,-1
 1536 1280 l 1,9,-1
 1536 1152 l 1,10,-1
 1408 1152 l 1,11,-1
 1408 1024 l 1,12,-1
 1280 1024 l 1,13,-1
 1280 896 l 1,14,-1
 1152 896 l 1,15,-1
 1152 768 l 1,16,-1
 1024 768 l 1,17,-1
 1024 896 l 1,18,-1
 896 896 l 1,19,-1
 896 1024 l 1,20,-1
 768 1024 l 1,21,-1
 768 1152 l 1,22,-1
 640 1152 l 1,23,-1
 640 1280 l 1,24,-1
 512 1280 l 1,25,-1
 512 1408 l 1,26,-1
 384 1408 l 1,27,-1
 384 1536 l 1,28,-1
 256 1536 l 1,29,-1
 256 1664 l 1,30,-1
 128 1664 l 1,31,-1
 128 1536 l 1,32,-1
 256 1536 l 1,33,-1
 256 1408 l 1,34,-1
 128 1408 l 1,35,-1
 128 1280 l 1,36,-1
 256 1280 l 1,37,-1
 256 1152 l 1,38,-1
 128 1152 l 1,39,-1
 128 1024 l 1,40,-1
 256 1024 l 1,41,-1
 256 896 l 1,42,-1
 128 896 l 1,43,-1
 128 768 l 1,44,-1
 256 768 l 1,45,-1
 256 640 l 1,46,-1
 128 640 l 1,47,-1
 128 512 l 1,48,-1
 256 512 l 1,49,-1
 256 384 l 1,50,-1
 128 384 l 1,51,-1
 128 256 l 1,52,-1
 256 256 l 1,53,-1
 256 128 l 1,54,-1
 128 128 l 1,55,-1
 128 0 l 1,56,-1
 256 0 l 1,57,-1
 256 -128 l 1,58,-1
 128 -128 l 1,59,-1
 128 -256 l 1,60,-1
 0 -256 l 1,61,-1
 0 1792 l 1,0,-1
1920 1536 m 1,62,-1
 2048 1536 l 1,63,-1
 2048 1408 l 1,64,-1
 1920 1408 l 1,65,-1
 1920 1536 l 1,62,-1
1920 1408 m 1,66,-1
 1920 1280 l 1,67,-1
 1792 1280 l 1,68,-1
 1792 1408 l 1,69,-1
 1920 1408 l 1,66,-1
1920 1280 m 1,70,-1
 2048 1280 l 1,71,-1
 2048 1152 l 1,72,-1
 1920 1152 l 1,73,-1
 1920 1280 l 1,70,-1
1920 1152 m 1,74,-1
 1920 1024 l 1,75,-1
 1792 1024 l 1,76,-1
 1792 1152 l 1,77,-1
 1920 1152 l 1,74,-1
1920 1024 m 1,78,-1
 2048 1024 l 1,79,-1
 2048 896 l 1,80,-1
 1920 896 l 1,81,-1
 1920 1024 l 1,78,-1
1920 896 m 1,82,-1
 1920 768 l 1,83,-1
 1792 768 l 1,84,-1
 1792 896 l 1,85,-1
 1920 896 l 1,82,-1
1920 768 m 1,86,-1
 2048 768 l 1,87,-1
 2048 640 l 1,88,-1
 1920 640 l 1,89,-1
 1920 768 l 1,86,-1
1920 640 m 1,90,-1
 1920 512 l 1,91,-1
 1792 512 l 1,92,-1
 1792 640 l 1,93,-1
 1920 640 l 1,90,-1
1920 512 m 1,94,-1
 2048 512 l 1,95,-1
 2048 384 l 1,96,-1
 1920 384 l 1,97,-1
 1920 512 l 1,94,-1
1920 384 m 1,98,-1
 1920 256 l 1,99,-1
 1792 256 l 1,100,-1
 1792 384 l 1,101,-1
 1920 384 l 1,98,-1
1920 256 m 1,102,-1
 2048 256 l 1,103,-1
 2048 128 l 1,104,-1
 1920 128 l 1,105,-1
 1920 256 l 1,102,-1
1920 128 m 1,106,-1
 1920 0 l 1,107,-1
 1792 0 l 1,108,-1
 1792 128 l 1,109,-1
 1920 128 l 1,106,-1
1920 0 m 1,110,-1
 2048 0 l 1,111,-1
 2048 -128 l 1,112,-1
 1920 -128 l 1,113,-1
 1920 0 l 1,110,-1
1792 128 m 1,114,-1
 1664 128 l 1,115,-1
 1664 256 l 1,116,-1
 1792 256 l 1,117,-1
 1792 128 l 1,114,-1
1664 256 m 1,118,-1
 1536 256 l 1,119,-1
 1536 384 l 1,120,-1
 1664 384 l 1,121,-1
 1664 256 l 1,118,-1
1536 384 m 1,122,-1
 1408 384 l 1,123,-1
 1408 512 l 1,124,-1
 1536 512 l 1,125,-1
 1536 384 l 1,122,-1
1408 512 m 1,126,-1
 1280 512 l 1,127,-1
 1280 640 l 1,128,-1
 1408 640 l 1,129,-1
 1408 512 l 1,126,-1
1280 640 m 1,130,-1
 1152 640 l 1,131,-1
 1152 768 l 1,132,-1
 1280 768 l 1,133,-1
 1280 640 l 1,130,-1
1280 768 m 1,134,-1
 1280 896 l 1,135,-1
 1408 896 l 1,136,-1
 1408 768 l 1,137,-1
 1280 768 l 1,134,-1
1408 896 m 1,138,-1
 1408 1024 l 1,139,-1
 1536 1024 l 1,140,-1
 1536 896 l 1,141,-1
 1408 896 l 1,138,-1
1536 1024 m 1,142,-1
 1536 1152 l 1,143,-1
 1664 1152 l 1,144,-1
 1664 1024 l 1,145,-1
 1536 1024 l 1,142,-1
1664 1152 m 1,146,-1
 1664 1280 l 1,147,-1
 1792 1280 l 1,148,-1
 1792 1152 l 1,149,-1
 1664 1152 l 1,146,-1
1664 1024 m 1,150,-1
 1792 1024 l 1,151,-1
 1792 896 l 1,152,-1
 1664 896 l 1,153,-1
 1664 1024 l 1,150,-1
1664 896 m 1,154,-1
 1664 768 l 1,155,-1
 1536 768 l 1,156,-1
 1536 896 l 1,157,-1
 1664 896 l 1,154,-1
1664 768 m 1,158,-1
 1792 768 l 1,159,-1
 1792 640 l 1,160,-1
 1664 640 l 1,161,-1
 1664 768 l 1,158,-1
1664 640 m 1,162,-1
 1664 512 l 1,163,-1
 1536 512 l 1,164,-1
 1536 640 l 1,165,-1
 1664 640 l 1,162,-1
1664 512 m 1,166,-1
 1792 512 l 1,167,-1
 1792 384 l 1,168,-1
 1664 384 l 1,169,-1
 1664 512 l 1,166,-1
1536 640 m 1,170,-1
 1408 640 l 1,171,-1
 1408 768 l 1,172,-1
 1536 768 l 1,173,-1
 1536 640 l 1,170,-1
1024 768 m 1,174,-1
 1024 640 l 1,175,-1
 896 640 l 1,176,-1
 896 768 l 1,177,-1
 1024 768 l 1,174,-1
896 640 m 1,178,-1
 896 512 l 1,179,-1
 768 512 l 1,180,-1
 768 640 l 1,181,-1
 896 640 l 1,178,-1
768 512 m 1,182,-1
 768 384 l 1,183,-1
 640 384 l 1,184,-1
 640 512 l 1,185,-1
 768 512 l 1,182,-1
640 384 m 1,186,-1
 640 256 l 1,187,-1
 512 256 l 1,188,-1
 512 384 l 1,189,-1
 640 384 l 1,186,-1
512 256 m 1,190,-1
 512 128 l 1,191,-1
 384 128 l 1,192,-1
 384 256 l 1,193,-1
 512 256 l 1,190,-1
384 128 m 1,194,-1
 384 0 l 1,195,-1
 256 0 l 1,196,-1
 256 128 l 1,197,-1
 384 128 l 1,194,-1
384 256 m 1,198,-1
 256 256 l 1,199,-1
 256 384 l 1,200,-1
 384 384 l 1,201,-1
 384 256 l 1,198,-1
384 384 m 1,202,-1
 384 512 l 1,203,-1
 512 512 l 1,204,-1
 512 384 l 1,205,-1
 384 384 l 1,202,-1
384 512 m 1,206,-1
 256 512 l 1,207,-1
 256 640 l 1,208,-1
 384 640 l 1,209,-1
 384 512 l 1,206,-1
384 640 m 1,210,-1
 384 768 l 1,211,-1
 512 768 l 1,212,-1
 512 640 l 1,213,-1
 384 640 l 1,210,-1
384 768 m 1,214,-1
 256 768 l 1,215,-1
 256 896 l 1,216,-1
 384 896 l 1,217,-1
 384 768 l 1,214,-1
384 896 m 1,218,-1
 384 1024 l 1,219,-1
 512 1024 l 1,220,-1
 512 896 l 1,221,-1
 384 896 l 1,218,-1
384 1024 m 1,222,-1
 256 1024 l 1,223,-1
 256 1152 l 1,224,-1
 384 1152 l 1,225,-1
 384 1024 l 1,222,-1
384 1152 m 1,226,-1
 384 1280 l 1,227,-1
 512 1280 l 1,228,-1
 512 1152 l 1,229,-1
 384 1152 l 1,226,-1
384 1280 m 1,230,-1
 256 1280 l 1,231,-1
 256 1408 l 1,232,-1
 384 1408 l 1,233,-1
 384 1280 l 1,230,-1
512 1152 m 1,234,-1
 640 1152 l 1,235,-1
 640 1024 l 1,236,-1
 512 1024 l 1,237,-1
 512 1152 l 1,234,-1
640 1024 m 1,238,-1
 768 1024 l 1,239,-1
 768 896 l 1,240,-1
 640 896 l 1,241,-1
 640 1024 l 1,238,-1
768 896 m 1,242,-1
 896 896 l 1,243,-1
 896 768 l 1,244,-1
 768 768 l 1,245,-1
 768 896 l 1,242,-1
768 768 m 1,246,-1
 768 640 l 1,247,-1
 640 640 l 1,248,-1
 640 768 l 1,249,-1
 768 768 l 1,246,-1
640 640 m 1,250,-1
 640 512 l 1,251,-1
 512 512 l 1,252,-1
 512 640 l 1,253,-1
 640 640 l 1,250,-1
640 768 m 1,254,-1
 512 768 l 1,255,-1
 512 896 l 1,256,-1
 640 896 l 1,257,-1
 640 768 l 1,254,-1
EndSplineSet
EndChar

StartChar: ordfeminine
Encoding: 170 170 121
Width: 2048
GlyphClass: 2
Flags: W
LayerCount: 2
Fore
SplineSet
1664 1024 m 1,0,-1
 1664 1152 l 1,1,-1
 1792 1152 l 1,2,-1
 1792 1024 l 1,3,-1
 1664 1024 l 1,0,-1
1536 896 m 1,4,-1
 1536 1024 l 1,5,-1
 1664 1024 l 1,6,-1
 1664 896 l 1,7,-1
 1536 896 l 1,4,-1
1408 768 m 1,8,-1
 1408 896 l 1,9,-1
 1536 896 l 1,10,-1
 1536 768 l 1,11,-1
 1408 768 l 1,8,-1
1280 640 m 1,12,-1
 1280 768 l 1,13,-1
 1408 768 l 1,14,-1
 1408 640 l 1,15,-1
 1280 640 l 1,12,-1
1152 512 m 1,16,-1
 1152 640 l 1,17,-1
 1280 640 l 1,18,-1
 1280 512 l 1,19,-1
 1152 512 l 1,16,-1
1024 384 m 1,20,-1
 1024 512 l 1,21,-1
 1152 512 l 1,22,-1
 1152 384 l 1,23,-1
 1024 384 l 1,20,-1
1280 384 m 1,24,-1
 1280 512 l 1,25,-1
 1408 512 l 1,26,-1
 1408 384 l 1,27,-1
 1280 384 l 1,24,-1
1408 512 m 1,28,-1
 1408 640 l 1,29,-1
 1536 640 l 1,30,-1
 1536 512 l 1,31,-1
 1408 512 l 1,28,-1
1536 640 m 1,32,-1
 1536 768 l 1,33,-1
 1664 768 l 1,34,-1
 1664 640 l 1,35,-1
 1536 640 l 1,32,-1
1664 768 m 1,36,-1
 1664 896 l 1,37,-1
 1792 896 l 1,38,-1
 1792 768 l 1,39,-1
 1664 768 l 1,36,-1
1792 896 m 1,40,-1
 1792 1024 l 1,41,-1
 1920 1024 l 1,42,-1
 1920 896 l 1,43,-1
 1792 896 l 1,40,-1
1920 1024 m 1,44,-1
 1920 1152 l 1,45,-1
 2048 1152 l 1,46,-1
 2048 1024 l 1,47,-1
 1920 1024 l 1,44,-1
896 1024 m 1,48,-1
 896 1152 l 1,49,-1
 1024 1152 l 1,50,-1
 1024 1024 l 1,51,-1
 896 1024 l 1,48,-1
768 896 m 1,52,-1
 768 1024 l 1,53,-1
 896 1024 l 1,54,-1
 896 896 l 1,55,-1
 768 896 l 1,52,-1
640 768 m 1,56,-1
 640 896 l 1,57,-1
 768 896 l 1,58,-1
 768 768 l 1,59,-1
 640 768 l 1,56,-1
512 640 m 1,60,-1
 512 768 l 1,61,-1
 640 768 l 1,62,-1
 640 640 l 1,63,-1
 512 640 l 1,60,-1
384 512 m 1,64,-1
 384 640 l 1,65,-1
 512 640 l 1,66,-1
 512 512 l 1,67,-1
 384 512 l 1,64,-1
256 384 m 1,68,-1
 256 512 l 1,69,-1
 384 512 l 1,70,-1
 384 384 l 1,71,-1
 256 384 l 1,68,-1
640 1024 m 1,72,-1
 640 1152 l 1,73,-1
 768 1152 l 1,74,-1
 768 1024 l 1,75,-1
 640 1024 l 1,72,-1
512 896 m 1,76,-1
 512 1024 l 1,77,-1
 640 1024 l 1,78,-1
 640 896 l 1,79,-1
 512 896 l 1,76,-1
384 768 m 1,80,-1
 384 896 l 1,81,-1
 512 896 l 1,82,-1
 512 768 l 1,83,-1
 384 768 l 1,80,-1
256 640 m 1,84,-1
 256 768 l 1,85,-1
 384 768 l 1,86,-1
 384 640 l 1,87,-1
 256 640 l 1,84,-1
128 512 m 1,88,-1
 128 640 l 1,89,-1
 256 640 l 1,90,-1
 256 512 l 1,91,-1
 128 512 l 1,88,-1
0 384 m 1,92,-1
 0 512 l 1,93,-1
 128 512 l 1,94,-1
 128 384 l 1,95,-1
 0 384 l 1,92,-1
0 384 m 1,96,-1
 2048 384 l 1,97,-1
 2048 128 l 1,98,-1
 0 128 l 1,99,-1
 0 384 l 1,96,-1
0 1408 m 1,100,-1
 2048 1408 l 1,101,-1
 2048 1152 l 1,102,-1
 0 1152 l 1,103,-1
 0 1408 l 1,100,-1
EndSplineSet
EndChar

StartChar: guillemotleft
Encoding: 171 171 122
Width: 2048
GlyphClass: 2
Flags: W
LayerCount: 2
Fore
SplineSet
1280 128 m 1,0,-1
 1408 128 l 1,1,-1
 1408 0 l 1,2,-1
 1280 0 l 1,3,-1
 1280 128 l 1,0,-1
1152 256 m 1,4,-1
 1280 256 l 1,5,-1
 1280 128 l 1,6,-1
 1152 128 l 1,7,-1
 1152 256 l 1,4,-1
1024 384 m 1,8,-1
 1152 384 l 1,9,-1
 1152 256 l 1,10,-1
 1024 256 l 1,11,-1
 1024 384 l 1,8,-1
896 512 m 1,12,-1
 1024 512 l 1,13,-1
 1024 384 l 1,14,-1
 896 384 l 1,15,-1
 896 512 l 1,12,-1
768 640 m 1,16,-1
 896 640 l 1,17,-1
 896 512 l 1,18,-1
 768 512 l 1,19,-1
 768 640 l 1,16,-1
640 768 m 1,20,-1
 768 768 l 1,21,-1
 768 640 l 1,22,-1
 640 640 l 1,23,-1
 640 768 l 1,20,-1
640 512 m 1,24,-1
 768 512 l 1,25,-1
 768 384 l 1,26,-1
 640 384 l 1,27,-1
 640 512 l 1,24,-1
768 384 m 1,28,-1
 896 384 l 1,29,-1
 896 256 l 1,30,-1
 768 256 l 1,31,-1
 768 384 l 1,28,-1
896 256 m 1,32,-1
 1024 256 l 1,33,-1
 1024 128 l 1,34,-1
 896 128 l 1,35,-1
 896 256 l 1,32,-1
1024 128 m 1,36,-1
 1152 128 l 1,37,-1
 1152 0 l 1,38,-1
 1024 0 l 1,39,-1
 1024 128 l 1,36,-1
1152 0 m 1,40,-1
 1280 0 l 1,41,-1
 1280 -128 l 1,42,-1
 1152 -128 l 1,43,-1
 1152 0 l 1,40,-1
1280 -128 m 1,44,-1
 1408 -128 l 1,45,-1
 1408 -256 l 1,46,-1
 1280 -256 l 1,47,-1
 1280 -128 l 1,44,-1
1280 896 m 1,48,-1
 1408 896 l 1,49,-1
 1408 768 l 1,50,-1
 1280 768 l 1,51,-1
 1280 896 l 1,48,-1
1152 1024 m 1,52,-1
 1280 1024 l 1,53,-1
 1280 896 l 1,54,-1
 1152 896 l 1,55,-1
 1152 1024 l 1,52,-1
1024 1152 m 1,56,-1
 1152 1152 l 1,57,-1
 1152 1024 l 1,58,-1
 1024 1024 l 1,59,-1
 1024 1152 l 1,56,-1
896 1280 m 1,60,-1
 1024 1280 l 1,61,-1
 1024 1152 l 1,62,-1
 896 1152 l 1,63,-1
 896 1280 l 1,60,-1
768 1408 m 1,64,-1
 896 1408 l 1,65,-1
 896 1280 l 1,66,-1
 768 1280 l 1,67,-1
 768 1408 l 1,64,-1
640 1536 m 1,68,-1
 768 1536 l 1,69,-1
 768 1408 l 1,70,-1
 640 1408 l 1,71,-1
 640 1536 l 1,68,-1
1280 1152 m 1,72,-1
 1408 1152 l 1,73,-1
 1408 1024 l 1,74,-1
 1280 1024 l 1,75,-1
 1280 1152 l 1,72,-1
1152 1280 m 1,76,-1
 1280 1280 l 1,77,-1
 1280 1152 l 1,78,-1
 1152 1152 l 1,79,-1
 1152 1280 l 1,76,-1
1024 1408 m 1,80,-1
 1152 1408 l 1,81,-1
 1152 1280 l 1,82,-1
 1024 1280 l 1,83,-1
 1024 1408 l 1,80,-1
896 1536 m 1,84,-1
 1024 1536 l 1,85,-1
 1024 1408 l 1,86,-1
 896 1408 l 1,87,-1
 896 1536 l 1,84,-1
768 1664 m 1,88,-1
 896 1664 l 1,89,-1
 896 1536 l 1,90,-1
 768 1536 l 1,91,-1
 768 1664 l 1,88,-1
640 1792 m 1,92,-1
 768 1792 l 1,93,-1
 768 1664 l 1,94,-1
 640 1664 l 1,95,-1
 640 1792 l 1,92,-1
640 1792 m 1,96,-1
 640 -256 l 1,97,-1
 384 -256 l 1,98,-1
 384 1792 l 1,99,-1
 640 1792 l 1,96,-1
1664 1792 m 1,100,-1
 1408 1792 l 1,101,-1
 1408 -256 l 1,102,-1
 1664 -256 l 1,103,-1
 1664 1792 l 1,100,-1
EndSplineSet
EndChar

StartChar: acute
Encoding: 180 180 123
Width: 2048
GlyphClass: 2
Flags: W
LayerCount: 2
Fore
SplineSet
512 512 m 1,0,-1
 640 512 l 1,1,-1
 640 384 l 1,2,-1
 512 384 l 1,3,-1
 512 512 l 1,0,-1
1408 512 m 1,4,-1
 1536 512 l 1,5,-1
 1536 384 l 1,6,-1
 1408 384 l 1,7,-1
 1408 512 l 1,4,-1
1408 1280 m 1,8,-1
 1536 1280 l 1,9,-1
 1536 1152 l 1,10,-1
 1408 1152 l 1,11,-1
 1408 1280 l 1,8,-1
512 1280 m 1,12,-1
 640 1280 l 1,13,-1
 640 1152 l 1,14,-1
 512 1152 l 1,15,-1
 512 1280 l 1,12,-1
128 1664 m 1,16,-1
 512 1664 l 1,17,-1
 512 1152 l 1,18,-1
 128 1152 l 1,19,-1
 128 1664 l 1,16,-1
640 1664 m 1,20,-1
 640 1152 l 1,21,-1
 1408 1152 l 1,22,-1
 1408 1664 l 1,23,-1
 640 1664 l 1,20,-1
1536 1664 m 1,24,-1
 1536 1152 l 1,25,-1
 1920 1152 l 1,26,-1
 1920 1664 l 1,27,-1
 1536 1664 l 1,24,-1
128 1024 m 1,28,-1
 512 1024 l 1,29,-1
 512 384 l 1,30,-1
 128 384 l 1,31,-1
 128 1024 l 1,28,-1
640 1024 m 1,32,-1
 640 384 l 1,33,-1
 1408 384 l 1,34,-1
 1408 1024 l 1,35,-1
 640 1024 l 1,32,-1
1536 1024 m 1,36,-1
 1536 384 l 1,37,-1
 1920 384 l 1,38,-1
 1920 1024 l 1,39,-1
 1536 1024 l 1,36,-1
128 256 m 1,40,-1
 512 256 l 1,41,-1
 512 -256 l 1,42,-1
 128 -256 l 1,43,-1
 128 256 l 1,40,-1
640 256 m 1,44,-1
 1408 256 l 1,45,-1
 1408 -256 l 1,46,-1
 640 -256 l 1,47,-1
 640 256 l 1,44,-1
1536 256 m 1,48,-1
 1920 256 l 1,49,-1
 1920 -256 l 1,50,-1
 1536 -256 l 1,51,-1
 1536 256 l 1,48,-1
EndSplineSet
EndChar

StartChar: mu
Encoding: 181 181 124
Width: 2048
GlyphClass: 2
Flags: W
LayerCount: 2
Fore
SplineSet
259 384 m 1024,0,-1
1781 384 m 1024,1,-1
1781 1152 m 1024,2,-1
259 1152 m 1024,3,-1
128 1664 m 1,4,-1
 259 1664 l 1,5,-1
 259 1152 l 1,6,-1
 128 1152 l 1,7,-1
 128 1664 l 1,4,-1
1781 1664 m 1,8,-1
 1781 1152 l 1,9,-1
 1920 1152 l 1,10,-1
 1920 1664 l 1,11,-1
 1781 1664 l 1,8,-1
128 1024 m 1,12,-1
 259 1024 l 1,13,-1
 259 384 l 1,14,-1
 128 384 l 1,15,-1
 128 1024 l 1,12,-1
1781 1024 m 1,16,-1
 1781 384 l 1,17,-1
 1920 384 l 1,18,-1
 1920 1024 l 1,19,-1
 1781 1024 l 1,16,-1
128 256 m 1,20,-1
 259 256 l 1,21,-1
 259 -256 l 1,22,-1
 128 -256 l 1,23,-1
 128 256 l 1,20,-1
1781 256 m 1,24,-1
 1920 256 l 1,25,-1
 1920 -256 l 1,26,-1
 1781 -256 l 1,27,-1
 1781 256 l 1,24,-1
EndSplineSet
EndChar

StartChar: threequarters
Encoding: 190 190 125
Width: 2048
GlyphClass: 2
Flags: W
LayerCount: 2
Fore
SplineSet
0 1792 m 1,0,-1
 2048 1792 l 1,1,-1
 2048 -256 l 1,2,-1
 0 -256 l 1,3,-1
 0 1792 l 1,0,-1
640 768 m 1,4,-1
 640 640 l 1,5,-1
 512 640 l 1,6,-1
 512 512 l 1,7,-1
 384 512 l 1,8,-1
 384 384 l 1,9,-1
 256 384 l 1,10,-1
 256 256 l 1,11,-1
 256 128 l 1,12,-1
 128 128 l 1,13,-1
 128 0 l 1,14,-1
 128 -128 l 1,15,-1
 256 -128 l 1,16,-1
 384 -128 l 1,17,-1
 1664 -128 l 1,18,-1
 1792 -128 l 1,19,-1
 1792 0 l 1,20,-1
 1792 128 l 1,21,-1
 1792 256 l 1,22,-1
 1792 384 l 1,23,-1
 1664 384 l 1,24,-1
 1664 512 l 1,25,-1
 1536 512 l 1,26,-1
 1536 640 l 1,27,-1
 1408 640 l 1,28,-1
 1280 640 l 1,29,-1
 1280 768 l 1,30,-1
 1152 768 l 1,31,-1
 1024 768 l 1,32,-1
 896 768 l 1,33,-1
 768 768 l 1,34,-1
 640 768 l 1,4,-1
896 0 m 1,35,-1
 896 128 l 1,36,-1
 1024 128 l 1,37,-1
 1024 0 l 1,38,-1
 896 0 l 1,35,-1
768 -128 m 1,39,-1
 768 0 l 1,40,-1
 896 0 l 1,41,-1
 896 -128 l 1,42,-1
 768 -128 l 1,39,-1
1024 128 m 1,43,-1
 1024 256 l 1,44,-1
 1152 256 l 1,45,-1
 1152 128 l 1,46,-1
 1024 128 l 1,43,-1
1152 256 m 1,47,-1
 1152 384 l 1,48,-1
 1280 384 l 1,49,-1
 1280 256 l 1,50,-1
 1152 256 l 1,47,-1
1280 384 m 1,51,-1
 1280 512 l 1,52,-1
 1408 512 l 1,53,-1
 1408 384 l 1,54,-1
 1280 384 l 1,51,-1
1408 256 m 1,55,-1
 1408 384 l 1,56,-1
 1536 384 l 1,57,-1
 1536 256 l 1,58,-1
 1408 256 l 1,55,-1
1280 128 m 1,59,-1
 1280 256 l 1,60,-1
 1408 256 l 1,61,-1
 1408 128 l 1,62,-1
 1280 128 l 1,59,-1
1152 0 m 1,63,-1
 1152 128 l 1,64,-1
 1280 128 l 1,65,-1
 1280 0 l 1,66,-1
 1152 0 l 1,63,-1
1024 -128 m 1,67,-1
 1024 0 l 1,68,-1
 1152 0 l 1,69,-1
 1152 -128 l 1,70,-1
 1024 -128 l 1,67,-1
1280 -128 m 1,71,-1
 1280 0 l 1,72,-1
 1408 0 l 1,73,-1
 1408 -128 l 1,74,-1
 1280 -128 l 1,71,-1
1408 0 m 1,75,-1
 1408 128 l 1,76,-1
 1536 128 l 1,77,-1
 1536 0 l 1,78,-1
 1408 0 l 1,75,-1
1536 128 m 1,79,-1
 1536 256 l 1,80,-1
 1664 256 l 1,81,-1
 1664 128 l 1,82,-1
 1536 128 l 1,79,-1
1536 -128 m 1,83,-1
 1536 0 l 1,84,-1
 1664 0 l 1,85,-1
 1664 -128 l 1,86,-1
 1536 -128 l 1,83,-1
1664 0 m 1,87,-1
 1664 128 l 1,88,-1
 1792 128 l 1,89,-1
 1792 0 l 1,90,-1
 1664 0 l 1,87,-1
EndSplineSet
EndChar

StartChar: questiondown
Encoding: 191 191 126
Width: 2048
GlyphClass: 2
Flags: W
LayerCount: 2
Fore
SplineSet
512 512 m 1,0,-1
 640 512 l 1,1,-1
 640 384 l 1,2,-1
 512 384 l 1,3,-1
 512 512 l 1,0,-1
640 640 m 1,4,-1
 768 640 l 1,5,-1
 768 512 l 1,6,-1
 640 512 l 1,7,-1
 640 640 l 1,4,-1
768 768 m 1,8,-1
 896 768 l 1,9,-1
 896 640 l 1,10,-1
 768 640 l 1,11,-1
 768 768 l 1,8,-1
1024 512 m 1,12,-1
 1152 512 l 1,13,-1
 1152 384 l 1,14,-1
 1024 384 l 1,15,-1
 1024 512 l 1,12,-1
896 384 m 1,16,-1
 1024 384 l 1,17,-1
 1024 256 l 1,18,-1
 896 256 l 1,19,-1
 896 384 l 1,16,-1
512 0 m 1,20,-1
 640 0 l 1,21,-1
 640 -128 l 1,22,-1
 512 -128 l 1,23,-1
 512 0 l 1,20,-1
640 128 m 1,24,-1
 768 128 l 1,25,-1
 768 0 l 1,26,-1
 640 0 l 1,27,-1
 640 128 l 1,24,-1
768 256 m 1,28,-1
 896 256 l 1,29,-1
 896 128 l 1,30,-1
 768 128 l 1,31,-1
 768 256 l 1,28,-1
1280 768 m 1,32,-1
 1280 640 l 1,33,-1
 1408 640 l 1,34,-1
 1408 768 l 1,35,-1
 1280 768 l 1,32,-1
512 0 m 1,36,-1
 512 -128 l 1,37,-1
 640 -128 l 1,38,-1
 640 0 l 1,39,-1
 512 0 l 1,36,-1
0 1792 m 1,40,-1
 2048 1792 l 1,41,-1
 2048 -256 l 1,42,-1
 0 -256 l 1,43,-1
 0 1792 l 1,40,-1
640 1024 m 1,44,-1
 640 896 l 1,45,-1
 640 768 l 1,46,-1
 512 768 l 1,47,-1
 512 640 l 1,48,-1
 384 640 l 1,49,-1
 384 512 l 1,50,-1
 384 384 l 1,51,-1
 384 256 l 1,52,-1
 256 256 l 1,53,-1
 256 128 l 1,54,-1
 256 0 l 1,55,-1
 256 -128 l 1,56,-1
 384 -128 l 1,57,-1
 512 -128 l 1,58,-1
 512 0 l 1,59,-1
 640 0 l 1,60,-1
 640 -128 l 1,61,-1
 1664 -128 l 1,62,-1
 1792 -128 l 1,63,-1
 1792 0 l 1,64,-1
 1792 128 l 1,65,-1
 1792 256 l 1,66,-1
 1792 384 l 1,67,-1
 1664 384 l 1,68,-1
 1664 512 l 1,69,-1
 1664 640 l 1,70,-1
 1536 640 l 1,71,-1
 1536 768 l 1,72,-1
 1408 768 l 1,73,-1
 1408 640 l 1,74,-1
 1280 640 l 1,75,-1
 1280 768 l 1,76,-1
 1280 896 l 1,77,-1
 1152 896 l 1,78,-1
 1152 1024 l 1,79,-1
 1024 1024 l 1,80,-1
 896 1024 l 1,81,-1
 768 1024 l 1,82,-1
 640 1024 l 1,44,-1
1664 128 m 1,83,-1
 1792 128 l 1,84,-1
 1792 0 l 1,85,-1
 1664 0 l 1,86,-1
 1664 128 l 1,83,-1
1536 0 m 1,87,-1
 1664 0 l 1,88,-1
 1664 -128 l 1,89,-1
 1536 -128 l 1,90,-1
 1536 0 l 1,87,-1
1536 256 m 1,91,-1
 1664 256 l 1,92,-1
 1664 128 l 1,93,-1
 1536 128 l 1,94,-1
 1536 256 l 1,91,-1
1408 128 m 1,95,-1
 1536 128 l 1,96,-1
 1536 0 l 1,97,-1
 1408 0 l 1,98,-1
 1408 128 l 1,95,-1
1280 0 m 1,99,-1
 1408 0 l 1,100,-1
 1408 -128 l 1,101,-1
 1280 -128 l 1,102,-1
 1280 0 l 1,99,-1
1024 0 m 1,103,-1
 1152 0 l 1,104,-1
 1152 -128 l 1,105,-1
 1024 -128 l 1,106,-1
 1024 0 l 1,103,-1
1152 128 m 1,107,-1
 1280 128 l 1,108,-1
 1280 0 l 1,109,-1
 1152 0 l 1,110,-1
 1152 128 l 1,107,-1
1280 256 m 1,111,-1
 1408 256 l 1,112,-1
 1408 128 l 1,113,-1
 1280 128 l 1,114,-1
 1280 256 l 1,111,-1
1408 384 m 1,115,-1
 1536 384 l 1,116,-1
 1536 256 l 1,117,-1
 1408 256 l 1,118,-1
 1408 384 l 1,115,-1
1280 512 m 1,119,-1
 1408 512 l 1,120,-1
 1408 384 l 1,121,-1
 1280 384 l 1,122,-1
 1280 512 l 1,119,-1
1152 384 m 1,123,-1
 1280 384 l 1,124,-1
 1280 256 l 1,125,-1
 1152 256 l 1,126,-1
 1152 384 l 1,123,-1
1024 256 m 1,127,-1
 1152 256 l 1,128,-1
 1152 128 l 1,129,-1
 1024 128 l 1,130,-1
 1024 256 l 1,127,-1
768 0 m 1,131,-1
 896 0 l 1,132,-1
 896 -128 l 1,133,-1
 768 -128 l 1,134,-1
 768 0 l 1,131,-1
896 128 m 1,135,-1
 1024 128 l 1,136,-1
 1024 0 l 1,137,-1
 896 0 l 1,138,-1
 896 128 l 1,135,-1
EndSplineSet
EndChar

StartChar: Egrave
Encoding: 200 200 128
Width: 2048
GlyphClass: 2
Flags: W
LayerCount: 2
Fore
SplineSet
1024 1664 m 1,0,-1
 1152 1664 l 1,1,-1
 1152 1536 l 1,2,-1
 1024 1536 l 1,3,-1
 1024 1664 l 1,0,-1
1152 1536 m 1,4,-1
 1280 1536 l 1,5,-1
 1280 1408 l 1,6,-1
 1152 1408 l 1,7,-1
 1152 1536 l 1,4,-1
1152 1408 m 1,8,-1
 1152 1280 l 1,9,-1
 1024 1280 l 1,10,-1
 1024 1152 l 1,11,-1
 1152 1152 l 1,12,-1
 1152 1024 l 1,13,-1
 1024 1024 l 1,14,-1
 1024 896 l 1,15,-1
 1152 896 l 1,16,-1
 1152 768 l 1,17,-1
 1024 768 l 1,18,-1
 1024 640 l 1,19,-1
 1152 640 l 1,20,-1
 1152 512 l 1,21,-1
 1024 512 l 1,22,-1
 1024 384 l 1,23,-1
 896 384 l 1,24,-1
 896 256 l 1,25,-1
 768 256 l 1,26,-1
 768 128 l 1,27,-1
 384 128 l 1,28,-1
 384 256 l 1,29,-1
 256 256 l 1,30,-1
 256 384 l 1,31,-1
 384 384 l 1,32,-1
 384 512 l 1,33,-1
 512 512 l 1,34,-1
 512 640 l 1,35,-1
 512 768 l 1,36,-1
 640 768 l 1,37,-1
 640 896 l 1,38,-1
 640 1024 l 1,39,-1
 768 1024 l 1,40,-1
 768 1152 l 1,41,-1
 768 1280 l 1,42,-1
 896 1280 l 1,43,-1
 896 1408 l 1,44,-1
 896 1536 l 1,45,-1
 1024 1536 l 1,46,-1
 1024 1408 l 1,47,-1
 1152 1408 l 1,8,-1
1152 1280 m 1,48,-1
 1280 1280 l 1,49,-1
 1280 1152 l 1,50,-1
 1152 1152 l 1,51,-1
 1152 1280 l 1,48,-1
1280 1152 m 1,52,-1
 1408 1152 l 1,53,-1
 1408 1024 l 1,54,-1
 1280 1024 l 1,55,-1
 1280 1152 l 1,52,-1
1408 1024 m 1,56,-1
 1536 1024 l 1,57,-1
 1536 896 l 1,58,-1
 1408 896 l 1,59,-1
 1408 1024 l 1,56,-1
1408 896 m 1,60,-1
 1408 768 l 1,61,-1
 1280 768 l 1,62,-1
 1280 896 l 1,63,-1
 1408 896 l 1,60,-1
1408 768 m 1,64,-1
 1536 768 l 1,65,-1
 1536 640 l 1,66,-1
 1408 640 l 1,67,-1
 1408 768 l 1,64,-1
1536 640 m 1,68,-1
 1664 640 l 1,69,-1
 1664 512 l 1,70,-1
 1536 512 l 1,71,-1
 1536 640 l 1,68,-1
1664 512 m 1,72,-1
 1792 512 l 1,73,-1
 1792 384 l 1,74,-1
 1664 384 l 1,75,-1
 1664 512 l 1,72,-1
1792 384 m 1,76,-1
 1920 384 l 1,77,-1
 1920 256 l 1,78,-1
 1792 256 l 1,79,-1
 1792 384 l 1,76,-1
1792 256 m 1,80,-1
 1792 128 l 1,81,-1
 1664 128 l 1,82,-1
 1664 256 l 1,83,-1
 1792 256 l 1,80,-1
1664 256 m 1,84,-1
 1536 256 l 1,85,-1
 1536 384 l 1,86,-1
 1664 384 l 1,87,-1
 1664 256 l 1,84,-1
1536 256 m 1,88,-1
 1536 128 l 1,89,-1
 1408 128 l 1,90,-1
 1408 256 l 1,91,-1
 1536 256 l 1,88,-1
1408 256 m 1,92,-1
 1280 256 l 1,93,-1
 1280 384 l 1,94,-1
 1408 384 l 1,95,-1
 1408 256 l 1,92,-1
1280 256 m 1,96,-1
 1280 128 l 1,97,-1
 1152 128 l 1,98,-1
 1152 256 l 1,99,-1
 1280 256 l 1,96,-1
1152 256 m 1,100,-1
 1024 256 l 1,101,-1
 1024 384 l 1,102,-1
 1152 384 l 1,103,-1
 1152 256 l 1,100,-1
1024 256 m 1,104,-1
 1024 128 l 1,105,-1
 896 128 l 1,106,-1
 896 256 l 1,107,-1
 1024 256 l 1,104,-1
1152 384 m 1,108,-1
 1152 512 l 1,109,-1
 1280 512 l 1,110,-1
 1280 384 l 1,111,-1
 1152 384 l 1,108,-1
1280 512 m 1,112,-1
 1280 640 l 1,113,-1
 1408 640 l 1,114,-1
 1408 512 l 1,115,-1
 1280 512 l 1,112,-1
1280 640 m 1,116,-1
 1152 640 l 1,117,-1
 1152 768 l 1,118,-1
 1280 768 l 1,119,-1
 1280 640 l 1,116,-1
1408 512 m 1,120,-1
 1536 512 l 1,121,-1
 1536 384 l 1,122,-1
 1408 384 l 1,123,-1
 1408 512 l 1,120,-1
1280 896 m 1,124,-1
 1152 896 l 1,125,-1
 1152 1024 l 1,126,-1
 1280 1024 l 1,127,-1
 1280 896 l 1,124,-1
1024 0 m 1,128,-1
 1152 0 l 1,129,-1
 1152 -256 l 1,130,-1
 1024 -256 l 1,131,-1
 1024 0 l 1,128,-1
EndSplineSet
EndChar

StartChar: Ntilde
Encoding: 209 209 129
Width: 2048
GlyphClass: 2
Flags: W
LayerCount: 2
Fore
SplineSet
768 1664 m 1,0,-1
 1280 1664 l 1,1,-1
 1280 1536 l 1,2,-1
 1536 1536 l 1,3,-1
 1536 1408 l 1,4,-1
 1664 1408 l 1,5,-1
 1664 1280 l 1,6,-1
 1792 1280 l 1,7,-1
 1792 1024 l 1,8,-1
 1920 1024 l 1,9,-1
 1920 0 l 1,10,-1
 1792 0 l 1,11,-1
 1792 -128 l 1,12,-1
 1536 -128 l 1,13,-1
 1536 -256 l 1,14,-1
 1152 -256 l 1,15,-1
 1152 -128 l 1,16,-1
 1152 256 l 1,17,-1
 1280 256 l 1,18,-1
 1280 384 l 1,19,-1
 1408 384 l 1,20,-1
 1408 512 l 1,21,-1
 1536 512 l 1,22,-1
 1536 640 l 1,23,-1
 1664 640 l 1,24,-1
 1664 896 l 1,25,-1
 1536 896 l 1,26,-1
 1536 1024 l 1,27,-1
 1408 1024 l 1,28,-1
 1408 896 l 1,29,-1
 1280 896 l 1,30,-1
 1280 768 l 1,31,-1
 768 768 l 1,32,-1
 768 896 l 1,33,-1
 640 896 l 1,34,-1
 640 1024 l 1,35,-1
 512 1024 l 1,36,-1
 512 896 l 1,37,-1
 384 896 l 1,38,-1
 384 640 l 1,39,-1
 512 640 l 1,40,-1
 512 512 l 1,41,-1
 640 512 l 1,42,-1
 640 384 l 1,43,-1
 768 384 l 1,44,-1
 768 256 l 1,45,-1
 896 256 l 1,46,-1
 896 -128 l 1,47,-1
 896 -256 l 1,48,-1
 512 -256 l 1,49,-1
 512 -128 l 1,50,-1
 256 -128 l 1,51,-1
 256 0 l 1,52,-1
 128 0 l 1,53,-1
 128 1024 l 1,54,-1
 256 1024 l 1,55,-1
 256 1280 l 1,56,-1
 384 1280 l 1,57,-1
 384 1408 l 1,58,-1
 512 1408 l 1,59,-1
 512 1536 l 1,60,-1
 768 1536 l 1,61,-1
 768 1664 l 1,0,-1
EndSplineSet
EndChar

StartChar: Udieresis
Encoding: 220 220 130
Width: 2048
GlyphClass: 2
Flags: W
LayerCount: 2
Fore
SplineSet
0 1792 m 1,0,-1
 2048 1792 l 1,1,-1
 2048 -256 l 1,2,-1
 0 -256 l 1,3,-1
 0 -128 l 1,4,-1
 128 -128 l 1,5,-1
 1792 -128 l 1,6,-1
 1920 -128 l 1,7,-1
 1920 1536 l 1,8,-1
 1792 1536 l 1,9,-1
 128 1536 l 1,10,-1
 0 1536 l 1,11,-1
 0 1792 l 1,0,-1
128 1408 m 1,12,-1
 1792 1408 l 1,13,-1
 1792 0 l 1,14,-1
 128 0 l 1,15,-1
 128 1408 l 1,12,-1
512 1152 m 1,16,-1
 512 896 l 1,17,-1
 256 896 l 1,18,-1
 256 768 l 1,19,-1
 512 768 l 1,20,-1
 512 512 l 1,21,-1
 256 512 l 1,22,-1
 256 384 l 1,23,-1
 512 384 l 1,24,-1
 512 128 l 1,25,-1
 640 128 l 1,26,-1
 640 384 l 1,27,-1
 896 384 l 1,28,-1
 896 128 l 1,29,-1
 1024 128 l 1,30,-1
 1024 384 l 1,31,-1
 1280 384 l 1,32,-1
 1280 128 l 1,33,-1
 1408 128 l 1,34,-1
 1408 384 l 1,35,-1
 1664 384 l 1,36,-1
 1664 512 l 1,37,-1
 1408 512 l 1,38,-1
 1408 768 l 1,39,-1
 1664 768 l 1,40,-1
 1664 896 l 1,41,-1
 1408 896 l 1,42,-1
 1408 1152 l 1,43,-1
 1280 1152 l 1,44,-1
 1280 896 l 1,45,-1
 1024 896 l 1,46,-1
 1024 1152 l 1,47,-1
 896 1152 l 1,48,-1
 896 896 l 1,49,-1
 640 896 l 1,50,-1
 640 1152 l 1,51,-1
 512 1152 l 1,16,-1
640 768 m 1,52,-1
 896 768 l 1,53,-1
 896 512 l 1,54,-1
 640 512 l 1,55,-1
 640 768 l 1,52,-1
1024 768 m 1,56,-1
 1280 768 l 1,57,-1
 1280 512 l 1,58,-1
 1024 512 l 1,59,-1
 1024 768 l 1,56,-1
EndSplineSet
EndChar

StartChar: Yacute
Encoding: 221 221 131
Width: 2048
GlyphClass: 2
Flags: W
LayerCount: 2
Fore
SplineSet
256 0 m 1,0,-1
 256 128 l 1,1,-1
 384 128 l 1,2,-1
 384 0 l 1,3,-1
 256 0 l 1,0,-1
384 -128 m 1,4,-1
 384 0 l 1,5,-1
 512 0 l 1,6,-1
 512 -128 l 1,7,-1
 384 -128 l 1,4,-1
512 -128 m 1,8,-1
 512 0 l 1,9,-1
 640 0 l 1,10,-1
 640 -128 l 1,11,-1
 512 -128 l 1,8,-1
640 -256 m 1,12,-1
 640 -128 l 1,13,-1
 768 -128 l 1,14,-1
 768 -256 l 1,15,-1
 640 -256 l 1,12,-1
768 -256 m 1,16,-1
 768 -128 l 1,17,-1
 896 -128 l 1,18,-1
 896 -256 l 1,19,-1
 768 -256 l 1,16,-1
896 -256 m 1,20,-1
 896 -128 l 1,21,-1
 1024 -128 l 1,22,-1
 1024 -256 l 1,23,-1
 896 -256 l 1,20,-1
1792 0 m 1,24,-1
 1664 0 l 1,25,-1
 1664 128 l 1,26,-1
 1792 128 l 1,27,-1
 1792 0 l 1,24,-1
1664 -128 m 1,28,-1
 1536 -128 l 1,29,-1
 1536 0 l 1,30,-1
 1664 0 l 1,31,-1
 1664 -128 l 1,28,-1
1536 -128 m 1,32,-1
 1408 -128 l 1,33,-1
 1408 0 l 1,34,-1
 1536 0 l 1,35,-1
 1536 -128 l 1,32,-1
1408 -256 m 1,36,-1
 1280 -256 l 1,37,-1
 1280 -128 l 1,38,-1
 1408 -128 l 1,39,-1
 1408 -256 l 1,36,-1
1280 -256 m 1,40,-1
 1152 -256 l 1,41,-1
 1152 -128 l 1,42,-1
 1280 -128 l 1,43,-1
 1280 -256 l 1,40,-1
1152 -256 m 1,44,-1
 1024 -256 l 1,45,-1
 1024 -128 l 1,46,-1
 1152 -128 l 1,47,-1
 1152 -256 l 1,44,-1
256 128 m 1,48,-1
 128 128 l 1,49,-1
 128 256 l 1,50,-1
 256 256 l 1,51,-1
 256 128 l 1,48,-1
256 256 m 1,52,-1
 128 256 l 1,53,-1
 128 384 l 1,54,-1
 256 384 l 1,55,-1
 256 256 l 1,52,-1
256 384 m 1,56,-1
 128 384 l 1,57,-1
 128 512 l 1,58,-1
 256 512 l 1,59,-1
 256 384 l 1,56,-1
256 896 m 1,60,-1
 256 768 l 1,61,-1
 128 768 l 1,62,-1
 128 896 l 1,63,-1
 256 896 l 1,60,-1
256 768 m 1,64,-1
 256 640 l 1,65,-1
 128 640 l 1,66,-1
 128 768 l 1,67,-1
 256 768 l 1,64,-1
256 640 m 1,68,-1
 256 512 l 1,69,-1
 128 512 l 1,70,-1
 128 640 l 1,71,-1
 256 640 l 1,68,-1
1920 128 m 1,72,-1
 1792 128 l 1,73,-1
 1792 256 l 1,74,-1
 1920 256 l 1,75,-1
 1920 128 l 1,72,-1
1920 256 m 1,76,-1
 1792 256 l 1,77,-1
 1792 384 l 1,78,-1
 1920 384 l 1,79,-1
 1920 256 l 1,76,-1
1920 384 m 1,80,-1
 1792 384 l 1,81,-1
 1792 512 l 1,82,-1
 1920 512 l 1,83,-1
 1920 384 l 1,80,-1
1920 896 m 1,84,-1
 1920 768 l 1,85,-1
 1792 768 l 1,86,-1
 1792 896 l 1,87,-1
 1920 896 l 1,84,-1
1920 768 m 1,88,-1
 1920 640 l 1,89,-1
 1792 640 l 1,90,-1
 1792 768 l 1,91,-1
 1920 768 l 1,88,-1
1920 640 m 1,92,-1
 1920 512 l 1,93,-1
 1792 512 l 1,94,-1
 1792 640 l 1,95,-1
 1920 640 l 1,92,-1
256 896 m 1,96,-1
 128 896 l 1,97,-1
 128 1024 l 1,98,-1
 256 1024 l 1,99,-1
 256 896 l 1,96,-1
256 1024 m 1,100,-1
 128 1024 l 1,101,-1
 128 1152 l 1,102,-1
 256 1152 l 1,103,-1
 256 1024 l 1,100,-1
256 1152 m 1,104,-1
 128 1152 l 1,105,-1
 128 1280 l 1,106,-1
 256 1280 l 1,107,-1
 256 1152 l 1,104,-1
256 1408 m 1,108,-1
 256 1280 l 1,109,-1
 128 1280 l 1,110,-1
 128 1408 l 1,111,-1
 256 1408 l 1,108,-1
1920 896 m 1,112,-1
 1792 896 l 1,113,-1
 1792 1024 l 1,114,-1
 1920 1024 l 1,115,-1
 1920 896 l 1,112,-1
1920 1024 m 1,116,-1
 1792 1024 l 1,117,-1
 1792 1152 l 1,118,-1
 1920 1152 l 1,119,-1
 1920 1024 l 1,116,-1
1920 1152 m 1,120,-1
 1792 1152 l 1,121,-1
 1792 1280 l 1,122,-1
 1920 1280 l 1,123,-1
 1920 1152 l 1,120,-1
1920 1408 m 1,124,-1
 1920 1280 l 1,125,-1
 1792 1280 l 1,126,-1
 1792 1408 l 1,127,-1
 1920 1408 l 1,124,-1
256 1280 m 1,128,-1
 256 1408 l 1,129,-1
 384 1408 l 1,130,-1
 384 1280 l 1,131,-1
 256 1280 l 1,128,-1
384 1152 m 1,132,-1
 384 1280 l 1,133,-1
 512 1280 l 1,134,-1
 512 1152 l 1,135,-1
 384 1152 l 1,132,-1
512 1152 m 1,136,-1
 512 1280 l 1,137,-1
 640 1280 l 1,138,-1
 640 1152 l 1,139,-1
 512 1152 l 1,136,-1
640 1024 m 1,140,-1
 640 1152 l 1,141,-1
 768 1152 l 1,142,-1
 768 1024 l 1,143,-1
 640 1024 l 1,140,-1
768 1024 m 1,144,-1
 768 1152 l 1,145,-1
 896 1152 l 1,146,-1
 896 1024 l 1,147,-1
 768 1024 l 1,144,-1
896 1024 m 1,148,-1
 896 1152 l 1,149,-1
 1024 1152 l 1,150,-1
 1024 1024 l 1,151,-1
 896 1024 l 1,148,-1
1792 1280 m 1,152,-1
 1664 1280 l 1,153,-1
 1664 1408 l 1,154,-1
 1792 1408 l 1,155,-1
 1792 1280 l 1,152,-1
1664 1152 m 1,156,-1
 1536 1152 l 1,157,-1
 1536 1280 l 1,158,-1
 1664 1280 l 1,159,-1
 1664 1152 l 1,156,-1
1536 1152 m 1,160,-1
 1408 1152 l 1,161,-1
 1408 1280 l 1,162,-1
 1536 1280 l 1,163,-1
 1536 1152 l 1,160,-1
1408 1024 m 1,164,-1
 1280 1024 l 1,165,-1
 1280 1152 l 1,166,-1
 1408 1152 l 1,167,-1
 1408 1024 l 1,164,-1
1280 1024 m 1,168,-1
 1152 1024 l 1,169,-1
 1152 1152 l 1,170,-1
 1280 1152 l 1,171,-1
 1280 1024 l 1,168,-1
1152 1024 m 1,172,-1
 1024 1024 l 1,173,-1
 1024 1152 l 1,174,-1
 1152 1152 l 1,175,-1
 1152 1024 l 1,172,-1
256 1536 m 1,176,-1
 384 1536 l 1,177,-1
 384 1408 l 1,178,-1
 256 1408 l 1,179,-1
 256 1536 l 1,176,-1
384 1664 m 1,180,-1
 512 1664 l 1,181,-1
 512 1536 l 1,182,-1
 384 1536 l 1,183,-1
 384 1664 l 1,180,-1
512 1664 m 1,184,-1
 640 1664 l 1,185,-1
 640 1536 l 1,186,-1
 512 1536 l 1,187,-1
 512 1664 l 1,184,-1
640 1792 m 1,188,-1
 768 1792 l 1,189,-1
 768 1664 l 1,190,-1
 640 1664 l 1,191,-1
 640 1792 l 1,188,-1
768 1792 m 1,192,-1
 896 1792 l 1,193,-1
 896 1664 l 1,194,-1
 768 1664 l 1,195,-1
 768 1792 l 1,192,-1
896 1792 m 1,196,-1
 1024 1792 l 1,197,-1
 1024 1664 l 1,198,-1
 896 1664 l 1,199,-1
 896 1792 l 1,196,-1
1792 1536 m 1,200,-1
 1792 1408 l 1,201,-1
 1664 1408 l 1,202,-1
 1664 1536 l 1,203,-1
 1792 1536 l 1,200,-1
1664 1664 m 1,204,-1
 1664 1536 l 1,205,-1
 1536 1536 l 1,206,-1
 1536 1664 l 1,207,-1
 1664 1664 l 1,204,-1
1536 1664 m 1,208,-1
 1536 1536 l 1,209,-1
 1408 1536 l 1,210,-1
 1408 1664 l 1,211,-1
 1536 1664 l 1,208,-1
1408 1792 m 1,212,-1
 1408 1664 l 1,213,-1
 1280 1664 l 1,214,-1
 1280 1792 l 1,215,-1
 1408 1792 l 1,212,-1
1280 1792 m 1,216,-1
 1280 1664 l 1,217,-1
 1152 1664 l 1,218,-1
 1152 1792 l 1,219,-1
 1280 1792 l 1,216,-1
1152 1792 m 1,220,-1
 1152 1664 l 1,221,-1
 1024 1664 l 1,222,-1
 1024 1792 l 1,223,-1
 1152 1792 l 1,220,-1
256 640 m 1,224,-1
 256 768 l 1,225,-1
 384 768 l 1,226,-1
 384 640 l 1,227,-1
 256 640 l 1,224,-1
384 512 m 1,228,-1
 384 640 l 1,229,-1
 512 640 l 1,230,-1
 512 512 l 1,231,-1
 384 512 l 1,228,-1
512 512 m 1,232,-1
 512 640 l 1,233,-1
 640 640 l 1,234,-1
 640 512 l 1,235,-1
 512 512 l 1,232,-1
640 384 m 1,236,-1
 640 512 l 1,237,-1
 768 512 l 1,238,-1
 768 384 l 1,239,-1
 640 384 l 1,236,-1
768 384 m 1,240,-1
 768 512 l 1,241,-1
 896 512 l 1,242,-1
 896 384 l 1,243,-1
 768 384 l 1,240,-1
896 384 m 1,244,-1
 896 512 l 1,245,-1
 1024 512 l 1,246,-1
 1024 384 l 1,247,-1
 896 384 l 1,244,-1
1792 640 m 1,248,-1
 1664 640 l 1,249,-1
 1664 768 l 1,250,-1
 1792 768 l 1,251,-1
 1792 640 l 1,248,-1
1664 512 m 1,252,-1
 1536 512 l 1,253,-1
 1536 640 l 1,254,-1
 1664 640 l 1,255,-1
 1664 512 l 1,252,-1
1536 512 m 1,256,-1
 1408 512 l 1,257,-1
 1408 640 l 1,258,-1
 1536 640 l 1,259,-1
 1536 512 l 1,256,-1
1408 384 m 1,260,-1
 1280 384 l 1,261,-1
 1280 512 l 1,262,-1
 1408 512 l 1,263,-1
 1408 384 l 1,260,-1
1280 384 m 1,264,-1
 1152 384 l 1,265,-1
 1152 512 l 1,266,-1
 1280 512 l 1,267,-1
 1280 384 l 1,264,-1
1152 384 m 1,268,-1
 1024 384 l 1,269,-1
 1024 512 l 1,270,-1
 1152 512 l 1,271,-1
 1152 384 l 1,268,-1
256 768 m 1,272,-1
 256 896 l 1,273,-1
 384 896 l 1,274,-1
 384 768 l 1,275,-1
 256 768 l 1,272,-1
384 640 m 1,276,-1
 384 768 l 1,277,-1
 512 768 l 1,278,-1
 512 640 l 1,279,-1
 384 640 l 1,276,-1
512 640 m 1,280,-1
 512 768 l 1,281,-1
 640 768 l 1,282,-1
 640 640 l 1,283,-1
 512 640 l 1,280,-1
640 512 m 1,284,-1
 640 640 l 1,285,-1
 768 640 l 1,286,-1
 768 512 l 1,287,-1
 640 512 l 1,284,-1
768 512 m 1,288,-1
 768 640 l 1,289,-1
 896 640 l 1,290,-1
 896 512 l 1,291,-1
 768 512 l 1,288,-1
896 512 m 1,292,-1
 896 640 l 1,293,-1
 1024 640 l 1,294,-1
 1024 512 l 1,295,-1
 896 512 l 1,292,-1
1792 768 m 1,296,-1
 1664 768 l 1,297,-1
 1664 896 l 1,298,-1
 1792 896 l 1,299,-1
 1792 768 l 1,296,-1
1664 640 m 1,300,-1
 1536 640 l 1,301,-1
 1536 768 l 1,302,-1
 1664 768 l 1,303,-1
 1664 640 l 1,300,-1
1536 640 m 1,304,-1
 1408 640 l 1,305,-1
 1408 768 l 1,306,-1
 1536 768 l 1,307,-1
 1536 640 l 1,304,-1
1408 512 m 1,308,-1
 1280 512 l 1,309,-1
 1280 640 l 1,310,-1
 1408 640 l 1,311,-1
 1408 512 l 1,308,-1
1280 512 m 1,312,-1
 1152 512 l 1,313,-1
 1152 640 l 1,314,-1
 1280 640 l 1,315,-1
 1280 512 l 1,312,-1
1152 512 m 1,316,-1
 1024 512 l 1,317,-1
 1024 640 l 1,318,-1
 1152 640 l 1,319,-1
 1152 512 l 1,316,-1
256 128 m 1,320,-1
 256 256 l 1,321,-1
 384 256 l 1,322,-1
 384 128 l 1,323,-1
 256 128 l 1,320,-1
384 0 m 1,324,-1
 384 128 l 1,325,-1
 512 128 l 1,326,-1
 512 0 l 1,327,-1
 384 0 l 1,324,-1
512 0 m 1,328,-1
 512 128 l 1,329,-1
 640 128 l 1,330,-1
 640 0 l 1,331,-1
 512 0 l 1,328,-1
640 -128 m 1,332,-1
 640 0 l 1,333,-1
 768 0 l 1,334,-1
 768 -128 l 1,335,-1
 640 -128 l 1,332,-1
768 -128 m 1,336,-1
 768 0 l 1,337,-1
 896 0 l 1,338,-1
 896 -128 l 1,339,-1
 768 -128 l 1,336,-1
896 -128 m 1,340,-1
 896 0 l 1,341,-1
 1024 0 l 1,342,-1
 1024 -128 l 1,343,-1
 896 -128 l 1,340,-1
1792 128 m 1,344,-1
 1664 128 l 1,345,-1
 1664 256 l 1,346,-1
 1792 256 l 1,347,-1
 1792 128 l 1,344,-1
1664 0 m 1,348,-1
 1536 0 l 1,349,-1
 1536 128 l 1,350,-1
 1664 128 l 1,351,-1
 1664 0 l 1,348,-1
1536 0 m 1,352,-1
 1408 0 l 1,353,-1
 1408 128 l 1,354,-1
 1536 128 l 1,355,-1
 1536 0 l 1,352,-1
1408 -128 m 1,356,-1
 1280 -128 l 1,357,-1
 1280 0 l 1,358,-1
 1408 0 l 1,359,-1
 1408 -128 l 1,356,-1
1280 -128 m 1,360,-1
 1152 -128 l 1,361,-1
 1152 0 l 1,362,-1
 1280 0 l 1,363,-1
 1280 -128 l 1,360,-1
1152 -128 m 1,364,-1
 1024 -128 l 1,365,-1
 1024 0 l 1,366,-1
 1152 0 l 1,367,-1
 1152 -128 l 1,364,-1
256 1152 m 1,368,-1
 256 1280 l 1,369,-1
 384 1280 l 1,370,-1
 384 1152 l 1,371,-1
 256 1152 l 1,368,-1
384 1024 m 1,372,-1
 384 1152 l 1,373,-1
 512 1152 l 1,374,-1
 512 1024 l 1,375,-1
 384 1024 l 1,372,-1
512 1024 m 1,376,-1
 512 1152 l 1,377,-1
 640 1152 l 1,378,-1
 640 1024 l 1,379,-1
 512 1024 l 1,376,-1
640 896 m 1,380,-1
 640 1024 l 1,381,-1
 768 1024 l 1,382,-1
 768 896 l 1,383,-1
 640 896 l 1,380,-1
768 896 m 1,384,-1
 768 1024 l 1,385,-1
 896 1024 l 1,386,-1
 896 896 l 1,387,-1
 768 896 l 1,384,-1
896 896 m 1,388,-1
 896 1024 l 1,389,-1
 1024 1024 l 1,390,-1
 1024 896 l 1,391,-1
 896 896 l 1,388,-1
1792 1152 m 1,392,-1
 1664 1152 l 1,393,-1
 1664 1280 l 1,394,-1
 1792 1280 l 1,395,-1
 1792 1152 l 1,392,-1
1664 1024 m 1,396,-1
 1536 1024 l 1,397,-1
 1536 1152 l 1,398,-1
 1664 1152 l 1,399,-1
 1664 1024 l 1,396,-1
1536 1024 m 1,400,-1
 1408 1024 l 1,401,-1
 1408 1152 l 1,402,-1
 1536 1152 l 1,403,-1
 1536 1024 l 1,400,-1
1408 896 m 1,404,-1
 1280 896 l 1,405,-1
 1280 1024 l 1,406,-1
 1408 1024 l 1,407,-1
 1408 896 l 1,404,-1
1280 896 m 1,408,-1
 1152 896 l 1,409,-1
 1152 1024 l 1,410,-1
 1280 1024 l 1,411,-1
 1280 896 l 1,408,-1
1152 896 m 1,412,-1
 1024 896 l 1,413,-1
 1024 1024 l 1,414,-1
 1152 1024 l 1,415,-1
 1152 896 l 1,412,-1
256 256 m 1,416,-1
 256 384 l 1,417,-1
 384 384 l 1,418,-1
 384 256 l 1,419,-1
 256 256 l 1,416,-1
384 128 m 1,420,-1
 384 256 l 1,421,-1
 512 256 l 1,422,-1
 512 128 l 1,423,-1
 384 128 l 1,420,-1
512 128 m 1,424,-1
 512 256 l 1,425,-1
 640 256 l 1,426,-1
 640 128 l 1,427,-1
 512 128 l 1,424,-1
640 0 m 1,428,-1
 640 128 l 1,429,-1
 768 128 l 1,430,-1
 768 0 l 1,431,-1
 640 0 l 1,428,-1
768 0 m 1,432,-1
 768 128 l 1,433,-1
 896 128 l 1,434,-1
 896 0 l 1,435,-1
 768 0 l 1,432,-1
896 0 m 1,436,-1
 896 128 l 1,437,-1
 1024 128 l 1,438,-1
 1024 0 l 1,439,-1
 896 0 l 1,436,-1
1792 256 m 1,440,-1
 1664 256 l 1,441,-1
 1664 384 l 1,442,-1
 1792 384 l 1,443,-1
 1792 256 l 1,440,-1
1664 128 m 1,444,-1
 1536 128 l 1,445,-1
 1536 256 l 1,446,-1
 1664 256 l 1,447,-1
 1664 128 l 1,444,-1
1536 128 m 1,448,-1
 1408 128 l 1,449,-1
 1408 256 l 1,450,-1
 1536 256 l 1,451,-1
 1536 128 l 1,448,-1
1408 0 m 1,452,-1
 1280 0 l 1,453,-1
 1280 128 l 1,454,-1
 1408 128 l 1,455,-1
 1408 0 l 1,452,-1
1280 0 m 1,456,-1
 1152 0 l 1,457,-1
 1152 128 l 1,458,-1
 1280 128 l 1,459,-1
 1280 0 l 1,456,-1
1152 0 m 1,460,-1
 1024 0 l 1,461,-1
 1024 128 l 1,462,-1
 1152 128 l 1,463,-1
 1152 0 l 1,460,-1
256 384 m 1,464,-1
 256 512 l 1,465,-1
 384 512 l 1,466,-1
 384 384 l 1,467,-1
 256 384 l 1,464,-1
384 256 m 1,468,-1
 384 384 l 1,469,-1
 512 384 l 1,470,-1
 512 256 l 1,471,-1
 384 256 l 1,468,-1
512 256 m 1,472,-1
 512 384 l 1,473,-1
 640 384 l 1,474,-1
 640 256 l 1,475,-1
 512 256 l 1,472,-1
640 128 m 1,476,-1
 640 256 l 1,477,-1
 768 256 l 1,478,-1
 768 128 l 1,479,-1
 640 128 l 1,476,-1
768 128 m 1,480,-1
 768 256 l 1,481,-1
 896 256 l 1,482,-1
 896 128 l 1,483,-1
 768 128 l 1,480,-1
896 128 m 1,484,-1
 896 256 l 1,485,-1
 1024 256 l 1,486,-1
 1024 128 l 1,487,-1
 896 128 l 1,484,-1
1792 384 m 1,488,-1
 1664 384 l 1,489,-1
 1664 512 l 1,490,-1
 1792 512 l 1,491,-1
 1792 384 l 1,488,-1
1664 256 m 1,492,-1
 1536 256 l 1,493,-1
 1536 384 l 1,494,-1
 1664 384 l 1,495,-1
 1664 256 l 1,492,-1
1536 256 m 1,496,-1
 1408 256 l 1,497,-1
 1408 384 l 1,498,-1
 1536 384 l 1,499,-1
 1536 256 l 1,496,-1
1408 128 m 1,500,-1
 1280 128 l 1,501,-1
 1280 256 l 1,502,-1
 1408 256 l 1,503,-1
 1408 128 l 1,500,-1
1280 128 m 1,504,-1
 1152 128 l 1,505,-1
 1152 256 l 1,506,-1
 1280 256 l 1,507,-1
 1280 128 l 1,504,-1
1152 128 m 1,508,-1
 1024 128 l 1,509,-1
 1024 256 l 1,510,-1
 1152 256 l 1,511,-1
 1152 128 l 1,508,-1
256 896 m 1,512,-1
 256 1024 l 1,513,-1
 384 1024 l 1,514,-1
 384 896 l 1,515,-1
 256 896 l 1,512,-1
384 768 m 1,516,-1
 384 896 l 1,517,-1
 512 896 l 1,518,-1
 512 768 l 1,519,-1
 384 768 l 1,516,-1
512 768 m 1,520,-1
 512 896 l 1,521,-1
 640 896 l 1,522,-1
 640 768 l 1,523,-1
 512 768 l 1,520,-1
640 640 m 1,524,-1
 640 768 l 1,525,-1
 768 768 l 1,526,-1
 768 640 l 1,527,-1
 640 640 l 1,524,-1
768 640 m 1,528,-1
 768 768 l 1,529,-1
 896 768 l 1,530,-1
 896 640 l 1,531,-1
 768 640 l 1,528,-1
896 640 m 1,532,-1
 896 768 l 1,533,-1
 1024 768 l 1,534,-1
 1024 640 l 1,535,-1
 896 640 l 1,532,-1
1792 896 m 1,536,-1
 1664 896 l 1,537,-1
 1664 1024 l 1,538,-1
 1792 1024 l 1,539,-1
 1792 896 l 1,536,-1
1664 768 m 1,540,-1
 1536 768 l 1,541,-1
 1536 896 l 1,542,-1
 1664 896 l 1,543,-1
 1664 768 l 1,540,-1
1536 768 m 1,544,-1
 1408 768 l 1,545,-1
 1408 896 l 1,546,-1
 1536 896 l 1,547,-1
 1536 768 l 1,544,-1
1408 640 m 1,548,-1
 1280 640 l 1,549,-1
 1280 768 l 1,550,-1
 1408 768 l 1,551,-1
 1408 640 l 1,548,-1
1280 640 m 1,552,-1
 1152 640 l 1,553,-1
 1152 768 l 1,554,-1
 1280 768 l 1,555,-1
 1280 640 l 1,552,-1
1152 640 m 1,556,-1
 1024 640 l 1,557,-1
 1024 768 l 1,558,-1
 1152 768 l 1,559,-1
 1152 640 l 1,556,-1
384 1536 m 1,560,-1
 512 1536 l 1,561,-1
 512 1408 l 1,562,-1
 384 1408 l 1,563,-1
 384 1536 l 1,560,-1
1536 1536 m 1,564,-1
 1664 1536 l 1,565,-1
 1664 1408 l 1,566,-1
 1536 1408 l 1,567,-1
 1536 1536 l 1,564,-1
1280 1664 m 1,568,-1
 1408 1664 l 1,569,-1
 1408 1536 l 1,570,-1
 1280 1536 l 1,571,-1
 1280 1664 l 1,568,-1
640 1664 m 1,572,-1
 768 1664 l 1,573,-1
 768 1536 l 1,574,-1
 640 1536 l 1,575,-1
 640 1664 l 1,572,-1
512 1408 m 1,576,-1
 640 1408 l 1,577,-1
 640 1280 l 1,578,-1
 512 1280 l 1,579,-1
 512 1408 l 1,576,-1
640 1280 m 1,580,-1
 768 1280 l 1,581,-1
 768 1152 l 1,582,-1
 640 1152 l 1,583,-1
 640 1280 l 1,580,-1
640 1408 m 1,584,-1
 768 1408 l 1,585,-1
 768 1280 l 1,586,-1
 640 1280 l 1,587,-1
 640 1408 l 1,584,-1
768 1408 m 1,588,-1
 896 1408 l 1,589,-1
 896 1280 l 1,590,-1
 768 1280 l 1,591,-1
 768 1408 l 1,588,-1
768 1280 m 1,592,-1
 896 1280 l 1,593,-1
 896 1152 l 1,594,-1
 768 1152 l 1,595,-1
 768 1280 l 1,592,-1
896 1280 m 1,596,-1
 1024 1280 l 1,597,-1
 1024 1152 l 1,598,-1
 896 1152 l 1,599,-1
 896 1280 l 1,596,-1
896 1408 m 1,600,-1
 1024 1408 l 1,601,-1
 1024 1280 l 1,602,-1
 896 1280 l 1,603,-1
 896 1408 l 1,600,-1
1024 1408 m 1,604,-1
 1152 1408 l 1,605,-1
 1152 1280 l 1,606,-1
 1024 1280 l 1,607,-1
 1024 1408 l 1,604,-1
1024 1280 m 1,608,-1
 1152 1280 l 1,609,-1
 1152 1152 l 1,610,-1
 1024 1152 l 1,611,-1
 1024 1280 l 1,608,-1
1152 1280 m 1,612,-1
 1280 1280 l 1,613,-1
 1280 1152 l 1,614,-1
 1152 1152 l 1,615,-1
 1152 1280 l 1,612,-1
1152 1408 m 1,616,-1
 1280 1408 l 1,617,-1
 1280 1280 l 1,618,-1
 1152 1280 l 1,619,-1
 1152 1408 l 1,616,-1
1280 1408 m 1,620,-1
 1408 1408 l 1,621,-1
 1408 1280 l 1,622,-1
 1280 1280 l 1,623,-1
 1280 1408 l 1,620,-1
1280 1280 m 1,624,-1
 1408 1280 l 1,625,-1
 1408 1152 l 1,626,-1
 1280 1152 l 1,627,-1
 1280 1280 l 1,624,-1
1408 1408 m 1,628,-1
 1536 1408 l 1,629,-1
 1536 1280 l 1,630,-1
 1408 1280 l 1,631,-1
 1408 1408 l 1,628,-1
1152 1536 m 1,632,-1
 1280 1536 l 1,633,-1
 1280 1408 l 1,634,-1
 1152 1408 l 1,635,-1
 1152 1536 l 1,632,-1
1024 1536 m 1,636,-1
 1152 1536 l 1,637,-1
 1152 1408 l 1,638,-1
 1024 1408 l 1,639,-1
 1024 1536 l 1,636,-1
896 1536 m 1,640,-1
 1024 1536 l 1,641,-1
 1024 1408 l 1,642,-1
 896 1408 l 1,643,-1
 896 1536 l 1,640,-1
768 1536 m 1,644,-1
 896 1536 l 1,645,-1
 896 1408 l 1,646,-1
 768 1408 l 1,647,-1
 768 1536 l 1,644,-1
EndSplineSet
EndChar

StartChar: Thorn
Encoding: 222 222 132
Width: 2048
GlyphClass: 2
Flags: W
LayerCount: 2
Fore
SplineSet
768 1408 m 1,0,-1
 896 1408 l 1,1,-1
 896 1280 l 1,2,-1
 768 1280 l 1,3,-1
 768 1408 l 1,0,-1
512 1408 m 1,4,-1
 640 1408 l 1,5,-1
 640 1280 l 1,6,-1
 512 1280 l 1,7,-1
 512 1408 l 1,4,-1
1408 1408 m 1,8,-1
 1536 1408 l 1,9,-1
 1536 1280 l 1,10,-1
 1408 1280 l 1,11,-1
 1408 1408 l 1,8,-1
896 1536 m 1,12,-1
 896 1408 l 1,13,-1
 1024 1408 l 1,14,-1
 1024 1536 l 1,15,-1
 896 1536 l 1,12,-1
768 1536 m 1,16,-1
 896 1536 l 1,17,-1
 896 1408 l 1,18,-1
 768 1408 l 1,19,-1
 768 1536 l 1,16,-1
1152 1792 m 1,20,-1
 1152 1664 l 1,21,-1
 1280 1664 l 1,22,-1
 1280 1792 l 1,23,-1
 1152 1792 l 1,20,-1
1024 1792 m 1,24,-1
 1152 1792 l 1,25,-1
 1152 1664 l 1,26,-1
 1024 1664 l 1,27,-1
 1024 1792 l 1,24,-1
896 1792 m 1,28,-1
 896 1664 l 1,29,-1
 1024 1664 l 1,30,-1
 1024 1792 l 1,31,-1
 896 1792 l 1,28,-1
768 1792 m 1,32,-1
 896 1792 l 1,33,-1
 896 1664 l 1,34,-1
 768 1664 l 1,35,-1
 768 1792 l 1,32,-1
640 1664 m 1,36,-1
 768 1664 l 1,37,-1
 768 1536 l 1,38,-1
 640 1536 l 1,39,-1
 640 1664 l 1,36,-1
512 1536 m 1,40,-1
 640 1536 l 1,41,-1
 640 1408 l 1,42,-1
 512 1408 l 1,43,-1
 512 1536 l 1,40,-1
512 1280 m 1,44,-1
 640 1280 l 1,45,-1
 640 1152 l 1,46,-1
 512 1152 l 1,47,-1
 512 1280 l 1,44,-1
512 1152 m 1,48,-1
 640 1152 l 1,49,-1
 640 1024 l 1,50,-1
 512 1024 l 1,51,-1
 512 1152 l 1,48,-1
640 1024 m 1,52,-1
 768 1024 l 1,53,-1
 768 896 l 1,54,-1
 640 896 l 1,55,-1
 640 1024 l 1,52,-1
1280 1664 m 1,56,-1
 1408 1664 l 1,57,-1
 1408 1536 l 1,58,-1
 1280 1536 l 1,59,-1
 1280 1664 l 1,56,-1
1408 1536 m 1,60,-1
 1536 1536 l 1,61,-1
 1536 1408 l 1,62,-1
 1408 1408 l 1,63,-1
 1408 1536 l 1,60,-1
1408 1280 m 1,64,-1
 1536 1280 l 1,65,-1
 1536 1152 l 1,66,-1
 1408 1152 l 1,67,-1
 1408 1280 l 1,64,-1
1408 1152 m 1,68,-1
 1536 1152 l 1,69,-1
 1536 1024 l 1,70,-1
 1408 1024 l 1,71,-1
 1408 1152 l 1,68,-1
1280 1024 m 1,72,-1
 1408 1024 l 1,73,-1
 1408 896 l 1,74,-1
 1280 896 l 1,75,-1
 1280 1024 l 1,72,-1
0 1024 m 1,76,-1
 384 1024 l 1,77,-1
 384 896 l 1,78,-1
 512 896 l 1,79,-1
 512 768 l 1,80,-1
 640 768 l 1,81,-1
 640 640 l 1,82,-1
 768 640 l 1,83,-1
 896 640 l 1,84,-1
 1024 640 l 1,85,-1
 1152 640 l 1,86,-1
 1280 640 l 1,87,-1
 1408 640 l 1,88,-1
 1408 768 l 1,89,-1
 1536 768 l 1,90,-1
 1536 896 l 1,91,-1
 1664 896 l 1,92,-1
 1664 1024 l 1,93,-1
 2048 1024 l 1,94,-1
 2048 256 l 1,95,-1
 0 256 l 1,96,-1
 0 1024 l 1,76,-1
768 896 m 1,97,-1
 896 896 l 1,98,-1
 1024 896 l 1,99,-1
 1152 896 l 1,100,-1
 1280 896 l 1,101,-1
 1280 768 l 1,102,-1
 1152 768 l 1,103,-1
 1024 768 l 1,104,-1
 896 768 l 1,105,-1
 768 768 l 1,106,-1
 768 896 l 1,97,-1
256 128 m 1,107,-1
 1792 128 l 1,108,-1
 1792 0 l 1,109,-1
 256 0 l 1,110,-1
 256 128 l 1,107,-1
128 0 m 1,111,-1
 1920 0 l 1,112,-1
 1920 -128 l 1,113,-1
 128 -128 l 1,114,-1
 128 0 l 1,111,-1
0 -128 m 1,115,-1
 2048 -128 l 1,116,-1
 2048 -256 l 1,117,-1
 0 -256 l 1,118,-1
 0 -128 l 1,115,-1
EndSplineSet
EndChar

StartChar: SF100000
Encoding: 9472 9472 139
Width: 2048
GlyphClass: 2
Flags: W
LayerCount: 2
Fore
SplineSet
0 1152 m 1,0,-1
 2048 1152 l 1,1,-1
 2048 896 l 1,2,-1
 0 896 l 1,3,-1
 0 1152 l 1,0,-1
EndSplineSet
EndChar

StartChar: SF110000
Encoding: 9474 9474 140
Width: 2048
GlyphClass: 2
Flags: W
LayerCount: 2
Fore
SplineSet
896 1792 m 1,0,-1
 1152 1792 l 1,1,-1
 1152 -256 l 1,2,-1
 896 -256 l 1,3,-1
 896 1792 l 1,0,-1
EndSplineSet
EndChar

StartChar: SF010000
Encoding: 9484 9484 141
Width: 2048
GlyphClass: 2
Flags: W
LayerCount: 2
Fore
SplineSet
0 1152 m 1,0,-1
 0 898 l 1,1,-1
 0 1152 l 1,0,-1
2048 1152 m 1,2,-1
 2048 896 l 1,3,-1
 896 896 l 1,4,-1
 896 1152 l 1,5,-1
 2048 1152 l 1,2,-1
896 1152 m 1,6,-1
 1152 1152 l 1,7,-1
 1152 -256 l 1,8,-1
 896 -256 l 1,9,-1
 896 1152 l 1,6,-1
EndSplineSet
EndChar

StartChar: SF030000
Encoding: 9488 9488 142
Width: 2048
GlyphClass: 2
Flags: W
LayerCount: 2
Fore
SplineSet
2048 1151 m 1,0,-1
 2048 897 l 1,1,-1
 2048 1151 l 1,0,-1
1152 1152 m 1,2,-1
 1152 896 l 1,3,-1
 0 896 l 1,4,-1
 0 1152 l 1,5,-1
 1152 1152 l 1,2,-1
896 1152 m 1,6,-1
 1152 1152 l 1,7,-1
 1152 -256 l 1,8,-1
 896 -256 l 1,9,-1
 896 1152 l 1,6,-1
EndSplineSet
EndChar

StartChar: SF020000
Encoding: 9492 9492 143
Width: 2048
GlyphClass: 2
Flags: W
LayerCount: 2
Fore
SplineSet
0 1152 m 1,0,-1
 0 898 l 1,1,-1
 0 1152 l 1,0,-1
2048 1152 m 1,2,-1
 2048 896 l 1,3,-1
 896 896 l 1,4,-1
 896 1152 l 1,5,-1
 2048 1152 l 1,2,-1
896 1792 m 1,6,-1
 1152 1792 l 1,7,-1
 1152 895 l 1,8,-1
 896 895 l 1,9,-1
 896 1792 l 1,6,-1
EndSplineSet
EndChar

StartChar: SF040000
Encoding: 9496 9496 144
Width: 2048
GlyphClass: 2
Flags: W
LayerCount: 2
Fore
SplineSet
2048 1152 m 1,0,-1
 2048 898 l 1,1,-1
 2048 1152 l 1,0,-1
1152 1152 m 1,2,-1
 1152 896 l 1,3,-1
 0 896 l 1,4,-1
 0 1152 l 1,5,-1
 1152 1152 l 1,2,-1
896 1791 m 1,6,-1
 1152 1791 l 1,7,-1
 1152 896 l 1,8,-1
 896 896 l 1,9,-1
 896 1791 l 1,6,-1
EndSplineSet
EndChar

StartChar: triagup
Encoding: 9650 9650 145
Width: 1200
GlyphClass: 2
Flags: W
LayerCount: 2
Fore
SplineSet
600 1080 m 1,0,-1
 1140 0 l 1,1,-1
 60 0 l 1,2,-1
 600 1080 l 1,0,-1
EndSplineSet
EndChar

StartChar: uni25B6
Encoding: 9654 9654 146
Width: 1200
GlyphClass: 2
Flags: W
LayerCount: 2
Fore
SplineSet
60 1080 m 1,0,-1
 1140 540 l 1,1,-1
 60 0 l 1,2,-1
 60 1080 l 1,0,-1
EndSplineSet
EndChar

StartChar: triagrt
Encoding: 9658 9658 147
Width: 1200
GlyphClass: 2
Flags: W
LayerCount: 2
Fore
SplineSet
60 1080 m 1,0,-1
 1140 540 l 1,1,-1
 60 0 l 1,2,-1
 60 1080 l 1,0,-1
EndSplineSet
EndChar

StartChar: triagdn
Encoding: 9660 9660 148
Width: 1200
GlyphClass: 2
Flags: W
LayerCount: 2
Fore
SplineSet
1140 1080 m 1,0,-1
 600 0 l 1,1,-1
 60 1080 l 1,2,-1
 1140 1080 l 1,0,-1
EndSplineSet
EndChar

StartChar: uni25C0
Encoding: 9664 9664 149
Width: 1200
GlyphClass: 2
Flags: W
LayerCount: 2
Fore
SplineSet
1140 1080 m 1,0,-1
 1140 0 l 1,1,-1
 60 540 l 1,2,-1
 1140 1080 l 1,0,-1
EndSplineSet
EndChar

StartChar: uni25C1
Encoding: 9665 9665 150
Width: 2048
GlyphClass: 2
Flags: W
LayerCount: 2
Fore
SplineSet
2048 1792 m 1,0,-1
 2048 -256 l 1,1,-1
 0 775 l 1,2,-1
 2048 1792 l 1,0,-1
EndSplineSet
EndChar

StartChar: triaglf
Encoding: 9668 9668 151
Width: 1200
GlyphClass: 2
Flags: W
LayerCount: 2
Fore
SplineSet
1140 1080 m 1,0,-1
 1140 0 l 1,1,-1
 60 540 l 1,2,-1
 1140 1080 l 1,0,-1
EndSplineSet
EndChar

StartChar: uni27A1
Encoding: 10145 10145 152
Width: 2048
GlyphClass: 2
Flags: W
LayerCount: 2
Fore
SplineSet
1688 835 m 1,0,-1
 1092 235 l 1,1,-1
 1092 573 l 1,2,-1
 100 573 l 2,3,4
 55 573 55 573 27.5 600.5 c 128,-1,5
 0 628 0 628 0 673 c 2,6,-1
 0 997 l 2,7,8
 0 1042 0 1042 27.5 1069.5 c 128,-1,9
 55 1097 55 1097 100 1097 c 2,10,-1
 1092 1097 l 1,11,-1
 1092 1435 l 1,12,-1
 1688 835 l 1,0,-1
EndSplineSet
EndChar

StartChar: uni2B05
Encoding: 11013 11013 153
Width: 2048
GlyphClass: 2
Flags: W
LayerCount: 2
Fore
SplineSet
0 828 m 1,0,-1
 596 1428 l 1,1,-1
 596 1090 l 1,2,-1
 1588 1090 l 2,3,4
 1633 1090 1633 1090 1660.5 1062.5 c 128,-1,5
 1688 1035 1688 1035 1688 990 c 2,6,-1
 1688 666 l 2,7,8
 1688 621 1688 621 1660.5 593.5 c 128,-1,9
 1633 566 1633 566 1588 566 c 2,10,-1
 596 566 l 1,11,-1
 596 228 l 1,12,-1
 0 828 l 1,0,-1
EndSplineSet
EndChar

StartChar: uni2B06
Encoding: 11014 11014 154
Width: 2048
GlyphClass: 2
Flags: W
LayerCount: 2
Fore
SplineSet
600 1664 m 1,0,-1
 1200 1068 l 1,1,-1
 862 1068 l 1,2,-1
 862 76 l 2,3,4
 862 31 862 31 834.5 3.5 c 128,-1,5
 807 -24 807 -24 762 -24 c 2,6,-1
 438 -24 l 2,7,8
 393 -24 393 -24 365.5 3.5 c 128,-1,9
 338 31 338 31 338 76 c 2,10,-1
 338 1068 l 1,11,-1
 0 1068 l 1,12,-1
 600 1664 l 1,0,-1
EndSplineSet
EndChar

StartChar: uni2B07
Encoding: 11015 11015 155
Width: 2048
GlyphClass: 2
Flags: W
LayerCount: 2
Fore
SplineSet
762 1500 m 2,0,1
 807 1500 807 1500 834.5 1472.5 c 128,-1,2
 862 1445 862 1445 862 1400 c 2,3,-1
 862 408 l 1,4,-1
 1200 408 l 1,5,-1
 600 -188 l 1,6,-1
 0 408 l 1,7,-1
 338 408 l 1,8,-1
 338 1400 l 2,9,10
 338 1445 338 1445 365.5 1472.5 c 128,-1,11
 393 1500 393 1500 438 1500 c 2,12,-1
 762 1500 l 2,0,1
EndSplineSet
EndChar

